<?xml version="1.0" encoding="utf-8"?>
<!-- Generator: Adobe Illustrator 27.3.1, SVG Export Plug-In . SVG Version: 6.00 Build 0)  -->
<svg version="1.1" id="ziqiang_logo" xmlns="http://www.w3.org/2000/svg" xmlns:xlink="http://www.w3.org/1999/xlink" x="0px" y="0px"
	 viewBox="0 0 1024 1024" style="enable-background:new 0 0 1024 1024;" xml:space="preserve">
<style type="text/css">
	.st0{fill-rule:evenodd;clip-rule:evenodd;fill:#01579b;}
</style>
<path class="st0" d="M521.52,9.14c31.5-0.18,61.48,0.9,88.57,5.77c11.09,1.99,21.49,2.73,32.11,5.07
	c25.14,5.54,49.38,11.41,71.96,19.57c117.68,42.56,200.99,120.02,249.95,231.37c10.53,23.94,17.73,50.47,23.52,79
	c1.83,9.05,2.22,18.43,3.8,27.74c0.19,3.05,0.38,6.1,0.56,9.15c1.03,6.38,0.02,13.68,0.84,20.7c0,2.91,0,5.82,0,8.73
	c-0.09,5.44-0.19,10.89-0.28,16.33c-1.65,10.54-0.98,21.32-3.1,31.4c-3.37,16.06-4.79,32.24-9.72,46.89
	c-3.75,11.14-6.64,22.48-10.7,33.23c-4.34,11.5-9.78,22.64-14.5,33.51c-6.75,15.54-15.45,29.88-24.22,43.51
	c-26.76,41.62-59.29,76.83-98.43,106.04c-25.15,18.77-51.78,37.66-83.65,49.57c-10.29,3.84-20.91,6.98-31.68,10.56
	c-6.36,2.12-12.72,2.56-19.43,4.37c-12.64,3.4-26.97,4.17-40.84,6.48c-8.07,0.61-16.15,1.22-24.22,1.83
	c-7.46,0.19-14.93,0.38-22.39,0.56c-5.01,0.76-14.05,0.93-19.15,0.14c-2.68-0.05-5.35-0.09-8.03-0.14
	c-6.34-0.14-12.67-0.28-19.01-0.42c-15.82-2.53-31.64-5.07-47.46-7.6c-8.26-0.94-16.52-1.88-24.78-2.82
	c-13.52-0.99-27.04-1.97-40.56-2.96c-3.99-0.09-7.98-0.19-11.97-0.28c-8.64-0.33-17.27-0.66-25.91-0.99c-2.49,0-4.98,0-7.46,0
	c-5.77-0.14-11.55-0.28-17.32-0.42c-5.91-0.09-11.83-0.19-17.74-0.28c-10.37-0.05-20.75-0.09-31.12-0.14
	c-14.55,0.19-29.1,0.38-43.65,0.56c-3.45,0.53-16.1,1.21-18.31,0c-1.53-10.23,4.34-24.02,7.32-31.4
	c9.84-24.39,22.66-45.88,36.19-66.61c9.39-14.38,18.65-28.48,28.73-42.1c18.16-24.56,38.95-47.25,60.55-68.44
	c21.79-21.37,44.99-41.26,66.47-62.95c4.31-4.35,8.89-8.52,12.81-13.24c6.87-8.26,15.55-15.03,22.39-23.38
	c4.51-4.65,9.01-9.29,13.52-13.94c3.9-4.13,7.79-8.26,11.69-12.39c12.34-13.47,24.69-26.94,37.04-40.41
	c4.43-5.52,9.6-10.4,13.94-16.05c0.92-1.2,4.9-5.09,4.65-6.48c-1.16-3.22-15.81-3.57-20.56-4.37c-7.32-1.23-15.88-0.54-23.52-1.69
	c-2.39,0-4.79,0-7.18,0c-5.87-0.05-11.74-0.09-17.6-0.14c-8.64,0.09-17.27,0.19-25.91,0.28c-3.85,0.19-7.7,0.38-11.55,0.56
	c-11.69,0.8-23.38,1.6-35.06,2.39c-10.8,1.27-21.59,2.53-32.39,3.8c-21.9,4.02-43.27,7.25-63.37,12.67
	c-26.07,7.04-50.77,17-72.94,28.45c-6.15,3.29-12.3,6.57-18.45,9.86c-3.19,1.92-6.38,3.85-9.58,5.77c-0.09-0.05-0.19-0.09-0.28-0.14
	c0.31-2.7,4.34-7.59,5.77-9.86c5.21-8.78,10.42-17.56,15.63-26.33c9.39-14.85,16.83-30.73,25.91-45.91
	c5.31-8.88,9.47-18.52,14.79-27.6c2.49-4.69,4.98-9.39,7.46-14.08c5.21-10.65,10.42-21.31,15.63-31.97
	c1.42-3.13,3.92-10.69,6.34-12.53c1.97,1.22,3.94,2.44,5.91,3.66c4.32,2.66,10.15,4.3,15.07,6.06c17.87,6.39,38.44,9.1,58.58,12.81
	c6.76,0.94,13.52,1.88,20.28,2.82c9.15,0.99,18.31,1.97,27.46,2.96c14.69,0.99,29.39,1.97,44.08,2.96
	c4.51,0.09,9.01,0.19,13.52,0.28c6.52,0.19,13.05,0.38,19.57,0.56c2.35,0,4.69,0,7.04,0c3.75,0,7.51,0,11.27,0
	c7.55,0,15.36,0.55,22.39-0.56c3.24-0.05,6.48-0.09,9.72-0.14c7.13-0.38,14.27-0.75,21.4-1.13c7.46-0.61,14.93-1.22,22.39-1.83
	c17.62-2.87,35.27-3.45,52.1-6.9c19.69-4.04,38.96-8.23,56.89-13.52c4.89-1.44,9.45-2.4,14.08-4.22c7.6-2.91,15.21-5.82,22.81-8.73
	c2.63-1.25,7.44-4.39,10.42-4.65c0.05,0.14,0.09,0.28,0.14,0.42c-4.29,7.67-10.84,14.33-16.05,21.26
	c-10.63,14.13-22.22,27.3-32.95,41.26c-3.05,3.52-6.1,7.04-9.15,10.56c-13.2,17.14-28.74,32.21-42.25,49
	c-5.96,6.57-11.92,13.14-17.88,19.71c-8.03,8.45-16.05,16.9-24.08,25.35c-8.91,11.03-20.46,19.74-29.71,30.42
	c-4.93,5.68-11.33,12.18-17.18,16.9c-5.07,4.93-10.14,9.86-15.21,14.79c-9.29,8.54-18.59,17.09-27.88,25.63
	c-2.82,2.77-5.63,5.54-8.45,8.31c-7.66,6.18-14.29,13.79-21.26,20.7c-10.27,10.17-20.92,20.2-30.28,31.26
	c-8.04,9.5-17.31,18.08-25.07,27.88c-7.48,9.44-15.57,18.54-22.53,28.45c-6.4,9.11-12.05,18.33-18.02,28.02
	c-4.63,7.51-7.94,15.41-10.7,24.92c-1.03,3.55-2.1,9.85-0.56,13.8c1.91,4.91,7.28,3.3,13.24,4.22c6.29,0.33,12.58,0.66,18.87,0.99
	c2.02,0,4.04,0,6.06,0c8.92,0.38,17.84,0.75,26.76,1.13c6.1,0.33,12.2,0.66,18.31,0.99c22.15,1.64,44.31,3.29,66.47,4.93
	c15.44,1.55,30.89,3.1,46.33,4.65c4.08,0,8.17,0,12.25,0c2.11-0.05,4.22-0.09,6.34-0.14c5.67-0.96,11.8-1.58,17.04-2.68
	c29.07-6.09,51.44-15.65,74.35-27.32c47.83-24.35,84.79-60.9,113.5-104.49c6.63-10.07,13.18-21.13,18.31-32.53
	c6.59-14.66,12.01-29.92,17.46-46.05c2.94-8.7,3.85-17.6,6.34-26.9c2.57-9.59,2.9-19.88,4.79-30.56c0.98-5.55,0.89-12.56,1.13-18.59
	c0-2.21,0-4.41,0-6.62c-0.99-6.36,0.04-14.02-0.99-20.14c-0.47-5.07-0.94-10.14-1.41-15.21c-2.03-10.36-3.45-20.63-5.77-30.56
	c-4.04-17.27-10.21-33.42-16.48-48.44c-27.55-66.01-76.42-110.96-136.03-145.04c-18.32-10.47-38.69-18.19-59.28-26.33
	c-11.02-4.36-22.56-6.82-34.5-10.14c-13.02-3.62-27.24-5.53-41.4-8.45c-4.55-0.47-9.11-0.94-13.66-1.41
	c-5.82-0.56-11.64-1.13-17.46-1.69c-2.68-0.05-5.35-0.09-8.03-0.14c-2.35-0.09-4.69-0.19-7.04-0.28c-3.61-0.05-7.23-0.09-10.84-0.14
	c-9.11,0-19.38-0.13-28.02,1.27c-8.14,1.32-15.69,0.87-23.52,2.25c-17.08,3.02-33.7,5.42-49.43,9.86
	c-56.66,15.99-104.11,39.41-145.89,69.99c-19.12,13.99-37.62,29.24-53.09,46.89c-3.85,4.13-7.7,8.26-11.55,12.39
	c-10.83,13.52-22.31,26.69-32.11,41.26c-16.35,24.32-30.81,49.97-43.94,77.73c-7.31,15.46-12.87,32.18-18.59,49
	c-7.45,21.94-11.1,45.55-15.63,70.69c-0.66,6.38-1.31,12.77-1.97,19.15c-0.09,2.63-0.19,5.26-0.28,7.89c-1,6.47-0.7,13.77-0.7,20.98
	c0,7.16-0.3,14.45,0.7,20.84c0.09,2.68,0.19,5.35,0.28,8.03c0.66,6.24,1.31,12.49,1.97,18.73c0.99,6.24,1.97,12.49,2.96,18.73
	c3.85,16.46,7.19,32.55,12.39,47.32c4.28,12.14,8.06,23.47,12.96,34.78c28.41,65.72,74.42,123.56,130.4,161.8
	c13.26,9.06,27.57,17.07,42.39,24.5c8.74,4.39,18.19,7.56,27.18,11.69c5.35,1.78,10.7,3.57,16.05,5.35
	c14.72,5.31,31.21,9.04,47.74,12.39c8.17,1.27,16.34,2.53,24.5,3.8c10.29,1.95,20.86,0.99,31.68,2.68
	c5.05,0.79,10.92-0.27,16.33,0.56c6.81,0,13.61,0,20.42,0c2.11,0,4.22,0,6.34,0c8.21-0.42,16.43-0.84,24.64-1.27
	c14.48-2.31,28.99-2.2,42.95-4.79c12.88-2.39,26.02-3.94,38.58-6.9c15.67-3.69,31.4-7.53,46.33-11.55
	c10.62-2.86,20.86-5.37,30.98-9.01c5.67-2.04,11.61-4.23,17.88-5.63c21.56-4.8,38.94,6.74,46.47,19.01
	c1.46,2.38,2.67,5.69,3.24,8.73c4.28,22.76-7.87,39.64-20.56,47.6c-13.79,8.64-30.91,13.61-47.32,19.57
	c-37.17,13.51-77.33,21.55-120.82,29.15c-11.12,1.27-22.25,2.53-33.37,3.8c-3.8,0.28-7.6,0.56-11.41,0.84
	c-5.09,0.83-13-0.92-17.04,1.27c-5.73,0-11.45,0-17.18,0c-9.11,0-19.6,0.54-27.6-0.7c-6.3-0.98-12.92-0.19-18.73-1.13
	c-4.93-0.38-9.86-0.75-14.79-1.13c-12.82-2.11-25.98-3.33-38.02-5.77c-2.63-0.42-5.26-0.84-7.89-1.27
	c-17.67-4.76-35.39-7.71-51.82-13.66c-11.43-4.14-22.94-8.01-33.94-12.67c-5.49-2.53-10.98-5.07-16.48-7.6
	c-15.33-6.65-29.89-14.71-43.37-23.38c-23.9-15.36-46.42-31.03-66.75-49.85c-11.56-10.7-24.02-21.08-33.94-33.37
	c-3.19-3.43-6.38-6.85-9.58-10.28c-6.24-7.51-12.49-15.02-18.73-22.53c-10.21-13.52-19.98-27.15-29.57-41.4
	c-12.45-18.49-24.49-37.58-33.94-59c-9.7-22-16.36-46.67-22.53-71.96c-2.24-9.19-3.13-18.21-5.21-27.74
	c-2.41-11.05-2.81-22.67-4.79-34.64c-1.91-11.58-2.72-24.46-2.82-37.18c-0.14-5.68-0.28-11.36-0.42-17.04
	c-0.96-2.16-0.97-8.4,0-10.56c0.23-9.29,0.47-18.59,0.7-27.88c0.61-7.84,1.22-15.68,1.83-23.52c2.73-15.96,3.64-31.82,6.76-47.03
	c11.99-58.45,30.18-109,54.78-154.34c11.7-21.57,26.93-40.88,41.26-59.99c4.69-5.54,9.39-11.08,14.08-16.62
	c8.02-10.33,17.38-19.58,26.47-28.87c9.99-10.2,20.07-20.6,31.26-29.57c10.5-8.42,20.37-17.8,31.26-25.91
	C266.24,84.44,310,58.06,360.42,39.55c31.19-11.45,63.06-19,99.7-25.49c12.27-2.17,24.97-1.95,37.74-3.94
	C505.74,9.79,513.63,9.47,521.52,9.14z"/>
<path class="st0" d="M886.38,766.32c40.93-0.73,67.4,24.21,79,53.09c6.57,16.34,7.45,40.64,0.7,57.74
	c-9.38,23.76-26.84,42.07-51.82,50.13c-6.35,2.05-13.14,2.7-20.56,3.94c-2.16,0-4.32,0-6.48,0c-12.22,0-22.3-2.84-30.84-6.62
	c-19.38-8.57-33.27-21.78-42.53-40.41c-1.94-3.91-2.81-7.85-4.37-12.25c-3.29-9.31-4.95-24.49-2.53-36.19
	c1.07-5.2,2.11-10.55,3.94-15.21c9.56-24.21,25.89-39.29,49.57-49.43c5-2.14,11.1-3.08,16.9-4.08
	C880.37,766.79,883.37,766.55,886.38,766.32z"/>
</svg>
