<svg width="55" height="18" viewBox="0 0 55 18" fill="none" xmlns="http://www.w3.org/2000/svg">
<g clip-path="url(#clip0_18_84)">
<path fill-rule="evenodd" clip-rule="evenodd" d="M25.3045 0C25.4095 0 25.5147 0 25.6197 0C25.6647 0.0277104 25.7439 0.0215142 25.7994 0.0371766C25.8861 0.0616168 25.9715 0.0881224 26.0507 0.121512C26.3879 0.263679 26.6398 0.532865 26.7968 0.857644C26.8422 0.951274 26.8753 1.06263 26.9003 1.17244C26.967 1.46538 26.9119 1.81408 26.8191 2.03249C26.6128 2.51665 26.247 2.83713 25.664 2.94212C25.4396 2.98256 25.1697 2.94263 25.004 2.87775C24.5368 2.69462 24.2748 2.44712 24.0829 1.98792C23.9125 1.58018 24.014 1.01582 24.2036 0.713929C24.3632 0.459889 24.5833 0.25077 24.8686 0.124094C24.9679 0.0798609 25.0741 0.0561092 25.1887 0.0249565C25.2149 0.0177277 25.2949 0.0234075 25.3045 0Z" fill="#01579B"/>
<path fill-rule="evenodd" clip-rule="evenodd" d="M8.81161 0.017372C9.36247 0.0142739 9.88682 0.0332065 10.3607 0.118919C10.5547 0.15403 10.7365 0.166939 10.9222 0.208074C11.3619 0.305491 11.7857 0.408759 12.1806 0.552646C14.2385 1.30169 15.6956 2.665 16.5519 4.62469C16.7361 5.0462 16.8622 5.51297 16.9632 6.01503C16.9952 6.17423 17.002 6.33946 17.0298 6.50332C17.033 6.55701 17.0363 6.61071 17.0397 6.66441C17.0578 6.77663 17.04 6.9052 17.0544 7.02878C17.0544 7.08007 17.0544 7.13119 17.0544 7.18248C17.0527 7.27834 17.0511 7.37421 17.0494 7.46991C17.0207 7.65545 17.0321 7.84512 16.9952 8.02257C16.9364 8.30535 16.9114 8.59003 16.8252 8.84785C16.7597 9.04406 16.7091 9.24354 16.6381 9.4327C16.5622 9.6351 16.4671 9.83114 16.3845 10.0225C16.2663 10.296 16.1143 10.5483 15.9609 10.7884C15.4928 11.521 14.924 12.1407 14.2393 12.6547C13.7995 12.985 13.3338 13.3175 12.7764 13.5271C12.5965 13.5948 12.4108 13.6498 12.2223 13.713C12.1111 13.7502 11.9998 13.7581 11.8825 13.7898C11.6614 13.8497 11.411 13.8631 11.1683 13.9037C11.027 13.9144 10.8859 13.9252 10.7447 13.9359C10.6142 13.9392 10.4837 13.9424 10.353 13.9459C10.2655 13.9593 10.1073 13.9622 10.0182 13.9483C9.97131 13.9474 9.92462 13.9466 9.87776 13.9459C9.76694 13.9435 9.65612 13.9409 9.54529 13.9385C9.26875 13.8939 8.99203 13.8493 8.71532 13.8046C8.57081 13.788 8.42629 13.7715 8.28195 13.755C8.0456 13.7376 7.80907 13.7202 7.57272 13.703C7.50294 13.7013 7.43316 13.6997 7.36339 13.698C7.21237 13.6922 7.06136 13.6865 6.91018 13.6806C6.86674 13.6806 6.82313 13.6806 6.77969 13.6806C6.67878 13.6782 6.57771 13.6756 6.47681 13.6732C6.37334 13.6715 6.26987 13.67 6.16657 13.6682C5.98512 13.6674 5.80366 13.6665 5.62238 13.6658C5.3679 13.6691 5.11341 13.6724 4.85893 13.6758C4.79873 13.6851 4.57726 13.6972 4.53878 13.6758C4.51193 13.4958 4.61471 13.2531 4.66687 13.1232C4.83909 12.6939 5.06313 12.3158 5.29983 11.9509C5.46401 11.6979 5.62597 11.4495 5.80229 11.2098C6.11988 10.7776 6.48348 10.3781 6.86126 10.0053C7.2423 9.62908 7.64797 9.27917 8.02371 8.89742C8.09896 8.821 8.17916 8.74751 8.24774 8.66438C8.3678 8.51894 8.51967 8.39984 8.63939 8.25303C8.71823 8.17127 8.79707 8.08952 8.87574 8.00759C8.94381 7.93496 9.01204 7.86215 9.08011 7.78952C9.29594 7.55252 9.51194 7.31535 9.72777 7.07818C9.80525 6.9811 9.89572 6.89522 9.97165 6.79556C9.98773 6.77439 10.0573 6.70589 10.0529 6.68163C10.0327 6.625 9.77634 6.6188 9.6934 6.60486C9.5653 6.58318 9.41583 6.5954 9.28209 6.57509C9.24019 6.57509 9.19829 6.57509 9.15656 6.57509C9.05395 6.57423 8.95133 6.57337 8.84872 6.57268C8.69771 6.5744 8.54669 6.57595 8.39551 6.57767C8.32812 6.58094 8.26091 6.58421 8.19353 6.58765C7.98916 6.60176 7.78462 6.61571 7.58024 6.62982C7.39143 6.65219 7.20263 6.6744 7.01382 6.69677C6.6309 6.76751 6.25704 6.82431 5.90559 6.91983C5.44964 7.04375 5.01764 7.21914 4.62993 7.42051C4.52236 7.47834 4.41479 7.53617 4.30738 7.594C4.25163 7.62791 4.19571 7.66181 4.13995 7.69555C4.13824 7.69469 4.1367 7.69383 4.13499 7.69314C4.14047 7.64564 4.21093 7.55958 4.2359 7.51965C4.32705 7.36509 4.41821 7.2107 4.50919 7.05615C4.67337 6.7947 4.80352 6.51536 4.9624 6.24824C5.05527 6.09196 5.12795 5.92243 5.22099 5.76254C5.26443 5.67992 5.30804 5.59731 5.35148 5.51469C5.44263 5.32726 5.53379 5.13966 5.62477 4.95205C5.64957 4.89698 5.69335 4.76393 5.73559 4.7314C5.77014 4.75292 5.80452 4.77443 5.83906 4.79577C5.91466 4.84259 6.01658 4.87133 6.10261 4.90231C6.41524 5.0147 6.77473 5.06238 7.12703 5.12778C7.24521 5.1443 7.36339 5.16083 7.48173 5.17735C7.64181 5.19473 7.80189 5.21212 7.96197 5.22933C8.21884 5.24671 8.47589 5.26409 8.73276 5.28131C8.81161 5.28303 8.89045 5.28458 8.96912 5.2863C9.08319 5.28957 9.19726 5.29284 9.31151 5.29628C9.35255 5.29628 9.3936 5.29628 9.43464 5.29628C9.50031 5.29628 9.56599 5.29628 9.63166 5.29628C9.76369 5.29628 9.90016 5.30592 10.0233 5.2863C10.0799 5.28544 10.1365 5.28458 10.1933 5.28389C10.3181 5.27735 10.4428 5.27064 10.5677 5.26409C10.6982 5.25342 10.8286 5.24258 10.9593 5.23191C11.2675 5.18131 11.5762 5.17115 11.8705 5.1104C12.215 5.03931 12.5519 4.96565 12.8655 4.87254C12.951 4.84723 13.0307 4.83037 13.1118 4.79818C13.2449 4.74689 13.3777 4.69577 13.5108 4.64448C13.5568 4.62245 13.6409 4.56721 13.6931 4.56273C13.694 4.56514 13.6948 4.56772 13.6955 4.57013C13.6206 4.70507 13.506 4.82245 13.4147 4.94431C13.2288 5.19301 13.0261 5.42485 12.8383 5.67046C12.785 5.73242 12.7316 5.79438 12.6783 5.85634C12.4475 6.15788 12.1758 6.42328 11.9394 6.7188C11.8351 6.83446 11.731 6.95012 11.6266 7.06578C11.4862 7.21449 11.3458 7.3632 11.2056 7.5119C11.0498 7.70605 10.8476 7.8594 10.686 8.04718C10.5998 8.14718 10.4878 8.26146 10.3855 8.34459C10.2969 8.43134 10.2082 8.51808 10.1196 8.60483C9.95712 8.75525 9.79447 8.90551 9.632 9.05594C9.58275 9.10465 9.53349 9.15335 9.48424 9.20223C9.35033 9.31101 9.23437 9.44509 9.11243 9.5666C8.93286 9.7456 8.74662 9.92219 8.58295 10.1168C8.44237 10.2841 8.28024 10.4351 8.14462 10.6075C8.01379 10.7736 7.87235 10.9339 7.75058 11.1082C7.63856 11.2685 7.53988 11.4308 7.43539 11.6015C7.35449 11.7337 7.29652 11.8728 7.24829 12.0402C7.23033 12.1027 7.21169 12.2137 7.23837 12.2831C7.27172 12.3695 7.36578 12.3412 7.46993 12.3574C7.5799 12.3633 7.68987 12.369 7.80001 12.3748C7.83524 12.3748 7.87064 12.3748 7.90587 12.3748C8.06184 12.3814 8.21782 12.3881 8.37379 12.3946C8.48051 12.4005 8.58722 12.4061 8.69394 12.412C9.08131 12.4409 9.46885 12.4698 9.85638 12.4987C10.1264 12.5259 10.3966 12.5533 10.6667 12.5805C10.7382 12.5805 10.8095 12.5805 10.881 12.5805C10.9179 12.5796 10.9549 12.5788 10.9918 12.5781C11.091 12.5612 11.1982 12.5504 11.2897 12.5309C11.798 12.4239 12.1893 12.2554 12.59 12.05C13.4265 11.6215 14.0729 10.9781 14.5749 10.211C14.6908 10.0339 14.8054 9.83906 14.8951 9.63854C15.0103 9.38054 15.1052 9.11205 15.2005 8.82806C15.2518 8.67488 15.2679 8.51825 15.3113 8.35475C15.3563 8.1859 15.3621 8.00484 15.3951 7.81689C15.4122 7.7193 15.4107 7.5959 15.4148 7.4897C15.4148 7.4508 15.4148 7.41208 15.4148 7.37318C15.3975 7.26131 15.4155 7.12637 15.3975 7.0188C15.3893 6.92964 15.3811 6.84031 15.3729 6.75116C15.3373 6.56872 15.3125 6.38817 15.272 6.2133C15.2014 5.90935 15.0934 5.62502 14.9838 5.36065C14.502 4.19871 13.6473 3.40767 12.6049 2.80786C12.2844 2.62352 11.9282 2.48772 11.5681 2.34435C11.3754 2.26759 11.1736 2.22439 10.9648 2.16587C10.7371 2.10219 10.4883 2.06845 10.2407 2.01716C10.161 2.0089 10.0814 2.00064 10.0018 1.99238C9.89999 1.9824 9.79824 1.97259 9.69631 1.9626C9.64945 1.96174 9.60276 1.96088 9.5559 1.96019C9.51485 1.95847 9.47381 1.95692 9.43276 1.9552C9.36948 1.95434 9.30637 1.95348 9.2431 1.95279C9.08387 1.95279 8.90413 1.95056 8.75294 1.97517C8.61048 1.9984 8.47863 1.99049 8.34164 2.01475C8.04303 2.06794 7.75229 2.11011 7.47729 2.18825C6.48638 2.46965 5.65658 2.88187 4.92597 3.42007C4.59162 3.66636 4.26805 3.93469 3.99749 4.24535C3.93011 4.31798 3.8629 4.39079 3.79551 4.46342C3.60602 4.70145 3.40541 4.93312 3.23405 5.18957C2.9481 5.61762 2.69515 6.06907 2.46564 6.5577C2.33772 6.82982 2.24058 7.12413 2.14053 7.42017C2.01021 7.80639 1.94642 8.22187 1.86723 8.66438C1.85578 8.77677 1.84432 8.88916 1.83269 9.00138C1.83098 9.04768 1.82944 9.09398 1.82773 9.1401C1.81028 9.25404 1.81542 9.38244 1.81542 9.50946C1.81542 9.63545 1.81028 9.76367 1.82773 9.87623C1.82944 9.92339 1.83098 9.97038 1.83269 10.0175C1.84415 10.1273 1.85561 10.2373 1.86723 10.3471C1.88451 10.4569 1.90178 10.5669 1.91888 10.6767C1.98627 10.9664 2.04459 11.2497 2.13557 11.5094C2.21031 11.723 2.27666 11.9225 2.36217 12.1216C2.85899 13.2782 3.66366 14.2963 4.64259 14.9694C4.8745 15.1288 5.12487 15.2698 5.3838 15.4007C5.53669 15.478 5.7019 15.5338 5.85907 15.6064C5.95262 15.6377 6.04617 15.6692 6.13989 15.7006C6.39745 15.794 6.68562 15.8598 6.97482 15.9186C7.11763 15.941 7.26043 15.9632 7.40341 15.9856C7.58332 16.02 7.7682 16.003 7.95752 16.0328C8.04594 16.0467 8.14855 16.0281 8.24313 16.0427C8.36216 16.0427 8.48119 16.0427 8.60022 16.0427C8.63716 16.0427 8.6741 16.0427 8.71105 16.0427C8.8547 16.0353 8.99836 16.0279 9.14202 16.0204C9.39531 15.9797 9.64893 15.9816 9.89315 15.936C10.1184 15.894 10.3482 15.8667 10.568 15.8145C10.842 15.7495 11.1172 15.682 11.3783 15.6112C11.564 15.561 11.7431 15.5168 11.9201 15.4526C12.0193 15.4166 12.1231 15.378 12.2329 15.3534C12.61 15.2689 12.9139 15.472 13.0456 15.688C13.0711 15.7298 13.0923 15.7882 13.1022 15.8417C13.1771 16.2422 12.9647 16.5395 12.7427 16.6794C12.5016 16.8314 12.2023 16.919 11.9153 17.024C11.2653 17.2616 10.5629 17.4031 9.80234 17.537C9.60789 17.5594 9.41326 17.5816 9.21864 17.604C9.15211 17.609 9.08558 17.614 9.01923 17.6188C8.93012 17.6334 8.79194 17.6024 8.72131 17.6412C8.62109 17.6412 8.52104 17.6412 8.42082 17.6412C8.26143 17.6412 8.07809 17.6508 7.93819 17.6288C7.82806 17.6116 7.7121 17.6255 7.61069 17.609C7.52449 17.6024 7.43829 17.5957 7.3521 17.5892C7.12789 17.552 6.89786 17.5305 6.68716 17.4876C6.64116 17.4802 6.59515 17.4728 6.54932 17.4653C6.24028 17.3814 5.93039 17.3295 5.64307 17.2248C5.44315 17.152 5.24185 17.0839 5.04962 17.0018C4.95351 16.9572 4.85756 16.9126 4.76145 16.8678C4.49329 16.7508 4.2388 16.609 4.00296 16.4565C3.58499 16.1861 3.19112 15.9104 2.83556 15.5791C2.63342 15.3908 2.41553 15.2082 2.24212 14.9916C2.18636 14.9314 2.13044 14.871 2.07469 14.8107C1.96557 14.6786 1.85629 14.5464 1.74718 14.4142C1.56863 14.1762 1.39778 13.9362 1.23 13.6855C1.01212 13.36 0.801593 13.024 0.636556 12.6469C0.466902 12.2597 0.350436 11.8256 0.24252 11.3805C0.203356 11.2189 0.187793 11.06 0.151365 10.8922C0.109123 10.6977 0.102111 10.4933 0.0675644 10.2826C0.034215 10.0788 0.0200201 9.85214 0.0183099 9.62822C0.0159156 9.52822 0.0133502 9.42822 0.0109559 9.32839C-0.00580431 9.29036 -0.00597533 9.18055 0.0109559 9.14251C0.0150604 8.979 0.019165 8.81532 0.0232695 8.65181C0.0338729 8.51378 0.0446474 8.37592 0.0552508 8.23788C0.102966 7.95699 0.118871 7.67782 0.173427 7.41001C0.382075 6.3818 0.700177 5.49215 1.13047 4.69423C1.33518 4.31454 1.60147 3.97479 1.85201 3.63848C1.9341 3.54106 2.0162 3.44347 2.09829 3.34606C2.23852 3.16413 2.40219 3.00131 2.56124 2.83798C2.73603 2.65846 2.91235 2.4755 3.108 2.3175C3.29168 2.16931 3.46424 2.00426 3.65476 1.8614C4.34723 1.34265 5.11273 0.878458 5.99435 0.552819C6.53974 0.351273 7.09728 0.218401 7.73793 0.10429C7.95256 0.0660802 8.17472 0.0698667 8.3979 0.0349276C8.53575 0.0289036 8.67376 0.0230517 8.81161 0.017372Z" fill="#01579B"/>
<path fill-rule="evenodd" clip-rule="evenodd" d="M37.0148 1.37793C38.3723 1.37793 39.7304 1.37793 41.0882 1.37793C41.3928 1.37793 41.6974 1.37793 42.0018 1.37793C42.1646 1.37793 42.3549 1.36055 42.4894 1.39772C42.6889 1.45297 42.822 1.53628 42.9597 1.64798C43.0079 1.68705 43.0467 1.74522 43.0828 1.79668C43.1586 1.90494 43.2126 2.02697 43.2478 2.17843C43.2689 2.26862 43.2651 2.37172 43.2651 2.47826C43.2651 2.61543 43.2651 2.75261 43.2651 2.88961C43.2651 3.40337 43.2651 3.9173 43.2651 4.43123C43.2651 4.77081 43.2651 5.11039 43.2651 5.4498C43.2651 5.63018 43.2846 5.84016 43.2478 5.99506C43.2087 6.16012 43.1473 6.29506 43.0607 6.4114C42.9246 6.59453 42.7314 6.7071 42.4796 6.77577C42.3806 6.80279 42.2571 6.79556 42.1372 6.79556C41.9566 6.79556 41.776 6.79556 41.5954 6.79556C41.107 6.79556 40.6185 6.79556 40.1301 6.79556C39.897 6.79556 39.6637 6.79556 39.4306 6.79556C39.3692 6.79556 39.1967 6.7799 39.1573 6.80296C39.1573 7.61672 39.1573 8.43047 39.1573 9.24423C39.1614 9.2475 39.1655 9.25077 39.1696 9.25421C40.1867 9.25507 41.204 9.25593 42.221 9.25662C42.4688 9.25662 42.7168 9.25662 42.9648 9.25662C43.0337 9.25662 43.2162 9.23907 43.2627 9.26402C43.2636 9.3623 43.2644 9.46058 43.2651 9.55903C43.2619 9.68295 43.2586 9.80687 43.2552 9.93079C43.2535 9.97864 43.2519 10.0267 43.2502 10.0745C43.2494 10.1224 43.2485 10.1704 43.2478 10.2182C43.2372 10.385 43.2265 10.552 43.2159 10.7189C43.2036 10.8552 43.1912 10.9915 43.1789 11.1278C43.1298 11.4123 43.1133 11.7079 43.0631 11.9805C42.9651 12.5141 42.882 13.0259 42.7233 13.4948C42.6883 13.5982 42.671 13.6972 42.6322 13.7972C42.5213 14.0837 42.4145 14.3617 42.2923 14.6298C42.1046 15.0422 41.8359 15.3923 41.5782 15.7352C41.4393 15.92 41.2826 16.0895 41.1202 16.2506C41.0191 16.3508 40.9214 16.4534 40.8099 16.5431C40.7013 16.6303 40.5996 16.7288 40.4874 16.8133C40.0668 17.1293 39.5426 17.4585 38.9778 17.6212C36.1903 17.622 33.4019 17.6229 30.6144 17.6236C28.8816 17.6236 27.1483 17.6236 25.4157 17.6236C24.9469 17.6236 24.4781 17.6236 24.0095 17.6236C23.8125 17.6236 23.6155 17.6236 23.4185 17.6236C23.4094 17.6153 23.4003 17.6071 23.3914 17.5988C23.3239 17.569 23.2543 17.5646 23.192 17.5344C22.9399 17.4124 22.7487 17.2009 22.6625 16.9124C22.5957 16.689 22.6256 16.3241 22.6256 16.0426C22.6256 15.4849 22.6256 14.9273 22.6256 14.3696C22.6256 11.6543 22.6256 8.93821 22.6256 6.22294C22.6256 5.7677 22.6256 5.31246 22.6256 4.85739C22.6256 4.61849 22.6006 4.33158 22.6649 4.14862C22.7891 3.79562 23.0335 3.53521 23.4308 3.45965C23.6788 3.41249 23.9326 3.47944 24.0858 3.57617C24.3139 3.72023 24.4754 3.90095 24.5561 4.19337C24.6072 4.37857 24.5807 4.70799 24.5807 4.9369C24.5807 5.42106 24.5807 5.90522 24.5807 6.3892C24.5807 8.71876 24.5807 11.0488 24.5807 13.3784C24.5807 14.0194 24.5807 14.6607 24.5807 15.3016C24.5807 15.4775 24.5807 15.6536 24.5807 15.8295C24.5807 15.8896 24.5643 16.0006 24.5881 16.0451C29.2438 16.0469 33.901 16.0484 38.5567 16.0501C38.5699 16.0577 38.5707 16.0754 38.5789 16.0873C38.6412 16.0821 38.7941 15.9889 38.8498 15.9584C39.0754 15.8353 39.2894 15.7174 39.4925 15.5766C39.8101 15.3569 40.1185 15.1047 40.3422 14.7909C40.6899 14.3032 40.9295 13.7219 41.1279 13.0808C41.1935 12.8683 41.2317 12.6535 41.2879 12.429C41.3606 12.1394 41.394 11.8249 41.453 11.517C41.4653 11.4113 41.4776 11.3055 41.4899 11.1998C41.5074 11.0929 41.5065 10.9834 41.5245 10.8702C41.5306 10.8313 41.5472 10.7643 41.5318 10.7339C40.6478 10.733 39.7634 10.7322 38.8794 10.7315C38.6964 10.7315 38.5133 10.7315 38.3303 10.7315C38.1596 10.7315 37.9853 10.739 37.8697 10.6869C37.7515 10.6335 37.6458 10.5137 37.6087 10.3795C37.5844 10.2921 37.5914 10.1687 37.5914 10.0573C37.5914 9.87554 37.5914 9.69379 37.5914 9.51204C37.5914 8.55715 37.5914 7.60192 37.5914 6.64703C37.5914 6.43808 37.5914 6.22896 37.5914 6.02002C37.5914 5.90023 37.5822 5.7634 37.6087 5.66804C37.6282 5.59799 37.6717 5.53328 37.7122 5.48216C37.8789 5.27201 38.1993 5.31865 38.5642 5.31865C39.2529 5.31865 39.9418 5.31865 40.6305 5.31865C40.8735 5.31865 41.1166 5.31865 41.3594 5.31865C41.4046 5.31865 41.5841 5.32795 41.5983 5.30626C41.5992 4.69491 41.6 4.08356 41.6007 3.47221C41.6007 3.32936 41.6007 3.18633 41.6007 3.04348C41.6007 2.99116 41.6142 2.90166 41.5958 2.86C41.5215 2.84193 41.4133 2.85501 41.3298 2.85501C41.1501 2.85501 40.9703 2.85501 40.7904 2.85501C40.224 2.85501 39.6576 2.85501 39.0911 2.85501C38.8338 2.85501 38.4898 2.88462 38.2884 2.82025C37.8452 2.67894 37.6304 2.30993 37.3994 1.9552C37.2698 1.76605 37.1399 1.57672 37.0103 1.38757C37.0115 1.38464 37.013 1.38137 37.0148 1.37793Z" fill="#01579B"/>
<path fill-rule="evenodd" clip-rule="evenodd" d="M52.6531 11.4802C52.6531 11.3132 52.6531 11.1464 52.6531 10.9795C52.6531 10.3542 52.6531 9.72856 52.6531 9.10327C52.6531 8.89673 52.6531 8.6902 52.6531 8.48366C52.6531 8.31361 52.658 8.14511 52.6211 8.01276C52.5169 7.63927 52.2402 7.38058 51.8453 7.299C51.7427 7.27783 51.6225 7.2842 51.5029 7.2842C51.324 7.2842 51.145 7.2842 50.9661 7.2842C50.7166 7.28334 50.4669 7.28248 50.2174 7.28179C50.2009 7.26853 50.2074 7.22138 50.2074 7.19263C50.2074 7.1083 50.2074 7.02413 50.2074 6.9398C50.2074 6.67629 50.2074 6.41261 50.2074 6.14911C50.2074 6.07131 50.1919 5.86581 50.2148 5.81211C50.3362 5.81125 50.4578 5.81039 50.5792 5.8097C50.8484 5.8097 51.1178 5.8097 51.387 5.8097C51.5323 5.8097 51.6943 5.82415 51.8253 5.79971C52.0158 5.76443 52.1626 5.68904 52.2908 5.59146C52.4649 5.4591 52.5694 5.26134 52.6356 5.019C52.6573 4.93966 52.6529 4.84706 52.6529 4.75137C52.6529 4.62418 52.6529 4.49698 52.6529 4.36962C52.6529 3.93434 52.6529 3.49889 52.6529 3.06345C52.6529 2.89908 52.6529 2.73471 52.6529 2.57017C52.6529 2.37361 52.6548 2.19031 52.6036 2.04729C52.534 1.85228 52.4116 1.67879 52.2565 1.56898C52.1479 1.49205 52.0256 1.43852 51.8797 1.3979C51.7345 1.35745 51.5248 1.37811 51.3502 1.37811C51.0136 1.37811 50.6771 1.37811 50.3405 1.37811C48.8434 1.37811 47.3457 1.37811 45.8484 1.37811C45.8091 1.3831 45.7696 1.38809 45.7302 1.39291C45.6793 1.40616 45.6285 1.41941 45.5775 1.43249C45.3268 1.53232 45.1187 1.70547 45.0135 1.95056C44.9743 2.04178 44.9502 2.14074 44.9297 2.25296C44.9288 2.51974 44.928 2.78669 44.9273 3.05346C44.9273 3.48461 44.9273 3.91593 44.9273 4.34724C44.9273 4.56428 44.9037 4.84173 44.9446 5.02882C44.9981 5.27391 45.1352 5.48268 45.309 5.60884C45.4325 5.69851 45.5736 5.76478 45.7523 5.79971C45.8358 5.81607 45.9296 5.8097 46.0232 5.8097C46.1751 5.8097 46.3269 5.8097 46.4788 5.8097C47.2628 5.81056 48.0467 5.81142 48.8307 5.81211C48.8519 5.84791 48.8381 5.9529 48.8381 6.01038C48.8381 6.17733 48.8381 6.34411 48.8381 6.51106C48.8389 7.25786 48.8398 8.00484 48.8404 8.75164C48.8413 8.75405 48.8422 8.75663 48.8428 8.75904C49.6218 8.76076 50.401 8.76231 51.18 8.76403C51.199 8.80672 51.185 8.8988 51.185 8.95233C51.185 9.09931 51.185 9.24647 51.185 9.39345C51.1841 9.93699 51.1833 10.4807 51.1826 11.0242C51.1376 11.0444 50.9226 11.0292 50.8551 11.0292C50.4792 11.0301 50.1031 11.0309 49.7272 11.0316C49.7248 11.0325 49.7222 11.0334 49.7198 11.034C49.719 11.5537 49.7181 12.0734 49.7175 12.5931C49.7529 12.6158 49.988 12.603 50.0549 12.603C50.3496 12.603 50.6444 12.603 50.9391 12.603C51.1229 12.603 51.3068 12.603 51.4908 12.603C51.6322 12.603 51.7762 12.6073 51.8922 12.5807C52.1037 12.5323 52.2975 12.4125 52.4143 12.2659C52.5171 12.1368 52.5964 11.9915 52.6383 11.8C52.659 11.7049 52.6531 11.5924 52.6531 11.4802ZM46.7056 4.43141C46.6768 4.41661 46.6883 4.37237 46.6883 4.32986C46.6883 4.23657 46.6883 4.14312 46.6883 4.04983C46.6883 3.73848 46.6883 3.42695 46.6883 3.11542C46.6883 3.04417 46.6753 2.79082 46.6957 2.75605C48.0927 2.75691 49.4902 2.75777 50.8872 2.75846C50.9011 2.78755 50.8946 2.84624 50.8946 2.88737C50.8946 3.00131 50.8946 3.11542 50.8946 3.22936C50.8937 3.62678 50.8929 4.02419 50.8922 4.42143C50.8548 4.44156 50.6519 4.42883 50.5893 4.42883C50.3348 4.42883 50.0804 4.42883 49.8259 4.42883C48.7859 4.42986 47.7456 4.43055 46.7056 4.43141Z" fill="#01579B"/>
<path fill-rule="evenodd" clip-rule="evenodd" d="M34.5594 12.9944C34.5594 12.507 34.5594 12.0196 34.5594 11.5321C34.5594 9.88656 34.5594 8.24064 34.5594 6.59506C34.5594 6.08371 34.5594 5.57218 34.5594 5.06083C34.5594 4.66497 34.5744 4.36515 34.4215 4.12143C34.2854 3.90457 34.0884 3.74192 33.8108 3.66791C33.666 3.62919 33.4667 3.64313 33.2887 3.64313C32.9817 3.64313 32.6745 3.64313 32.3675 3.64313C30.7112 3.64313 29.0542 3.64313 27.3978 3.64313C27.3585 3.64554 27.319 3.64812 27.2796 3.65053C27.2099 3.66361 27.138 3.67893 27.0753 3.70251C26.8259 3.79665 26.6424 3.98168 26.5285 4.213C26.4391 4.39475 26.4397 4.64173 26.4399 4.91935C26.4399 5.1061 26.4399 5.29284 26.4399 5.47941C26.4399 6.02295 26.4399 6.56666 26.4399 7.11019C26.4399 7.38299 26.4107 7.73806 26.4768 7.95286C26.5574 8.21379 26.7141 8.39812 26.9225 8.53031C27.0175 8.59037 27.1384 8.62807 27.2649 8.65423C27.3978 8.68159 27.5678 8.66421 27.7156 8.66421C28.0003 8.66421 28.2852 8.66421 28.5702 8.66421C29.9779 8.66507 31.3861 8.66593 32.7937 8.66662C32.8064 8.71447 32.7987 8.78848 32.7987 8.8451C32.7987 8.97556 32.7987 9.1062 32.7987 9.23666C32.7978 9.60171 32.797 9.96694 32.7963 10.3322C32.7493 10.3557 32.5025 10.3396 32.4269 10.3396C32.1208 10.3396 31.8145 10.3396 31.5083 10.3396C30.4199 10.3396 29.3312 10.3396 28.2428 10.3396C27.9842 10.3396 27.7257 10.3396 27.4671 10.3396C27.3143 10.3396 27.1437 10.3291 27.0214 10.3619C26.7595 10.4323 26.5499 10.6318 26.4746 10.8898C26.4568 10.9507 26.4514 11.0137 26.4401 11.0831C26.4136 11.2478 26.5032 11.4473 26.5583 11.5366C26.6638 11.7079 26.8117 11.8244 27.0238 11.8886C27.1286 11.9203 27.2711 11.9134 27.4055 11.9134C27.6017 11.9134 27.798 11.9134 27.9942 11.9134C29.5931 11.9134 31.1926 11.9134 32.7915 11.9134C32.8146 11.9561 32.7989 12.0635 32.7989 12.1216C32.7989 12.2934 32.7989 12.4653 32.7989 12.6371C32.7989 12.856 32.7989 13.075 32.7989 13.2939C32.7989 13.4395 32.7913 13.5925 32.8211 13.7102C32.8827 13.955 33.0154 14.1515 33.1929 14.2803C33.3208 14.3731 33.4823 14.4459 33.6731 14.4736C33.6945 14.4686 33.7159 14.4636 33.7371 14.4588C33.8245 14.4393 33.8941 14.4226 33.9637 14.3918C34.2209 14.2781 34.4186 14.0803 34.5105 13.802C34.5797 13.5911 34.5594 13.2736 34.5594 12.9944ZM32.7985 5.37322C32.7985 5.49628 32.7985 5.61934 32.7985 5.74258C32.7985 6.18869 32.7985 6.63481 32.7985 7.08093C32.7635 7.10159 32.5126 7.08833 32.4414 7.08833C32.1312 7.08833 31.8208 7.08833 31.5106 7.08833C30.345 7.08833 29.179 7.08833 28.0135 7.08833C27.9978 7.06131 28.0061 6.98644 28.0061 6.93963C28.0061 6.81812 28.0061 6.69678 28.0061 6.57526C28.0061 6.12587 28.0061 5.67631 28.0061 5.22692C28.0102 5.22365 28.0143 5.22038 28.0184 5.21694C29.6091 5.2178 31.2005 5.21866 32.7912 5.21935C32.8083 5.25205 32.7985 5.32744 32.7985 5.37322Z" fill="#01579B"/>
<path fill-rule="evenodd" clip-rule="evenodd" d="M45.8905 7.28421C46.5431 7.28507 47.1957 7.28593 47.8483 7.28662C47.8525 7.29075 47.8566 7.29488 47.8607 7.29901C47.8607 7.64427 47.8607 7.98971 47.8607 8.33497C47.8607 8.43909 47.8607 8.54322 47.8607 8.64718C47.8607 8.68126 47.867 8.73341 47.8557 8.75871C47.5003 8.75957 47.1448 8.76043 46.7894 8.76112C46.714 8.76112 46.4393 8.74494 46.3953 8.76852C46.3945 9.34011 46.3936 9.91205 46.3929 10.4836C46.3929 10.62 46.3929 10.7563 46.3929 10.8926C46.3929 10.9222 46.382 11.0132 46.4003 11.0265C47.2104 11.0282 48.0209 11.0298 48.831 11.0315C48.8334 11.0347 48.836 11.038 48.8384 11.0415C48.8384 12.2755 48.8384 13.5101 48.8384 14.7443C48.8384 15.0583 48.8384 15.3722 48.8384 15.6861C48.8384 15.7577 48.8247 16.009 48.8483 16.0479C49.7004 16.0479 50.5526 16.0479 51.4046 16.0479C51.5934 16.0479 51.7822 16.0479 51.971 16.0479C52.0735 16.0479 52.191 16.0371 52.2765 16.0603C52.3444 16.0789 52.4082 16.1097 52.4588 16.147C52.6739 16.3057 52.6534 16.5205 52.6534 16.8856C52.6534 17.0102 52.6657 17.1572 52.6387 17.2598C52.6089 17.3728 52.5351 17.472 52.4516 17.5324C52.2978 17.6438 52.0678 17.6241 51.8039 17.6241C51.3697 17.6241 50.9353 17.6241 50.5011 17.6241C48.7773 17.6241 47.0531 17.6241 45.3294 17.6241C44.9641 17.6241 44.5987 17.6241 44.2334 17.6241C44.0511 17.6233 43.869 17.6224 43.6867 17.6217C43.488 17.5835 43.3496 17.4672 43.2877 17.2921C43.2523 17.192 43.2655 17.0327 43.2655 16.9006C43.2655 16.5154 43.2403 16.2908 43.4772 16.1322C43.6641 16.0073 44.0595 16.0479 44.3662 16.0479C45.0499 16.0479 45.7338 16.0479 46.4176 16.0479C46.6803 16.0479 46.943 16.0479 47.2056 16.0479C47.2499 16.0479 47.4526 16.0565 47.4666 16.0379C47.4675 15.729 47.4683 15.4199 47.469 15.1109C47.4682 14.2765 47.4673 13.4421 47.4666 12.6077C47.4642 12.6068 47.4617 12.606 47.4593 12.6053C47.2532 12.6044 47.0471 12.6036 46.8412 12.6029C46.6064 12.6029 46.3716 12.6029 46.1369 12.6029C46.0158 12.6029 45.8777 12.6179 45.7675 12.5955C45.5224 12.5456 45.3128 12.4475 45.1814 12.2833C45.0781 12.1542 44.9868 12.0141 44.9451 11.8223C44.9215 11.7137 44.9278 11.5917 44.9278 11.463C44.9278 11.2812 44.9278 11.0995 44.9278 10.9177C44.9278 10.2774 44.9278 9.63718 44.9278 8.99692C44.9278 8.58315 44.8837 8.08368 45.0337 7.81725C45.1582 7.59591 45.3388 7.42173 45.5951 7.33395C45.6599 7.31175 45.726 7.30521 45.7995 7.29178C45.8296 7.28903 45.86 7.28662 45.8905 7.28421Z" fill="#01579B"/>
<path fill-rule="evenodd" clip-rule="evenodd" d="M53.8155 13.1953C54.3838 13.1862 54.7616 13.4994 54.9164 13.9041C54.9614 14.0216 55.0002 14.1428 55.0002 14.308C55.0002 14.36 55.0002 14.4121 55.0002 14.4641C54.9774 14.5006 54.9771 14.5658 54.9656 14.6128C54.9484 14.6641 54.9311 14.7152 54.914 14.7665C54.8037 15.0557 54.5636 15.2632 54.2836 15.3837C54.1923 15.423 54.0842 15.4369 53.9734 15.4557C53.8124 15.4829 53.6084 15.4347 53.5005 15.3913C53.155 15.2524 52.911 15.0214 52.7962 14.6528C52.7331 14.45 52.7319 14.1225 52.8159 13.939C52.9571 13.6307 53.141 13.401 53.4586 13.2722C53.5359 13.2409 53.6202 13.2251 53.7098 13.2053C53.7449 13.2018 53.7801 13.1986 53.8155 13.1953Z" fill="#01579B"/>
<path fill-rule="evenodd" clip-rule="evenodd" d="M15.1926 13.344C15.9084 13.3313 16.3713 13.7701 16.5741 14.2784C16.6889 14.566 16.7045 14.9937 16.5865 15.2946C16.4225 15.7128 16.1172 16.035 15.6802 16.1768C15.5692 16.2128 15.4505 16.2243 15.3207 16.2462C15.2829 16.2462 15.2451 16.2462 15.2075 16.2462C14.9937 16.2462 14.8176 16.1961 14.6681 16.1297C14.3291 15.9789 14.0863 15.7462 13.9243 15.4183C13.8903 15.3495 13.8752 15.2801 13.848 15.2026C13.7906 15.0388 13.7615 14.7717 13.8038 14.5657C13.8226 14.4741 13.8405 14.3799 13.8727 14.298C14.0398 13.8719 14.3254 13.6066 14.7396 13.4282C14.8272 13.3905 14.9339 13.3739 15.0351 13.3562C15.0875 13.3523 15.14 13.3481 15.1926 13.344Z" fill="#01579B"/>
</g>
<defs>
<clipPath id="clip0_18_84">
<rect width="55" height="17.6415" fill="white"/>
</clipPath>
</defs>
</svg>
