<svg width="250" height="168" viewBox="0 0 250 168" fill="none" xmlns="http://www.w3.org/2000/svg">
<g clip-path="url(#clip0_144_700)">
<path d="M44.3067 129.312C43.9531 128.715 42.4233 129.354 42.142 128.813C41.8618 128.274 43.2832 127.452 44.0952 125.575C44.2417 125.237 45.1645 123.104 44.4814 122.446C43.1864 121.198 37.2607 126.346 35.1869 124.662C34.7318 124.292 34.4139 123.554 33.0365 122.356C32.4885 121.879 32.1572 121.664 31.8365 121.744C31.3815 121.857 31.3454 122.466 30.8575 123.664C30.1258 125.459 29.693 125.351 29.2667 126.784C28.9502 127.847 29.0225 128.465 28.6501 128.586C28.1231 128.756 27.638 127.628 26.9701 127.729C26.2885 127.832 25.8765 129.146 25.7464 130.129C25.5021 131.975 26.1798 133.192 26.5555 134.473C26.9637 135.865 27.206 137.981 26.2633 140.977L16.9326 167.266C18.9925 161.871 24.957 147.084 27.4632 141.588C28.1868 140.002 28.9856 138.393 30.6259 137.758C32.2051 137.147 34.374 137.512 37.139 136.846C37.462 136.768 38.3581 136.54 38.4709 136.013C38.5641 135.577 38.037 135.334 38.118 134.926C38.2266 134.378 39.2632 134.371 40.537 133.74C41.4352 133.294 41.9947 132.765 42.4759 132.309C42.621 132.172 44.7775 130.106 44.3067 129.312Z" fill="#2F2F2F"/>
<path d="M7.59723 143.151C7.20253 143.153 7.07449 144.088 6.72774 144.07C6.38223 144.052 6.38912 143.117 5.70229 142.177C5.57843 142.008 4.79788 140.939 4.27774 141.085C3.29185 141.36 4.10874 145.754 2.68355 146.286C2.37079 146.403 1.91679 146.346 0.931239 146.676C0.53916 146.807 0.337922 146.908 0.284696 147.088C0.209178 147.344 0.497657 147.538 0.944558 148.123C1.61477 149 1.43668 149.181 2.01683 149.804C2.44751 150.266 2.77186 150.409 2.72352 150.626C2.65513 150.934 1.9615 150.847 1.81837 151.204C1.67232 151.568 2.19809 152.149 2.6432 152.497C3.47849 153.149 4.27171 153.168 5.00856 153.353C5.80931 153.554 6.91789 154.046 8.11626 155.373L18.327 167.538C16.2737 164.97 10.7367 157.776 8.76281 154.961C8.19297 154.148 7.63374 153.291 7.79535 152.303C7.95092 151.352 8.75587 150.392 9.22674 148.843C9.28174 148.662 9.42839 148.157 9.20224 147.949C9.01528 147.778 8.74382 147.966 8.56687 147.809C8.32954 147.597 8.62531 147.087 8.68285 146.279C8.72342 145.71 8.62492 145.283 8.54021 144.915C8.51467 144.804 8.12264 143.149 7.59723 143.151Z" fill="#2F2F2F"/>
<path d="M15.4714 144.919L15.2336 142.796L15.3423 142.635C15.845 141.891 16.1013 141.164 16.1044 140.475C16.1049 140.365 16.0998 140.255 16.0946 140.144C16.0741 139.701 16.0485 139.15 16.3355 138.509C16.4964 138.151 16.9485 137.323 17.628 137.425C17.811 137.451 17.9494 137.535 18.0544 137.633C18.0698 137.609 18.0857 137.584 18.1026 137.558C18.3143 137.235 18.4819 137.096 18.6433 136.963C18.7673 136.861 18.8954 136.755 19.0963 136.505C19.1845 136.395 19.2532 136.299 19.3111 136.218C19.4869 135.973 19.7165 135.681 20.1213 135.686C20.5539 135.706 20.7804 136.064 20.9306 136.301C21.1986 136.723 21.3201 137.028 21.4005 137.23C21.4297 137.303 21.4631 137.386 21.48 137.412C21.6194 137.617 22.7525 137.425 23.1794 137.356C24.1383 137.196 24.968 137.057 25.3099 137.662C25.5549 138.095 25.3729 138.667 24.7528 139.408C24.5596 139.638 24.3541 139.814 24.1716 139.951C24.3228 140.041 24.4581 140.179 24.5129 140.397C24.6421 140.911 24.1998 141.427 23.1989 141.931C22.9503 142.057 22.6157 142.225 22.1467 142.306C21.9258 142.344 21.727 142.354 21.5569 142.359C21.5533 142.457 21.5302 142.564 21.4702 142.673C21.2944 142.996 20.9285 143.15 20.3771 143.113C19.7703 143.081 19.2706 142.965 18.8298 142.864C18.445 142.776 18.1134 142.701 17.853 142.718C17.3703 142.757 16.9982 143.144 16.5615 143.645L15.4714 144.919Z" fill="#2F2F2F"/>
<path d="M16.5743 132.28L14.5813 133.049L14.3981 132.984C13.5507 132.687 12.7828 132.623 12.1148 132.795C12.0085 132.822 11.9038 132.855 11.797 132.889C11.3739 133.021 10.8479 133.185 10.1545 133.07C9.76763 133.005 8.85187 132.778 8.77865 132.095C8.75703 131.911 8.80323 131.756 8.87176 131.63C8.84406 131.621 8.81624 131.612 8.78617 131.602C8.42017 131.479 8.24382 131.352 8.07397 131.23C7.94336 131.136 7.80874 131.039 7.51586 130.908C7.38742 130.851 7.2768 130.809 7.18378 130.773C6.90223 130.665 6.56142 130.517 6.46369 130.124C6.37381 129.701 6.66238 129.391 6.85332 129.185C7.19382 128.819 7.45747 128.624 7.63238 128.495C7.69636 128.448 7.76822 128.395 7.78872 128.372C7.95166 128.185 7.47883 127.138 7.30313 126.743C6.90524 125.856 6.56093 125.088 7.0592 124.604C7.41546 124.257 8.01485 124.288 8.88899 124.7C9.16108 124.829 9.38275 124.983 9.56189 125.125C9.61079 124.955 9.71032 124.79 9.90661 124.681C10.3716 124.426 10.9825 124.723 11.7242 125.563C11.9092 125.772 12.1567 126.053 12.3539 126.486C12.4466 126.69 12.506 126.88 12.5541 127.043C12.6502 127.022 12.7592 127.017 12.8805 127.047C13.2374 127.135 13.4789 127.45 13.5831 127.993C13.7063 128.588 13.721 129.101 13.7346 129.553C13.747 129.947 13.7587 130.287 13.8416 130.535C14.0017 130.992 14.4699 131.254 15.0655 131.549L16.5743 132.28Z" fill="#2F2F2F"/>
<path d="M15.4714 126.026L15.2336 123.904L15.3423 123.743C15.845 122.998 16.1013 122.272 16.1044 121.582C16.1049 121.472 16.0998 121.363 16.0946 121.251C16.0741 120.808 16.0485 120.258 16.3355 119.616C16.4964 119.258 16.9485 118.43 17.628 118.533C17.811 118.558 17.9494 118.642 18.0544 118.741C18.0698 118.716 18.0857 118.691 18.1026 118.665C18.3143 118.342 18.4819 118.204 18.6433 118.07C18.7673 117.968 18.8954 117.862 19.0963 117.612C19.1845 117.502 19.2532 117.406 19.3111 117.325C19.4869 117.08 19.7165 116.788 20.1213 116.793C20.5539 116.814 20.7804 117.171 20.9306 117.408C21.1986 117.83 21.3201 118.135 21.4005 118.337C21.4297 118.411 21.4631 118.494 21.48 118.519C21.6194 118.724 22.7525 118.533 23.1794 118.463C24.1383 118.303 24.968 118.165 25.3099 118.769C25.5549 119.202 25.3729 119.774 24.7528 120.515C24.5596 120.746 24.3541 120.921 24.1716 121.058C24.3228 121.148 24.4581 121.287 24.5129 121.504C24.6421 122.019 24.1998 122.534 23.1989 123.038C22.9503 123.165 22.6157 123.333 22.1467 123.414C21.9258 123.452 21.727 123.461 21.5569 123.466C21.5533 123.564 21.5302 123.671 21.4702 123.781C21.2944 124.103 20.9285 124.257 20.3771 124.22C19.7703 124.189 19.2706 124.073 18.8298 123.971C18.445 123.883 18.1134 123.808 17.853 123.826C17.3703 123.865 16.9982 124.251 16.5615 124.752L15.4714 126.026Z" fill="#2F2F2F"/>
<path d="M17.6432 167.231L17.1984 166.952L16.6797 167.012C16.6715 166.964 16.6433 166.853 16.6008 166.68C16.3687 165.731 15.6609 162.842 15.0705 158.293C14.6584 155.118 14.4253 151.853 14.3771 148.589C14.3289 145.319 14.4837 142.843 14.6077 140.854C14.7015 139.353 14.8153 137.924 14.927 136.533C15.2242 132.814 15.5046 129.301 15.296 125.412C15.2499 124.544 15.153 122.737 14.0973 120.814C13.4848 119.699 12.6412 118.709 11.5896 117.872L12.2435 117.05C13.4043 117.975 14.3376 119.072 15.0177 120.31C16.1882 122.442 16.2938 124.411 16.3446 125.357C16.5567 129.315 16.2733 132.861 15.973 136.616C15.8623 138.002 15.7485 139.425 15.6552 140.92C15.5322 142.891 15.379 145.344 15.4267 148.572C15.4738 151.798 15.7044 155.022 16.1109 158.158C16.6941 162.649 17.3916 165.495 17.6207 166.43C17.7427 166.929 17.7683 167.033 17.6432 167.231Z" fill="#2F2F2F"/>
<path d="M9.66466 119.54C9.62161 119.54 9.57805 119.539 9.53398 119.536C8.64018 119.488 7.8125 118.953 7.07348 117.946C6.72703 117.473 6.54971 116.933 6.19608 115.855C6.14124 115.689 5.87474 114.847 5.71279 113.687C5.60669 112.93 5.62002 112.613 5.77019 112.333C5.93675 112.022 6.20633 111.805 6.50972 111.658C6.4964 111.557 6.50716 111.454 6.55073 111.348C6.72959 110.911 7.20518 110.968 7.46246 110.996C7.59263 111.012 7.75509 111.034 7.93038 111.024C8.2061 111.011 8.35422 110.929 8.57868 110.806C8.79342 110.688 9.06043 110.542 9.45659 110.461C10.2376 110.298 10.8921 110.519 11.1079 110.592C12.243 110.97 12.8027 111.853 13.4505 112.875C13.5796 113.08 14.0229 113.826 14.3156 114.849C14.5267 115.587 14.497 115.915 14.4334 116.159C14.3043 116.66 13.9994 116.947 13.225 117.58C12.4163 118.244 12.0104 118.576 11.6619 118.778C10.8506 119.246 10.3411 119.54 9.66466 119.54Z" fill="#2F2F2F"/>
<path d="M244.202 166.754C244.202 166.948 244.045 167.106 243.85 167.106H0V166.402H243.85C244.045 166.402 244.202 166.56 244.202 166.754Z" fill="#262626"/>
<path d="M173.806 55.5367C173.806 55.5367 160.68 57.1154 162.894 46.7371C165.108 36.3589 177.662 17.1897 177.662 17.1897L184.786 21.1848L176.607 40.5177L180.128 43.2954L173.806 55.5367Z" fill="#A0616A"/>
<path d="M216.821 42.902L214.971 58.1144L168.623 57.8875L177.931 41.7096L216.821 42.902Z" fill="#0167B4"/>
<path d="M189.277 17.998C192.114 14.0367 192.341 9.34203 189.786 7.5121C187.23 5.68217 182.859 7.40997 180.022 11.3713C177.186 15.3325 176.958 20.0272 179.514 21.8572C182.07 23.6871 186.441 21.9593 189.277 17.998Z" fill="#A0616A"/>
<path d="M212.364 100.9V166.92H215.21V100.9H212.364Z" fill="#3F3D56"/>
<path d="M198.705 100.9V166.92H201.551V100.9H198.705Z" fill="#3F3D56"/>
<path d="M122.156 59.3529V166.92H125.002V59.3529H122.156Z" fill="#262626"/>
<path d="M167.971 100.9V166.92H170.817V100.9H167.971Z" fill="#3F3D56"/>
<path d="M157.082 100.9V166.92H159.927V100.9H157.082Z" fill="#3F3D56"/>
<path d="M209.803 99.477H154.85L144.308 114.43L198.989 117.689L209.803 99.477Z" fill="#3F3D56"/>
<path d="M109.178 48.3184L109.428 37.4747L76.2617 40.0258L76.092 47.3737L109.178 48.3184Z" fill="#A0616A"/>
<path d="M86.7316 38.7302L85.1453 42.5466L82.8672 42.6193C82.8672 42.6193 85.5345 43.4361 86.2755 48.2831L84.0866 48.9392C84.0866 48.9392 81.9845 50.9005 78.0549 50.7102L67.5188 49.8289L67.4783 46.1559L74.7603 45.3143C74.7603 45.3143 76.3829 44.2469 68.3506 39.8581C68.3506 39.8581 65.6898 38.231 68.0828 30.1961C68.4117 29.0918 69.4053 28.2986 70.5573 28.2737C71.193 28.2599 71.7888 28.4883 72.0266 29.278C72.6319 31.2881 72.0194 33.292 73.683 34.5467C75.3466 35.8014 86.7316 38.7302 86.7316 38.7302Z" fill="#2F2E41"/>
<path d="M205.69 89.775C205.69 89.775 194.247 109.238 168.352 105.731C162.19 104.896 156.769 101.232 153.68 95.8352C147.71 85.4035 138.645 67.1381 141.584 56.7953L97.789 48.4368L94.3384 37.8007L141.736 31.6438C145.928 31.0992 150.035 33.1379 152.136 36.8067L175.224 77.128L182.107 77.8796L205.69 89.775Z" fill="#2F2E41"/>
<path d="M110.043 52.7575L109.419 41.9289L76.5659 47.14L76.988 54.4777L110.043 52.7575Z" fill="#A0616A"/>
<path d="M86.8975 45.0062L85.6235 48.9378L83.3585 49.1936C83.3585 49.1936 86.083 49.7932 87.2115 54.5648L85.0825 55.395C85.0825 55.395 83.145 57.519 79.2128 57.6455L68.64 57.6146L68.3041 53.9568L75.4948 52.5321C75.4948 52.5321 77.0262 51.3376 68.6669 47.6093C68.6669 47.6093 65.8838 46.2015 67.6226 38.0001C67.8616 36.8729 68.7881 36.0024 69.9344 35.8848C70.567 35.82 71.1792 35.9997 71.4798 36.7677C72.2449 38.7226 71.7956 40.7692 73.5547 41.8861C75.3139 43.0029 86.8975 45.0062 86.8975 45.0062Z" fill="#2F2E41"/>
<path d="M209.577 86.3151C209.577 86.3151 199.737 106.636 173.644 105.223C167.435 104.887 161.736 101.671 158.223 96.54C151.434 86.6224 140.928 69.1454 143.026 58.5998L98.7001 53.7917L94.405 43.4678L141.153 33.5175C145.288 32.6374 149.546 34.3392 151.935 37.827L178.193 76.1602L185.114 76.3555L209.577 86.3151Z" fill="#2F2E41"/>
<path d="M179.581 0.50528L177.304 2.21269L189.256 18.7177L191.532 18.1485L179.581 0.50528Z" fill="#3F3D56"/>
<path d="M210.657 37.1565L223.747 36.5874L229.438 62.1985C229.438 62.1985 217.486 107.16 203.258 105.453C203.258 105.453 194.436 98.9078 194.436 96.6313C194.436 94.3548 182.484 88.6634 182.484 88.6634L179.639 78.9881L188.176 65.8979C188.176 65.8979 191.591 55.6535 202.973 49.9621L210.657 37.1565Z" fill="#0167B4"/>
<path d="M135.815 57.0763H19.4268V59.922H76.3404V166.92H79.1861V59.922H135.815V57.0763Z" fill="#262626"/>
<path d="M217.486 34.88C225.973 34.88 232.853 28.0001 232.853 19.5133C232.853 11.0265 225.973 4.14661 217.486 4.14661C209 4.14661 202.12 11.0265 202.12 19.5133C202.12 28.0001 209 34.88 217.486 34.88Z" fill="#A0616A"/>
<path d="M163.907 39.1485L153.174 43.4171L174.232 71.3048L181.631 65.6134L163.907 39.1485Z" fill="#262626"/>
<path d="M205.819 92.6473C205.819 92.6473 201.835 105.254 193.298 98.9504C184.761 92.6474 172.489 73.2967 172.489 73.2967L179.069 68.459L193.298 83.893L197.282 81.8338L205.819 92.6473Z" fill="#A0616A"/>
<path d="M212.079 48.2547L225.169 56.2226L205.819 98.3387L193.298 81.2646L212.079 48.2547Z" fill="#0167B4"/>
<path d="M177.504 73.5377C180.227 71.966 180.458 67.2716 178.022 63.0522C175.586 58.8329 171.405 56.6866 168.683 58.2582C165.961 59.8298 165.729 64.5243 168.165 68.7436C170.601 72.9629 174.782 75.1093 177.504 73.5377Z" fill="#A0616A"/>
<path d="M219.167 66.0391C223.11 53.11 227.343 49.0184 231.792 51.5801C235.179 53.53 236.199 57.9683 234.214 61.3347C229.155 69.9156 218.729 89.5765 220.901 102.607C220.901 102.607 224.316 120.82 196.997 120.82C169.679 120.82 143.499 114.559 143.499 114.559L157.727 112.283L190.084 114.594C197.477 115.122 203.708 108.796 202.72 101.451C202.687 101.208 202.649 100.963 202.604 100.715C200.981 91.7937 219.167 66.0391 219.167 66.0391Z" fill="#3F3D56"/>
<path d="M211.727 13.1432C210.472 16.658 213.23 20.3077 216.954 20.0595L217.043 20.0536C219.546 23.1828 219.615 27.6093 217.211 30.8152C217.013 34.9472 217.661 39.0761 219.113 42.9494L223.194 53.8321L229.477 50.9002L232.458 58.8582L250 49.8215L239.369 25.9008L236.124 12.9232C233.816 3.69025 224.398 -1.86723 215.2 0.576029L208.143 2.45054C202.567 3.93146 199.359 9.76863 201.096 15.2694L211.727 13.1432Z" fill="#2F2E41"/>
</g>
<defs>
<clipPath id="clip0_144_700">
<rect width="250" height="167.538" fill="white"/>
</clipPath>
</defs>
</svg>
