<svg width="250" height="184" viewBox="0 0 250 184" fill="none" xmlns="http://www.w3.org/2000/svg">
<g clip-path="url(#clip0_137_292)">
<path d="M250 76.1345C250 82.5861 247.563 88.8002 243.175 93.5344C238.788 98.2687 232.773 101.174 226.333 101.67C226.116 101.687 225.896 101.703 225.676 101.713V77.4052C225.676 77.1623 225.622 76.9223 225.517 76.703C225.412 76.4837 225.26 76.2906 225.071 76.1378C225.049 76.1154 225.025 76.0955 224.999 76.0787C224.975 76.0593 224.949 76.0417 224.923 76.0261C224.692 75.8777 224.428 75.7894 224.154 75.7693C223.88 75.7492 223.605 75.798 223.355 75.9112L223.082 75.3136C223.38 75.1779 223.704 75.1074 224.032 75.1067L205.309 58.9946C205.454 58.8305 205.605 58.6696 205.756 58.5087C209.286 54.7919 213.85 52.2178 218.86 51.1191C223.869 50.0204 229.093 50.4476 233.857 52.3454C238.621 54.2433 242.706 57.5245 245.583 61.7653C248.461 66.006 250 71.0113 250 76.1345Z" fill="#F2F2F2"/>
<path d="M6.50108 93.5981C6.40796 93.1229 6.42029 92.6331 6.53718 92.1632C6.65408 91.6932 6.8727 91.2546 7.17764 90.8782C7.48259 90.5019 7.86644 90.1968 8.30216 89.9847C8.73789 89.7725 9.21489 89.6583 9.69956 89.6502L24.479 72.0758L28.1687 76.7883L13.1064 93.1442C13.0661 93.9584 12.7281 94.7296 12.1566 95.3115C11.5851 95.8935 10.8198 96.2458 10.0056 96.3018C9.19139 96.3577 8.38494 96.1134 7.73904 95.6151C7.09314 95.1168 6.65266 94.3991 6.50108 93.5981Z" fill="#FFB8B8"/>
<path d="M76.6833 71.9672C76.5798 72.1167 76.4883 72.274 76.4096 72.4378L60.272 74.7421L57.8215 71.6344L52.6429 74.7156L57.5108 82.2969L77.1923 76.5014C77.7116 76.9711 78.3618 77.2716 79.0564 77.3632C79.751 77.4547 80.457 77.3328 81.0805 77.0138C81.704 76.6947 82.2155 76.1936 82.547 75.5771C82.8785 74.9606 83.0142 74.2579 82.9362 73.5624C82.8581 72.867 82.5699 72.2117 82.11 71.6839C81.65 71.156 81.0401 70.7805 80.3613 70.6074C79.6825 70.4342 78.9671 70.4715 78.31 70.7145C77.653 70.9574 77.0856 71.3943 76.6833 71.9672Z" fill="#FFB8B8"/>
<path d="M49.1176 130.686L51.9734 133.526L64.2999 123.876L60.0852 119.684L49.1176 130.686Z" fill="#FFB8B8"/>
<path d="M54.8403 141.653L45.8653 132.726L49.3181 129.263L54.8254 134.74C55.2808 135.193 55.6424 135.731 55.8896 136.324C56.1368 136.916 56.2648 137.552 56.2661 138.194C56.2675 138.836 56.1423 139.471 55.8977 140.065C55.653 140.659 55.2938 141.198 54.8403 141.653Z" fill="#2F2E41"/>
<path d="M33.9378 157.93H37.9677L39.8848 142.403H33.9371L33.9378 157.93Z" fill="#FFB8B8"/>
<path d="M45.7396 161.667L33.0743 161.668L33.0741 156.779L40.846 156.779C41.4886 156.779 42.1249 156.906 42.7186 157.151C43.3123 157.397 43.8518 157.757 44.3062 158.211C44.7606 158.665 45.1211 159.203 45.3671 159.796C45.613 160.389 45.7396 161.025 45.7396 161.667Z" fill="#2F2E41"/>
<path d="M33.0617 145.937L28.4715 112.122C27.7531 107.011 27.976 101.813 29.1293 96.7824C30.0713 92.7398 31.3438 89.9395 32.9117 88.4598C33.1591 88.2278 33.4758 88.0834 33.8134 88.0485L48.9689 86.4714C49.2608 86.4416 49.5552 86.4954 49.8177 86.6264C50.0802 86.7574 50.3 86.9604 50.4514 87.2115L50.9496 88.0408C51.0101 88.1415 51.0589 88.2487 51.095 88.3605L54.2993 98.2832C54.3471 98.4331 54.4243 98.572 54.5264 98.6919C54.6284 98.8117 54.7533 98.9102 54.8938 98.9814C59.9388 101.554 76.3266 110.24 75.3888 113.987C74.5076 117.508 66.2575 123.217 63.7499 124.882C63.4946 125.053 63.1939 125.143 62.8867 125.141C62.5796 125.138 62.2802 125.044 62.0275 124.869L57.865 122.025C57.6618 121.886 57.4948 121.7 57.378 121.484C57.2613 121.267 57.1981 121.026 57.1938 120.78C57.1895 120.534 57.2442 120.29 57.3533 120.07C57.4624 119.849 57.6228 119.658 57.8211 119.512L60.6915 117.4C60.8672 117.27 61.0042 117.095 61.0879 116.894C61.1715 116.693 61.1987 116.473 61.1663 116.257C61.134 116.041 61.0434 115.839 60.9043 115.671C60.7652 115.503 60.5829 115.376 60.377 115.304L44.9611 109.9C44.788 109.84 44.6033 109.819 44.4211 109.841C44.239 109.863 44.0643 109.926 43.9104 110.026C43.7566 110.126 43.6277 110.259 43.5336 110.417C43.4396 110.574 43.3829 110.751 43.368 110.934L40.5256 145.636C40.4942 146.008 40.329 146.356 40.0605 146.616C39.7921 146.876 39.4385 147.03 39.0652 147.049L34.6673 147.269C34.6405 147.27 34.614 147.271 34.5874 147.271C34.2142 147.272 33.8532 147.138 33.5723 146.892C33.2914 146.647 33.1098 146.307 33.0617 145.937Z" fill="#2F2E41"/>
<path d="M40.0124 58.4741C44.4712 58.4741 48.0858 54.8634 48.0858 50.4095C48.0858 45.9555 44.4712 42.3449 40.0124 42.3449C35.5536 42.3449 31.939 45.9555 31.939 50.4095C31.939 54.8634 35.5536 58.4741 40.0124 58.4741Z" fill="#FFB8B8"/>
<path d="M32.4612 87.0783L26.5184 65.4188L26.6202 65.3503C26.7478 65.2643 39.557 56.8153 54.5539 63.6241L54.8259 63.7799L51.3044 86.2611C51.2276 86.7741 50.974 87.2443 50.5873 87.5905C50.2006 87.9368 49.705 88.1374 49.1861 88.1578L34.6958 88.7145C34.6665 88.7155 34.6374 88.7162 34.6085 88.7162C34.12 88.7173 33.6448 88.5574 33.2566 88.2613C32.8683 87.9652 32.5888 87.5494 32.4612 87.0783Z" fill="#CCCCCC"/>
<path d="M26.2922 79.5195L21.3427 73.834C21.1044 73.5608 20.9701 73.2124 20.9637 72.85C20.9573 72.4877 21.0792 72.1347 21.3078 71.8533L26.4818 65.4686L30.4538 66.5507L32.5595 73.9129L28.72 79.3921C28.5861 79.5844 28.4098 79.7434 28.2047 79.857C27.9996 79.9705 27.7712 80.0356 27.537 80.0472C27.5093 80.0485 27.4818 80.0492 27.4543 80.0492C27.2338 80.0496 27.0159 80.0025 26.8153 79.9111C26.6148 79.8197 26.4363 79.6861 26.2922 79.5195Z" fill="#CCCCCC"/>
<path d="M53.6621 78.335C53.4279 78.3235 53.1995 78.2584 52.9944 78.1448C52.7894 78.0313 52.6131 77.8722 52.4792 77.6799L48.6396 72.2008L50.4864 64.4509L54.1435 63.4546L54.8259 63.7799L59.8914 70.1412C60.12 70.4226 60.2418 70.7756 60.2354 71.1379C60.229 71.5002 60.0948 71.8487 59.8564 72.1219L54.907 77.8074C54.7628 77.974 54.5844 78.1075 54.3839 78.199C54.1833 78.2904 53.9654 78.3375 53.7449 78.337C53.7175 78.337 53.6898 78.3364 53.6621 78.335Z" fill="#CCCCCC"/>
<path d="M225.676 75.7963C225.679 75.8781 225.65 75.9579 225.597 76.0196C225.54 76.0858 225.459 76.1268 225.372 76.1335C225.286 76.1403 225.199 76.1123 225.133 76.0557L224.032 75.1068L205.309 58.9947L152.795 13.7973C152.495 13.5412 152.113 13.4007 151.719 13.4013C151.325 13.4019 150.944 13.5435 150.645 13.8006L79.9265 75.1725L79.2888 75.7241C79.2643 75.7457 79.2366 75.7635 79.2066 75.7766C79.154 75.7999 79.0961 75.809 79.0389 75.8029C78.9568 75.7942 78.8808 75.7556 78.8253 75.6946C78.7967 75.6622 78.7748 75.6246 78.7609 75.5839C78.7469 75.5431 78.7411 75.5 78.7438 75.4569C78.7466 75.4139 78.7578 75.3719 78.7768 75.3332C78.7959 75.2945 78.8224 75.26 78.8548 75.2316L78.9436 75.1528L150.214 13.3048C150.633 12.9455 151.166 12.7474 151.718 12.7462C152.27 12.745 152.805 12.9408 153.225 13.2982L205.756 58.5087L225.56 75.5567C225.595 75.5866 225.623 75.6233 225.643 75.6645C225.663 75.7058 225.674 75.7506 225.676 75.7963Z" fill="#3F3D56"/>
<path d="M185.748 85.4925L184.883 83.1152L181.905 74.9065L175.488 57.2314L168.316 37.4746L155.381 1.83885C155.127 1.14392 154.608 0.577851 153.937 0.264602C153.266 -0.0486466 152.498 -0.0835447 151.802 0.167549L77.0175 27.2531C76.3216 27.5065 75.7547 28.0253 75.4411 28.6955C75.1274 29.3658 75.0927 30.133 75.3444 30.8288L93.683 81.3487L93.9952 82.2122L113.244 90.9267L118.655 93.3761L119.532 93.7734L142.44 104.146L143.328 103.824L158.353 98.3835L181.017 90.1747L184.071 89.0682C184.767 88.815 185.335 88.2965 185.649 87.6263C185.963 86.9561 185.999 86.1888 185.748 85.4925Z" fill="#E6E6E6"/>
<path d="M154.389 43.4112C154.016 42.3885 153.252 41.5552 152.265 41.0942C151.277 40.6332 150.148 40.582 149.123 40.9519L119.532 51.6725L105.244 56.8473C104.736 57.0306 104.269 57.312 103.871 57.6756C103.472 58.0391 103.149 58.4776 102.92 58.9659C102.691 59.4543 102.56 59.9829 102.536 60.5216C102.512 61.0603 102.594 61.5986 102.778 62.1055C102.962 62.6125 103.244 63.0783 103.608 63.4763C103.973 63.8742 104.412 64.1965 104.901 64.4248C105.39 64.6531 105.919 64.7828 106.459 64.8066C106.998 64.8304 107.537 64.7478 108.044 64.5635L119.532 60.4033L151.927 48.6714C152.951 48.2987 153.785 47.5357 154.246 46.5496C154.708 45.5636 154.759 44.4349 154.389 43.4112Z" fill="white"/>
<path d="M159.599 57.7666C159.226 56.7439 158.462 55.9106 157.475 55.4496C156.488 54.9886 155.358 54.9374 154.333 55.3073L149.32 57.123L119.532 67.9126L110.454 71.1994C109.43 71.5711 108.596 72.3336 108.134 73.3194C107.673 74.3052 107.622 75.4335 107.994 76.4566C108.365 77.4796 109.127 78.3136 110.114 78.7753C111.1 79.237 112.23 79.2887 113.254 78.9189L119.532 76.6434L157.137 63.0235C157.222 62.9939 157.304 62.9578 157.387 62.9217C158.341 62.5032 159.101 61.7378 159.512 60.7806C159.923 59.8233 159.954 58.7459 159.599 57.7666Z" fill="white"/>
<path d="M164.865 72.2732C164.492 71.2506 163.729 70.4174 162.743 69.9563C161.756 69.4952 160.626 69.444 159.602 69.8138L145.543 74.9065L134.66 78.85L119.532 84.3269L115.72 85.7092C114.838 86.0299 114.093 86.6415 113.607 87.4427C113.121 88.244 112.924 89.187 113.047 90.1157C113.085 90.3921 113.151 90.6639 113.244 90.9267L118.655 93.3762L119.533 93.0577H119.539L146.99 83.1153L162.403 77.5333C163.427 77.1615 164.262 76.3986 164.723 75.4122C165.185 74.4259 165.236 73.2969 164.865 72.2732Z" fill="white"/>
<path d="M134.055 29.2987C133.682 28.276 132.918 27.4428 131.931 26.9817C130.944 26.5207 129.814 26.4695 128.789 26.8394L111.795 32.9926C110.771 33.3643 109.937 34.1269 109.475 35.1127C109.014 36.0984 108.963 37.2268 109.335 38.2499C109.706 39.2729 110.468 40.1069 111.455 40.5686C112.441 41.0303 113.571 41.082 114.595 40.7122L119.973 38.765L123.533 37.4746L131.593 34.5556C132.616 34.1837 133.451 33.4213 133.912 32.4357C134.374 31.4502 134.425 30.322 134.055 29.2987Z" fill="white"/>
<path d="M201.874 37.4746H122.326C121.857 37.4751 121.396 37.5935 120.984 37.8191C120.573 38.0446 120.225 38.3699 119.973 38.765C119.685 39.2124 119.532 39.7335 119.532 40.2656V93.7735L142.44 104.146L145.668 105.607L150.766 107.915C151.065 108.05 151.389 108.12 151.716 108.12C152.044 108.12 152.368 108.05 152.666 107.915L157.765 105.607L173.72 98.3835L188.591 91.649L204.668 84.3728V40.2656C204.667 39.5255 204.373 38.8159 203.849 38.2926C203.325 37.7693 202.615 37.4751 201.874 37.4746Z" fill="#01579B"/>
<path d="M185.438 74.9065H138.762C137.7 74.9071 136.681 75.3181 135.916 76.0532C135.151 76.7883 134.701 77.7906 134.66 78.85C134.654 78.9034 134.652 78.9572 134.653 79.0109C134.655 80.099 135.088 81.142 135.858 81.9114C136.628 82.6808 137.673 83.1137 138.762 83.1153H185.438C186.528 83.1153 187.573 82.6828 188.344 81.9131C189.114 81.1434 189.547 80.0994 189.547 79.0109C189.547 77.9223 189.114 76.8784 188.344 76.1087C187.573 75.3389 186.528 74.9065 185.438 74.9065Z" fill="white"/>
<path d="M188.098 91.1533C187.357 90.5201 186.413 90.173 185.438 90.1748H138.762C137.672 90.1748 136.627 90.6072 135.856 91.3769C135.086 92.1467 134.653 93.1906 134.653 94.2792C134.653 95.3677 135.086 96.4117 135.856 97.1814C136.627 97.9511 137.672 98.3835 138.762 98.3835H173.72L188.591 91.6491C188.441 91.4702 188.276 91.3043 188.098 91.1533Z" fill="white"/>
<path d="M145.668 105.607L150.766 107.915C151.065 108.05 151.389 108.12 151.716 108.12C152.044 108.12 152.368 108.05 152.666 107.915L157.765 105.607H145.668Z" fill="white"/>
<path d="M174.999 57.4087C174.709 56.6186 174.184 55.9363 173.494 55.4542C172.804 54.972 171.982 54.7133 171.14 54.713H153.061C152.271 54.7137 151.499 54.9413 150.836 55.3687C150.172 55.796 149.646 56.4051 149.32 57.1231C149.076 57.6547 148.951 58.2327 148.952 58.8173C148.953 59.9054 149.387 60.9485 150.157 61.7179C150.927 62.4873 151.971 62.9202 153.061 62.9217H171.14C171.801 62.9218 172.452 62.7625 173.038 62.4575C173.624 62.1524 174.128 61.7106 174.507 61.1695C174.886 60.6284 175.128 60.004 175.214 59.3493C175.299 58.6945 175.226 58.0289 174.999 57.4087Z" fill="white"/>
<path d="M172.126 98.3835L156.17 105.607L152.393 107.318C152.181 107.414 151.95 107.463 151.716 107.463C151.483 107.463 151.252 107.414 151.039 107.318L147.262 105.607H145.668L150.766 107.916C151.065 108.05 151.389 108.12 151.716 108.12C152.044 108.12 152.368 108.05 152.666 107.916L157.765 105.607L173.72 98.3835H172.126ZM172.126 98.3835L156.17 105.607L152.393 107.318C152.181 107.414 151.95 107.463 151.716 107.463C151.483 107.463 151.252 107.414 151.039 107.318L147.262 105.607H145.668L150.766 107.916C151.065 108.05 151.389 108.12 151.716 108.12C152.044 108.12 152.368 108.05 152.666 107.916L157.765 105.607L173.72 98.3835H172.126ZM172.126 98.3835L156.17 105.607L152.393 107.318C152.181 107.414 151.95 107.463 151.716 107.463C151.483 107.463 151.252 107.414 151.039 107.318L147.262 105.607H145.668L150.766 107.916C151.065 108.05 151.389 108.12 151.716 108.12C152.044 108.12 152.368 108.05 152.666 107.916L157.765 105.607L173.72 98.3835H172.126ZM225.676 75.7964C225.554 75.6758 225.421 75.568 225.278 75.4746C224.955 75.2655 224.584 75.1411 224.201 75.1129C223.817 75.0848 223.432 75.1539 223.082 75.3137L188.098 91.1533L172.126 98.3835L156.17 105.607L152.393 107.318C152.181 107.414 151.95 107.463 151.716 107.463C151.483 107.463 151.252 107.414 151.039 107.318L147.262 105.607L143.328 103.824L119.539 93.0577L119.532 93.0544L113.047 90.1157L93.683 81.3488L80.3506 75.3137C80.2149 75.251 80.0727 75.2037 79.9265 75.1725C79.6046 75.0921 79.2686 75.0854 78.9436 75.1528C78.4238 75.2591 77.9565 75.5412 77.6206 75.9515C77.2847 76.3618 77.1007 76.8752 77.0996 77.4053V159.864C77.1003 160.473 77.3429 161.057 77.7743 161.488C78.2057 161.919 78.7905 162.162 79.4006 162.162H224.032C224.642 162.162 225.227 161.919 225.658 161.488C226.09 161.057 226.332 160.473 226.333 159.864V77.4053C226.334 76.8035 226.098 76.2255 225.676 75.7964ZM225.676 159.864C225.675 160.299 225.502 160.717 225.194 161.024C224.886 161.332 224.468 161.505 224.032 161.506H79.4006C78.9647 161.505 78.5468 161.332 78.2386 161.024C77.9304 160.717 77.7572 160.299 77.757 159.864V77.4053C77.7571 77.1309 77.8261 76.8609 77.9576 76.62C78.0891 76.3791 78.2789 76.1749 78.5098 76.0262C78.6722 75.9223 78.8511 75.8468 79.0389 75.8029C79.0943 75.791 79.1503 75.7822 79.2066 75.7767C79.2709 75.7674 79.3357 75.763 79.4005 75.7635C79.6342 75.7638 79.8651 75.8142 80.0777 75.9113L93.9951 82.2123L113.244 90.9267L118.655 93.3762L119.532 93.7735L142.44 104.146L145.668 105.607L150.766 107.916C151.065 108.05 151.389 108.12 151.716 108.12C152.044 108.12 152.368 108.05 152.666 107.916L157.765 105.607L173.72 98.3835L188.591 91.6491L223.355 75.9113C223.605 75.7981 223.88 75.7493 224.154 75.7693C224.427 75.7894 224.692 75.8777 224.923 76.0262C224.949 76.0418 224.975 76.0594 224.998 76.0787C225.025 76.0956 225.049 76.1154 225.071 76.1378C225.26 76.2907 225.412 76.4838 225.517 76.7031C225.622 76.9224 225.676 77.1623 225.676 77.4053L225.676 159.864ZM172.126 98.3835L156.17 105.607L152.393 107.318C152.181 107.414 151.95 107.463 151.716 107.463C151.483 107.463 151.252 107.414 151.039 107.318L147.262 105.607H145.668L150.766 107.916C151.065 108.05 151.389 108.12 151.716 108.12C152.044 108.12 152.368 108.05 152.666 107.916L157.765 105.607L173.72 98.3835H172.126ZM172.126 98.3835L156.17 105.607L152.393 107.318C152.181 107.414 151.95 107.463 151.716 107.463C151.483 107.463 151.252 107.414 151.039 107.318L147.262 105.607H145.668L150.766 107.916C151.065 108.05 151.389 108.12 151.716 108.12C152.044 108.12 152.368 108.05 152.666 107.916L157.765 105.607L173.72 98.3835H172.126ZM118.655 93.3762L119.532 93.7735V93.0577L118.655 93.3762ZM172.126 98.3835L156.17 105.607L152.393 107.318C152.181 107.414 151.95 107.463 151.716 107.463C151.483 107.463 151.252 107.414 151.039 107.318L147.262 105.607H145.668L150.766 107.916C151.065 108.05 151.389 108.12 151.716 108.12C152.044 108.12 152.368 108.05 152.666 107.916L157.765 105.607L173.72 98.3835H172.126Z" fill="#3F3D56"/>
<path d="M57.6968 162.162H20.5528C20.4657 162.162 20.382 162.128 20.3204 162.066C20.2587 162.004 20.2241 161.921 20.2241 161.834C20.2241 161.747 20.2587 161.663 20.3204 161.602C20.382 161.54 20.4657 161.505 20.5528 161.505H57.6968C57.784 161.505 57.8676 161.54 57.9292 161.602C57.9909 161.663 58.0255 161.747 58.0255 161.834C58.0255 161.921 57.9909 162.004 57.9292 162.066C57.8676 162.128 57.784 162.162 57.6968 162.162Z" fill="#3F3D56"/>
<path d="M36.9427 56.3072C36.3363 55.9998 35.8321 55.5234 35.491 54.9357C35.15 54.348 34.9869 53.6742 35.0213 52.9957C35.0557 52.3173 35.2862 51.6634 35.685 51.1132C36.0838 50.5629 36.6336 50.1399 37.2681 49.8953C39.7043 48.9562 42.4354 50.8728 44.9892 50.3279C47.5345 49.7848 49.0069 46.7452 48.3993 44.2171C47.7918 41.689 45.5805 39.7849 43.1422 38.8755C41.5497 38.283 39.8443 38.0559 38.1521 38.2108C36.4598 38.3658 34.8241 38.8989 33.366 39.7706C31.923 40.6679 30.7211 41.9037 29.865 43.3706C29.0089 44.8374 28.5244 46.491 28.4536 48.1874C28.4205 49.8854 28.8358 51.5622 29.6577 53.0488C30.4797 54.5355 31.6792 55.7796 33.1356 56.6558C33.7847 57.0295 34.5402 57.3296 35.2701 57.1613C35.8694 56.9669 36.434 56.6786 36.9427 56.3072Z" fill="#2F2E41"/>
<path d="M34.3264 39.5741C32.1782 36.7278 29.2782 34.3895 25.9038 33.2303C22.5293 32.071 18.6731 32.164 15.5039 33.8023C12.3346 35.4406 9.97113 38.6943 9.72442 42.2504C9.31383 48.1688 14.3765 53.1996 14.896 59.1095C15.0607 60.9827 14.7563 62.8674 14.0103 64.5939C13.2643 66.3204 12.1 67.8344 10.6225 68.9995C9.14488 70.1646 7.40035 70.9443 5.54602 71.2684C3.69169 71.5924 1.7858 71.4505 0 70.8556C1.27195 71.9015 2.74667 72.6733 4.33153 73.1226C5.91638 73.5719 7.57713 73.6889 9.20944 73.4664C10.8391 73.2221 12.3939 72.6185 13.761 71.6996C15.1282 70.7806 16.2735 69.5692 17.1139 68.1533C18.2533 66.1758 18.7212 63.8788 18.9029 61.6044C19.1884 58.0081 18.8018 54.3903 17.7631 50.9352C17.1952 49.0501 16.4251 47.1102 16.7852 45.1747C16.9905 44.168 17.4873 43.2438 18.214 42.5168C18.9408 41.7898 19.8653 41.2921 20.8728 41.0856C22.501 40.7808 24.1657 41.2772 25.7204 41.8485C27.2751 42.4197 28.8426 43.0808 30.4987 43.1187C32.1548 43.1565 33.9586 42.3992 34.5986 40.873L34.3264 39.5741Z" fill="#2F2E41"/>
</g>
<g clip-path="url(#clip1_137_292)">
<path d="M218 120C224.329 120 230.516 121.877 235.778 125.393C241.041 128.909 245.142 133.907 247.564 139.754C249.986 145.601 250.62 152.035 249.385 158.243C248.15 164.45 245.103 170.152 240.627 174.627C236.152 179.103 230.45 182.15 224.243 183.385C218.035 184.62 211.601 183.986 205.754 181.564C199.907 179.142 194.909 175.041 191.393 169.778C187.877 164.516 186 158.329 186 152C186 143.513 189.371 135.374 195.373 129.373C201.374 123.371 209.513 120 218 120Z" fill="#07C160"/>
<path d="M213.429 166.72C212.626 166.72 211.833 166.551 211.101 166.224C210.368 165.897 209.713 165.42 209.177 164.823L199.714 154.286C199.166 153.602 198.9 152.734 198.971 151.86C199.043 150.986 199.447 150.173 200.099 149.588C200.752 149.002 201.604 148.689 202.481 148.713C203.357 148.736 204.191 149.095 204.811 149.714L213.429 159.314L231.189 139.794C231.816 139.212 232.639 138.885 233.496 138.879C234.352 138.872 235.18 139.187 235.816 139.76C236.452 140.333 236.851 141.124 236.934 141.976C237.016 142.828 236.777 143.681 236.263 144.366L217.657 164.8C217.125 165.397 216.474 165.876 215.746 166.207C215.018 166.538 214.228 166.712 213.429 166.72Z" fill="white"/>
</g>
<defs>
<clipPath id="clip0_137_292">
<rect width="250" height="162.162" fill="white"/>
</clipPath>
<clipPath id="clip1_137_292">
<rect width="64" height="64" fill="white" transform="translate(186 120)"/>
</clipPath>
</defs>
</svg>
