<svg width="250" height="176" viewBox="0 0 250 176" fill="none" xmlns="http://www.w3.org/2000/svg">
<g clip-path="url(#clip0_204_736)">
<path d="M127.68 175.269C135.199 175.269 141.295 169.192 141.295 161.696C141.295 154.2 135.199 148.123 127.68 148.123C120.161 148.123 114.065 154.2 114.065 161.696C114.065 169.192 120.161 175.269 127.68 175.269Z" fill="#0167B4"/>
<path d="M209.015 174.506C216.632 172.226 224.729 169.848 230.77 164.427C236.168 159.582 239.812 152.185 237.576 144.919C235.344 137.669 228.66 132.835 221.758 130.43C217.844 129.066 213.749 128.31 209.656 127.715C205.206 127.069 200.736 126.54 196.269 126.03C178.18 123.968 160.022 122.708 141.797 122.25C132.804 122.025 123.813 122.03 114.819 122.16C106.786 122.276 98.3264 122.274 90.8747 118.87C85.0801 116.223 79.8208 111.408 78.2062 105.081C76.3424 97.7764 79.7801 90.338 84.7116 85.048C87.311 82.2596 90.3491 79.9128 93.4831 77.7548C96.883 75.4137 100.402 73.2384 103.996 71.2078C111.076 67.2105 118.478 63.8086 126.125 61.0374C129.897 59.6699 133.726 58.4901 137.587 57.4018C140.848 56.4827 144.119 55.5624 147.27 54.3102C153.362 51.8896 159.157 47.7893 160.706 41.0673C162.174 34.6964 159.699 27.7803 155.359 23.0475C150.339 17.5719 142.769 15.1716 135.511 14.7833C127.364 14.3473 119.404 16.3802 111.746 18.9602C103.578 21.712 95.586 24.876 87.2456 27.1049C78.9749 29.313 70.5443 30.8754 62.0301 31.7777C57.8622 32.2202 53.5682 32.7198 49.3755 32.3811C45.8616 32.0972 42.3656 31.0669 39.7759 28.5807C37.5554 26.449 36.2326 23.5192 36.6873 20.4274C36.7699 19.8658 37.6256 20.1046 37.5435 20.6627C36.99 24.4263 39.5561 27.8944 42.7184 29.6708C46.3731 31.724 50.8203 31.7268 54.8892 31.492C63.7118 30.9608 72.4747 29.6979 81.087 27.7164C89.5496 25.7895 97.7099 23.0348 105.861 20.0922C113.602 17.2975 121.517 14.5698 129.787 13.9645C136.964 13.4393 144.512 14.4815 150.764 18.2203C156.259 21.5061 160.299 26.9859 161.586 33.274C162.844 39.4186 161.102 45.6033 156.436 49.8912C151.606 54.3309 144.982 56.2289 138.809 57.9771C130.98 60.1943 123.319 62.7861 115.903 66.1513C108.387 69.5527 101.178 73.5931 94.3565 78.2277C87.7723 82.7134 81.2744 88.3575 79.192 96.3599C78.2219 100.087 78.401 104.041 80.0241 107.562C81.4673 110.693 83.8441 113.326 86.6129 115.357C93.2192 120.203 101.545 121.198 109.525 121.297C118.488 121.409 127.451 121.107 136.416 121.254C154.687 121.553 172.921 122.661 191.117 124.58C195.676 125.061 200.23 125.593 204.778 126.175C208.869 126.699 212.974 127.22 216.996 128.151C224.147 129.805 231.106 132.987 235.551 139.032C237.523 141.652 238.745 144.757 239.087 148.016C239.398 151.416 238.563 154.823 237.021 157.847C233.607 164.543 227.214 168.801 220.424 171.599C216.788 173.097 213.016 174.233 209.251 175.36C208.703 175.524 208.468 174.67 209.015 174.506Z" fill="#232323"/>
<path d="M37.2608 27.5886C41.1838 27.5886 44.3641 24.4181 44.3641 20.507C44.3641 16.596 41.1838 13.4255 37.2608 13.4255C33.3377 13.4255 30.1575 16.596 30.1575 20.507C30.1575 24.4181 33.3377 27.5886 37.2608 27.5886Z" fill="#232323"/>
<path d="M86.5401 41.0141C90.4631 41.0141 93.6434 37.8436 93.6434 33.9325C93.6434 30.0215 90.4631 26.851 86.5401 26.851C82.617 26.851 79.4368 30.0215 79.4368 33.9325C79.4368 37.8436 82.617 41.0141 86.5401 41.0141Z" fill="#232323"/>
<path d="M128.272 14.1631C132.195 14.1631 135.375 10.9926 135.375 7.08157C135.375 3.17053 132.195 0 128.272 0C124.349 0 121.169 3.17053 121.169 7.08157C121.169 10.9926 124.349 14.1631 128.272 14.1631Z" fill="#232323"/>
<path d="M154.317 44.2598C158.24 44.2598 161.421 41.0893 161.421 37.1782C161.421 33.2672 158.24 30.0967 154.317 30.0967C150.394 30.0967 147.214 33.2672 147.214 37.1782C147.214 41.0893 150.394 44.2598 154.317 44.2598Z" fill="#232323"/>
<path d="M119.097 79.0775C123.02 79.0775 126.2 75.907 126.2 71.9959C126.2 68.0849 123.02 64.9144 119.097 64.9144C115.174 64.9144 111.994 68.0849 111.994 71.9959C111.994 75.907 115.174 79.0775 119.097 79.0775Z" fill="#232323"/>
<path d="M74.4051 95.8962C78.3281 95.8962 81.5084 92.7257 81.5084 88.8147C81.5084 84.9036 78.3281 81.7331 74.4051 81.7331C70.482 81.7331 67.3018 84.9036 67.3018 88.8147C67.3018 92.7257 70.482 95.8962 74.4051 95.8962Z" fill="#232323"/>
<path d="M121.761 122.157C125.684 122.157 128.864 118.987 128.864 115.075C128.864 111.164 125.684 107.994 121.761 107.994C117.837 107.994 114.657 111.164 114.657 115.075C114.657 118.987 117.837 122.157 121.761 122.157Z" fill="#232323"/>
<path d="M172.668 136.91C176.591 136.91 179.771 133.74 179.771 129.829C179.771 125.918 176.591 122.747 172.668 122.747C168.745 122.747 165.564 125.918 165.564 129.829C165.564 133.74 168.745 136.91 172.668 136.91Z" fill="#232323"/>
<path d="M232.158 133.665C236.081 133.665 239.261 130.494 239.261 126.583C239.261 122.672 236.081 119.501 232.158 119.501C228.235 119.501 225.055 122.672 225.055 126.583C225.055 130.494 228.235 133.665 232.158 133.665Z" fill="#232323"/>
<path d="M126.222 20.0655C104.944 20.2153 87.5215 37.4536 87.2193 58.6648C87.2165 58.8607 87.2152 60.2377 87.2153 62.0387C87.2155 64.6794 88.2677 67.2119 90.1407 69.0792C92.0136 70.9465 94.5538 71.9957 97.2026 71.996C98.5156 71.9957 99.8158 71.7375 101.029 71.2361C102.242 70.7346 103.343 69.9999 104.271 69.0738C105.199 68.1477 105.935 67.0483 106.437 65.8386C106.938 64.6289 107.196 63.3324 107.195 62.0234C107.194 60.7983 107.193 59.9503 107.193 59.8983C107.193 56.6201 108.048 53.3982 109.675 50.5496C111.302 47.7009 113.645 45.3236 116.474 43.6515C119.302 41.9793 122.518 41.07 125.806 41.0129C129.093 40.9558 132.34 41.753 135.225 43.3259C138.109 44.8988 140.534 47.1934 142.26 49.9838C143.985 52.7743 144.953 55.9645 145.067 59.2407C145.18 62.5169 144.437 65.7662 142.909 68.669C141.381 71.5718 139.121 74.0281 136.353 75.7962L136.356 75.8004C136.356 75.8004 122.141 84.9237 117.807 97.4392L117.811 97.44C117.049 100.004 116.663 102.664 116.664 105.338C116.664 106.438 116.729 116.056 116.855 123.862C116.898 126.555 118.003 129.124 119.929 131.013C121.855 132.902 124.449 133.96 127.151 133.96C128.509 133.96 129.854 133.692 131.107 133.172C132.361 132.652 133.499 131.89 134.456 130.93C135.413 129.97 136.17 128.831 136.684 127.578C137.198 126.325 137.458 124.983 137.449 123.629C137.406 116.48 137.382 108.156 137.382 107.551C137.382 99.8664 144.819 92.2095 150.927 87.2162C157.961 81.4663 163.023 73.6305 165.056 64.7915C165.506 62.9717 165.754 61.1082 165.796 59.2344C165.796 54.0667 164.77 48.9501 162.778 44.1794C160.785 39.4086 157.866 35.0781 154.187 31.4372C150.509 27.7963 146.144 24.9171 141.344 22.9654C136.545 21.0137 131.405 20.0281 126.222 20.0655Z" fill="#0167B4"/>
<path d="M249.648 175.641H0.352366C0.259078 175.641 0.169706 175.604 0.103837 175.538C0.0379678 175.472 0.000976562 175.383 0.000976562 175.29C0.000976562 175.197 0.0379678 175.107 0.103837 175.042C0.169706 174.976 0.259078 174.939 0.352366 174.938H249.648C249.741 174.938 249.831 174.975 249.897 175.041C249.963 175.107 250 175.197 250 175.29C250 175.383 249.963 175.472 249.897 175.538C249.831 175.604 249.741 175.641 249.648 175.641Z" fill="#3F3D56"/>
<path d="M186.003 80.5516C190.907 80.5516 194.882 76.5885 194.882 71.6997C194.882 66.8109 190.907 62.8477 186.003 62.8477C181.099 62.8477 177.124 66.8109 177.124 71.6997C177.124 76.5885 181.099 80.5516 186.003 80.5516Z" fill="#2F2E41"/>
<path d="M169.595 171.766H165.967L164.241 157.813H169.596L169.595 171.766Z" fill="#A0616A"/>
<path d="M163.375 170.732H170.373V175.125H158.969C158.969 174.548 159.083 173.977 159.304 173.444C159.526 172.911 159.85 172.427 160.259 172.019C160.669 171.611 161.154 171.287 161.689 171.067C162.224 170.846 162.796 170.732 163.375 170.732Z" fill="#2F2E41"/>
<path d="M197.713 171.766H194.084L192.358 157.813H197.714L197.713 171.766Z" fill="#A0616A"/>
<path d="M191.492 170.732H198.49V175.125H187.086C187.086 174.548 187.2 173.977 187.422 173.444C187.643 172.911 187.968 172.427 188.377 172.019C188.786 171.611 189.272 171.287 189.806 171.067C190.341 170.846 190.914 170.732 191.492 170.732Z" fill="#2F2E41"/>
<path d="M184.654 80.6033C188.668 80.6033 191.923 77.3587 191.923 73.3562C191.923 69.3538 188.668 66.1091 184.654 66.1091C180.639 66.1091 177.384 69.3538 177.384 73.3562C177.384 77.3587 180.639 80.6033 184.654 80.6033Z" fill="#A0616A"/>
<path d="M188.986 103.983L192.239 96.5324C193.029 94.7846 193.255 92.8355 192.887 90.9539C192.519 89.0724 191.574 87.3513 190.182 86.028C189.896 85.7464 189.593 85.4833 189.273 85.2402C187.669 83.9885 185.691 83.3063 183.653 83.3016C182.283 83.3069 180.93 83.6069 179.687 84.1809C179.58 84.2281 179.477 84.2783 179.37 84.3285C179.166 84.4258 178.965 84.5321 178.769 84.6412C177.495 85.3706 176.411 86.3883 175.604 87.6122C174.797 88.8362 174.289 90.2321 174.123 91.6874L172.687 103.679C172.326 104.62 159.445 138.612 163.95 164.563C163.998 164.84 164.134 165.094 164.337 165.289C164.541 165.484 164.801 165.609 165.081 165.646L169.648 166.265C169.981 166.311 170.32 166.228 170.595 166.035C170.87 165.842 171.061 165.552 171.13 165.224L178.793 128.81C178.841 128.583 178.963 128.38 179.141 128.231C179.319 128.082 179.541 127.997 179.773 127.989C180.005 127.981 180.232 128.051 180.42 128.188C180.607 128.324 180.743 128.519 180.806 128.742L191.632 167.035C191.71 167.313 191.876 167.559 192.107 167.734C192.337 167.908 192.619 168.003 192.908 168.003C192.994 168.003 193.081 167.995 193.166 167.979L198.745 166.908C199.069 166.848 199.359 166.669 199.558 166.406C199.756 166.144 199.85 165.817 199.819 165.489C198.999 156.375 194.642 110.719 188.986 103.983Z" fill="#2F2E41"/>
<path d="M156.403 79.3873C156.353 79.8181 156.398 80.2548 156.535 80.6664C156.672 81.0781 156.898 81.4548 157.197 81.7699C157.496 82.0851 157.86 82.3311 158.265 82.4906C158.67 82.6501 159.104 82.7192 159.539 82.693L163.602 92.4279L166.676 87.8856L162.346 79.3375C162.253 78.6131 161.898 77.9476 161.346 77.4671C160.794 76.9867 160.085 76.7247 159.352 76.7309C158.62 76.737 157.915 77.0108 157.371 77.5004C156.828 77.99 156.483 78.6614 156.403 79.3873Z" fill="#A0616A"/>
<path d="M184.251 113.785C184.683 113.733 185.098 113.588 185.468 113.359C185.837 113.13 186.152 112.824 186.39 112.46C186.628 112.097 186.783 111.686 186.844 111.257C186.905 110.827 186.871 110.39 186.745 109.975L195.294 103.767L190.147 101.845L182.818 108.035C182.132 108.293 181.566 108.793 181.226 109.44C180.886 110.087 180.796 110.836 180.972 111.545C181.149 112.253 181.58 112.873 182.185 113.286C182.789 113.699 183.524 113.876 184.251 113.785Z" fill="#A0616A"/>
<path d="M170.314 98.918C169.986 98.9177 169.659 98.8855 169.338 98.822C168.56 98.6745 167.831 98.3385 167.214 97.8437C166.597 97.3489 166.112 96.7104 165.802 95.9846L160.109 89.0644C159.988 88.9181 159.901 88.7478 159.852 88.565C159.803 88.3822 159.794 88.1911 159.825 88.0045C159.856 87.8178 159.927 87.6399 160.032 87.4828C160.138 87.3256 160.276 87.1928 160.438 87.0932L164.488 84.5938C164.637 84.5015 164.804 84.4396 164.977 84.4118C165.151 84.3839 165.328 84.3906 165.499 84.4315C165.67 84.4724 165.832 84.5466 165.974 84.6499C166.116 84.7533 166.236 84.8836 166.327 85.0335L170.34 91.6235L178.023 85.9622C178.635 85.6424 179.342 85.5527 180.015 85.7095C180.687 85.8663 181.281 86.2592 181.687 86.8162C182.093 87.3733 182.285 88.0575 182.227 88.7437C182.169 89.43 181.865 90.0725 181.371 90.5539L173.702 97.5282C172.8 98.4188 171.583 98.9183 170.314 98.918Z" fill="#2F2E41"/>
<path d="M191.076 109.326C191.066 109.326 191.055 109.326 191.045 109.325C190.858 109.321 190.675 109.277 190.506 109.197C190.337 109.118 190.187 109.003 190.065 108.862L186.464 104.674C186.342 104.531 186.251 104.364 186.198 104.184C186.144 104.004 186.13 103.815 186.156 103.628C186.182 103.442 186.247 103.264 186.347 103.105C186.447 102.946 186.58 102.809 186.737 102.705L193.479 98.2238L187.371 90.9025C187.016 90.3119 186.885 89.6136 187.004 88.9352C187.122 88.2567 187.482 87.6434 188.016 87.2072C188.551 86.7711 189.225 86.5413 189.915 86.5597C190.606 86.5782 191.267 86.8438 191.777 87.3079L199.201 94.5407C199.785 95.0728 200.231 95.7384 200.501 96.4802C200.77 97.222 200.855 98.018 200.748 98.7997C200.641 99.5814 200.346 100.326 199.887 100.968C199.428 101.611 198.819 102.133 198.113 102.49L192.046 108.909C191.921 109.04 191.771 109.145 191.604 109.217C191.437 109.289 191.258 109.326 191.076 109.326Z" fill="#2F2E41"/>
<path d="M182.805 93.894C182.748 93.894 182.69 93.8904 182.632 93.8831C182.382 93.8527 182.145 93.7512 181.95 93.5907C181.756 93.4302 181.611 93.2174 181.534 92.9776L178.828 84.7071C178.761 84.498 178.771 84.2715 178.858 84.0695C178.944 83.8674 179.102 83.7036 179.3 83.6081L179.388 83.5667C179.468 83.529 179.546 83.4917 179.627 83.456C180.889 82.8726 182.262 82.5683 183.653 82.564C185.459 82.5673 187.224 83.0961 188.732 84.0855C188.935 84.2197 189.076 84.4277 189.126 84.6647C189.176 84.9017 189.13 85.1488 188.999 85.3527L183.923 93.2804C183.804 93.4686 183.639 93.6237 183.444 93.731C183.248 93.8383 183.028 93.8944 182.805 93.894Z" fill="#262626"/>
<path d="M193.003 67.7478C194.608 67.7478 195.909 66.451 195.909 64.8513C195.909 63.2515 194.608 61.9547 193.003 61.9547C191.399 61.9547 190.098 63.2515 190.098 64.8513C190.098 66.451 191.399 67.7478 193.003 67.7478Z" fill="#2F2E41"/>
<path d="M183.043 61.6674C181.003 61.6674 179.045 62.4757 177.602 63.9144C176.159 65.3531 175.348 67.3044 175.348 69.3391V72.5848H179.352L181.268 69.3391L181.842 72.5848H193.994L190.739 69.3391C190.739 67.3044 189.928 65.3531 188.485 63.9144C187.042 62.4757 185.084 61.6674 183.043 61.6674Z" fill="#2F2E41"/>
<path d="M194.497 62.8672C194.818 61.8656 195.483 61.009 196.375 60.448C197.268 59.887 198.33 59.6575 199.375 59.7998C201.226 60.1084 202.69 61.5922 203.563 63.2495C204.435 64.9067 204.838 66.7615 205.424 68.5394C206.01 70.3172 206.842 72.1048 208.322 73.2557C209.803 74.4066 212.075 74.7187 213.528 73.5348C213.362 74.7687 212.811 75.9192 211.953 76.8238C211.095 77.7283 209.974 78.341 208.748 78.5753C207.521 78.8096 206.252 78.6536 205.119 78.1293C203.987 77.605 203.048 76.739 202.436 75.6538C201.669 74.293 201.471 72.6982 201.244 71.1537C201.016 69.6093 200.721 68.0113 199.805 66.7453C198.889 65.4793 197.174 64.6524 195.719 65.2291L194.497 62.8672Z" fill="#2F2E41"/>
<path d="M100.023 67.2862C97.3739 67.2859 94.8337 66.2367 92.9608 64.3694C91.0878 62.5021 90.0356 59.9696 90.0354 57.3289C90.0353 55.5279 90.0366 54.1509 90.0393 53.9551C90.1235 47.7863 91.6818 41.7264 94.5851 36.2781C89.8151 42.7881 87.1923 50.615 87.0796 58.6761C87.0768 58.8719 87.0755 60.2489 87.0757 62.0499C87.0759 64.6906 88.1281 67.2231 90.0011 69.0904C91.874 70.9577 94.4142 72.0069 97.063 72.0072C99.2396 72.0064 101.356 71.2973 103.092 69.9877C104.827 68.6781 106.087 66.8396 106.678 64.7514C104.85 66.3863 102.479 67.2891 100.023 67.2862Z" fill="#3F3D56"/>
<path d="M126.899 41.0463C129.961 41.1921 132.942 42.0767 135.585 43.624C138.229 45.1713 140.457 47.3352 142.077 49.9299C143.697 52.5245 144.661 55.4724 144.887 58.5204C145.112 61.5684 144.593 64.6254 143.372 67.429C145.138 65.362 146.435 62.9397 147.177 60.3274C147.918 57.7151 148.085 54.9741 147.668 52.2914C147.25 49.6087 146.257 47.0472 144.757 44.7817C143.256 42.5162 141.283 40.5999 138.973 39.1635C136.662 37.727 134.068 36.8042 131.367 36.4578C128.666 36.1115 125.922 36.3499 123.321 37.1567C120.721 37.9635 118.326 39.3198 116.299 41.133C114.273 42.9463 112.662 45.1739 111.577 47.664C113.452 45.465 115.809 43.7247 118.465 42.5773C121.122 41.4299 124.007 40.9061 126.899 41.0463Z" fill="#3F3D56"/>
<path d="M129.971 129.25C127.269 129.251 124.675 128.192 122.749 126.303C120.823 124.414 119.718 121.846 119.675 119.152C119.549 111.346 119.484 101.728 119.484 100.629C119.483 97.9545 119.869 95.2942 120.631 92.7303L120.627 92.7294C121.077 91.4425 121.621 90.19 122.253 88.9818C120.311 91.5619 118.766 94.4161 117.668 97.4504L117.671 97.4513C116.909 100.015 116.523 102.676 116.525 105.35C116.525 106.449 116.59 116.067 116.715 123.873C116.759 126.567 117.863 129.135 119.789 131.024C121.716 132.913 124.31 133.972 127.012 133.971C129.24 133.971 131.407 133.25 133.19 131.917C134.972 130.585 136.273 128.712 136.898 126.58C135.004 128.301 132.534 129.253 129.971 129.25Z" fill="#3F3D56"/>
<path d="M37.4525 171.901L41.0809 171.9L42.8073 157.947L37.4517 157.948L37.4525 171.901Z" fill="#A0616A"/>
<path d="M48.0791 175.259L36.6751 175.26L36.6749 170.867L43.6728 170.867C44.8414 170.867 45.9621 171.329 46.7884 172.153C47.6148 172.977 48.079 174.094 48.0791 175.259Z" fill="#2F2E41"/>
<path d="M24.4298 171.901L28.0582 171.9L29.7846 157.947L24.429 157.948L24.4298 171.901Z" fill="#A0616A"/>
<path d="M35.0562 175.259L23.6522 175.26L23.652 170.867L30.6499 170.867C31.8184 170.867 32.9392 171.329 33.7655 172.153C34.5918 172.977 35.0561 174.094 35.0562 175.259Z" fill="#2F2E41"/>
<path d="M27.6007 167.609L24.0565 167.423C23.8737 167.414 23.6947 167.368 23.5297 167.289C23.3648 167.21 23.2172 167.099 23.0956 166.963C22.974 166.827 22.8807 166.668 22.8211 166.495C22.7616 166.323 22.737 166.14 22.7487 165.958L26.9848 119.2L46.4926 124.448L48.3721 123.937L42.4946 165.33C42.4446 165.641 42.2895 165.926 42.0549 166.138C41.8204 166.35 41.5205 166.475 41.2047 166.494L37.3841 166.671C37.193 166.682 37.0019 166.653 36.8227 166.586C36.6434 166.519 36.4801 166.416 36.3429 166.283C36.2057 166.15 36.0977 165.99 36.0257 165.813C35.9537 165.637 35.9192 165.447 35.9245 165.256L36.6168 140.413C36.62 140.298 36.58 140.186 36.5045 140.099C36.4291 140.012 36.3238 139.957 36.2093 139.943C36.0948 139.93 35.9794 139.96 35.8859 140.027C35.7925 140.094 35.7276 140.194 35.7042 140.307L29.028 166.512C28.965 166.823 28.7958 167.103 28.5492 167.303C28.3026 167.504 27.9939 167.612 27.6757 167.611C27.6509 167.611 27.6259 167.611 27.6007 167.609Z" fill="#2F2E41"/>
<path d="M38.1041 80.9423C42.1188 80.9423 45.3735 77.6976 45.3735 73.6952C45.3735 69.6927 42.1188 66.4481 38.1041 66.4481C34.0893 66.4481 30.8347 69.6927 30.8347 73.6952C30.8347 77.6976 34.0893 80.9423 38.1041 80.9423Z" fill="#A0616A"/>
<path d="M26.001 94.9867L26.8003 112.179L27.0893 118.434C27.1008 118.707 27.1935 118.969 27.3556 119.189C27.5177 119.408 27.7418 119.575 27.9992 119.666L46.7448 126.436C46.8963 126.492 47.0567 126.52 47.2183 126.519C47.4029 126.52 47.5858 126.484 47.7561 126.412C47.9264 126.341 48.0806 126.237 48.2094 126.105C48.3382 125.973 48.4391 125.817 48.506 125.645C48.5728 125.473 48.6043 125.29 48.5986 125.106L47.83 94.193C47.7796 91.6567 46.8431 89.2175 45.182 87.2958C43.521 85.3741 41.2395 84.0904 38.7308 83.6659C38.5495 83.6383 38.365 83.6108 38.1805 83.5862C36.6249 83.3937 35.0459 83.5434 33.5546 84.0247C32.0633 84.506 30.6958 85.3072 29.5485 86.372C28.3605 87.4613 27.427 88.7975 26.814 90.2861C26.201 91.7747 25.9235 93.3794 26.001 94.9867Z" fill="#404040"/>
<path d="M55.6995 123.006C55.2562 122.868 54.8511 122.63 54.5167 122.309C54.1822 121.988 53.9276 121.593 53.7733 121.157C53.6189 120.721 53.569 120.254 53.6276 119.795C53.6861 119.336 53.8515 118.897 54.1105 118.513L47.7537 110.086L53.2393 109.747L58.4349 117.802C58.9911 118.23 59.3781 118.841 59.5281 119.525C59.6781 120.21 59.5815 120.926 59.2551 121.547C58.9288 122.167 58.3936 122.654 57.7435 122.921C57.0933 123.188 56.3697 123.218 55.6995 123.006Z" fill="#A0616A"/>
<path d="M51.2301 116.988C51.0617 116.92 50.9085 116.819 50.7794 116.691C50.6503 116.564 50.5478 116.412 50.478 116.245L40.9009 93.4968C40.7129 93.0514 40.6149 92.5735 40.6124 92.0903C40.6098 91.6072 40.7028 91.1282 40.886 90.6809C41.0692 90.2336 41.339 89.8266 41.68 89.4833C42.0211 89.14 42.4266 88.867 42.8735 88.68C43.3204 88.493 43.7999 88.3956 44.2845 88.3935C44.7692 88.3913 45.2495 88.4844 45.6981 88.6673C46.1467 88.8503 46.5547 89.1196 46.8988 89.4599C47.2429 89.8002 47.5164 90.2047 47.7036 90.6504L57.2807 113.399C57.4223 113.736 57.4238 114.115 57.2851 114.454C57.1463 114.792 56.8786 115.062 56.5406 115.204L52.2889 116.983C52.1215 117.053 51.9417 117.09 51.76 117.091C51.5782 117.092 51.3981 117.057 51.2301 116.988Z" fill="#404040"/>
<path d="M35.7668 116.185L44.9654 98.6264C45.1428 98.2887 45.4473 98.035 45.8121 97.9208C46.1769 97.8067 46.5722 97.8415 46.9114 98.0176L60.2631 104.969C60.6018 105.146 60.8564 105.45 60.9708 105.813C61.0853 106.177 61.0504 106.571 60.8738 106.909L51.6752 124.468C51.4978 124.806 51.1933 125.06 50.8285 125.174C50.4637 125.288 50.0684 125.253 49.7292 125.077L36.3775 118.125C36.0388 117.949 35.7843 117.645 35.6698 117.281C35.5553 116.918 35.5902 116.523 35.7668 116.185Z" fill="#3F3D56"/>
<path d="M41.9358 108.163C41.7723 107.73 41.5095 107.341 41.1683 107.027C40.8272 106.713 40.4172 106.483 39.971 106.355C39.5249 106.227 39.0549 106.205 38.5987 106.291C38.1424 106.376 37.7125 106.567 37.3432 106.847L28.5296 101.018L28.5146 106.498L36.8865 111.193C37.3486 111.721 37.9825 112.07 38.6771 112.179C39.3716 112.288 40.0824 112.149 40.6848 111.788C41.2872 111.426 41.7428 110.865 41.9715 110.202C42.2002 109.539 42.1876 108.818 41.9358 108.163Z" fill="#A0616A"/>
<path d="M30.7923 109.395L23.5893 103.707C22.8101 103.446 22.106 103.001 21.5375 102.409C20.969 101.817 20.553 101.097 20.3253 100.309C20.0976 99.5218 20.0649 98.6911 20.2301 97.8884C20.3953 97.0856 20.7535 96.3349 21.2738 95.7005L27.8139 87.1555C28.2684 86.6019 28.9076 86.2298 29.6146 86.1072C30.3217 85.9847 31.0493 86.1199 31.6646 86.4881C32.2798 86.8564 32.7416 87.4331 32.9655 88.1128C33.1893 88.7926 33.1604 89.5299 32.8838 90.1901L27.7091 98.629L35.3138 102.225C35.4906 102.309 35.6477 102.429 35.7745 102.577C35.9013 102.726 35.9951 102.9 36.0496 103.087C36.1041 103.274 36.1181 103.471 36.0907 103.664C36.0632 103.857 35.9949 104.043 35.8904 104.208L32.8206 109.051C32.7169 109.214 32.5798 109.354 32.4184 109.462C32.2569 109.569 32.0747 109.641 31.8834 109.674C31.8758 109.675 31.8681 109.676 31.8605 109.677C31.6726 109.706 31.4808 109.695 31.2971 109.647C31.1134 109.598 30.9416 109.513 30.7923 109.395Z" fill="#404040"/>
<path d="M32.611 78.5479C32.5798 78.457 32.5699 78.3601 32.5821 78.2647C32.5943 78.1694 32.6282 78.078 32.6812 77.9978C32.7342 77.9175 32.805 77.8503 32.8881 77.8015C32.9711 77.7527 33.0643 77.7235 33.1605 77.7161C33.3573 77.7268 33.55 77.7772 33.7268 77.8641C33.9037 77.9511 34.061 78.0729 34.1893 78.2222C34.4524 78.5246 34.7586 78.7867 35.0983 79.0003C35.4499 79.177 35.9268 79.1518 36.1273 78.8149C36.3156 78.4985 36.1866 78.0749 36.0726 77.7074C35.7826 76.7724 35.6203 75.8028 35.5902 74.8246C35.5574 73.7328 35.7119 72.5933 36.3182 71.7417C37.1007 70.6427 38.4999 70.2254 39.8241 70.2557C41.1483 70.286 42.451 70.6935 43.7626 70.9511C44.2155 71.04 44.7477 71.0855 45.0506 70.7356C45.3726 70.3636 45.2543 69.7615 45.1174 69.2592C44.7619 67.9557 44.3848 66.6081 43.559 65.5554C42.6661 64.4616 41.3905 63.7457 39.9893 63.5519C38.6441 63.3858 37.2785 63.5403 36.0049 64.0029C33.9298 64.6549 32.1038 65.923 30.7712 67.6377C29.3975 69.4611 28.804 71.7526 29.1203 74.0111C29.4293 75.9782 30.4749 77.7554 32.0462 78.9843L32.611 78.5479Z" fill="#2F2E41"/>
<path d="M124.681 171.958C122.747 171.118 121.035 169.842 119.68 168.23C118.326 166.617 117.366 164.713 116.876 162.668C116.386 160.622 116.379 158.491 116.857 156.443C117.335 154.394 118.283 152.485 119.628 150.864C118.069 151.999 116.77 153.452 115.817 155.126C114.864 156.799 114.279 158.656 114.1 160.573C113.922 162.489 114.155 164.421 114.783 166.241C115.411 168.061 116.42 169.727 117.744 171.129C119.067 172.53 120.674 173.635 122.458 174.37C124.243 175.104 126.163 175.453 128.093 175.391C130.023 175.329 131.917 174.859 133.65 174.011C135.384 173.164 136.916 171.959 138.147 170.475C136.228 171.874 133.975 172.747 131.612 173.007C129.249 173.267 126.86 172.905 124.681 171.958Z" fill="#3F3D56"/>
</g>
<defs>
<clipPath id="clip0_204_736">
<rect width="250" height="175.641" fill="white"/>
</clipPath>
</defs>
</svg>
