<svg width="250" height="167" viewBox="0 0 250 167" fill="none" xmlns="http://www.w3.org/2000/svg">
<g clip-path="url(#clip0_144_806)">
<path d="M89.6751 95.6164C98.2427 80.5452 114.585 68.9729 131.886 70.0878C119.125 83.9649 111.683 101.909 110.878 120.744C110.594 128.009 111.035 136.119 106.211 141.559C103.21 144.944 98.6217 146.584 94.1109 146.928C89.5999 147.272 85.0899 146.457 80.6392 145.645L79.5595 145.976C79.1485 128.645 81.1076 110.688 89.6751 95.6164Z" fill="#232323"/>
<path d="M131.911 70.4506C119.118 76.6093 108.21 86.895 101.513 99.4391C100.065 102.151 98.8327 105.028 98.295 108.07C97.7571 111.114 98.1328 114.011 99.1723 116.901C100.123 119.544 101.401 122.137 101.692 124.965C101.999 127.945 100.903 130.732 98.9287 132.943C96.5135 135.649 93.27 137.326 90.0411 138.856C86.4561 140.554 82.7055 142.261 80.1662 145.431C79.8586 145.815 79.2806 145.315 79.5878 144.932C84.0056 139.417 91.5678 138.381 96.8118 133.938C99.2587 131.865 101.096 129.042 100.98 125.735C100.878 122.842 99.5628 120.167 98.5774 117.5C97.5428 114.699 97.0269 111.883 97.3979 108.897C97.7774 105.842 98.9002 102.911 100.272 100.174C103.367 94.001 107.601 88.3338 112.452 83.4349C118.028 77.8037 124.525 73.1677 131.664 69.7276C132.106 69.5148 132.35 70.2393 131.911 70.4506Z" fill="#0D0D0D"/>
<path d="M103.474 95.2469C101.513 93.8128 100.126 91.7283 99.5594 89.3656C98.9932 87.0029 99.2853 84.5158 100.384 82.3486C100.607 81.9109 101.298 82.2379 101.074 82.6763C100.048 84.6925 99.7757 87.0092 100.307 89.2083C100.839 91.4074 102.14 93.344 103.974 94.6685C104.372 94.9568 103.87 95.5336 103.474 95.2469Z" fill="#0D0D0D"/>
<path d="M98.5139 115.625C103.428 114.907 107.892 112.363 111.014 108.5C111.323 108.117 111.901 108.617 111.592 108.999C108.336 113.013 103.686 115.651 98.5699 116.387C98.0822 116.457 98.0289 115.694 98.5139 115.625Z" fill="#0D0D0D"/>
<path d="M118.405 78.7439C119.048 79.4568 119.859 79.9989 120.763 80.3214C121.668 80.6439 122.638 80.7366 123.587 80.5914C124.074 80.5154 124.127 81.2779 123.643 81.3534C122.594 81.509 121.522 81.4052 120.522 81.0512C119.522 80.6971 118.624 80.1035 117.906 79.3222C117.832 79.2543 117.787 79.1607 117.78 79.0607C117.772 78.9606 117.803 78.8614 117.866 78.7834C117.933 78.7072 118.027 78.6602 118.128 78.6528C118.229 78.6454 118.328 78.6781 118.405 78.7439Z" fill="#0D0D0D"/>
<path d="M166.308 117.632C166.005 117.688 165.703 117.744 165.397 117.806C161.335 118.581 157.343 119.685 153.459 121.106C153.157 121.211 152.853 121.322 152.554 121.436C143.235 124.96 134.65 130.185 127.237 136.843C124.29 139.495 121.549 142.367 119.038 145.435C115.569 149.673 112.146 154.543 107.614 157.306C107.145 157.599 106.657 157.864 106.155 158.097L80.0475 147.268C80.0005 147.213 79.9507 147.165 79.9035 147.11L78.8413 146.726C78.9598 146.558 79.0863 146.387 79.2047 146.22C79.2731 146.123 79.3472 146.028 79.4155 145.931C79.4629 145.866 79.5106 145.802 79.5497 145.742C79.5654 145.72 79.5814 145.699 79.5946 145.684C79.6337 145.623 79.6765 145.571 79.7131 145.516C80.4174 144.559 81.1296 143.605 81.8499 142.654C81.8523 142.648 81.8523 142.648 81.8606 142.644C87.3668 135.413 93.525 128.577 100.525 122.893C100.736 122.722 100.949 122.545 101.171 122.379C104.341 119.835 107.713 117.554 111.254 115.559C113.196 114.473 115.193 113.486 117.235 112.601C122.516 110.327 128.123 108.897 133.849 108.364C145.263 107.304 156.89 109.907 165.644 117.078C165.868 117.261 166.086 117.442 166.308 117.632Z" fill="#232323"/>
<path d="M166.111 117.939C152.189 115.154 137.286 116.799 124.387 122.783C121.598 124.077 118.882 125.632 116.621 127.737C114.359 129.843 112.915 132.382 112.005 135.316C111.172 137.998 110.632 140.838 109.162 143.271C107.613 145.836 105.059 147.401 102.152 147.978C98.594 148.685 94.9947 148.071 91.4957 147.348C87.6107 146.546 83.5882 145.651 79.6523 146.653C79.1755 146.774 79.015 146.027 79.4911 145.906C86.3387 144.162 93.0009 147.888 99.8625 147.498C103.064 147.316 106.231 146.168 108.13 143.457C109.79 141.087 110.35 138.159 111.169 135.436C112.029 132.577 113.313 130.018 115.407 127.857C117.549 125.646 120.21 123.982 122.954 122.623C129.141 119.557 135.934 117.581 142.757 116.591C150.599 115.451 158.578 115.662 166.349 117.213C166.83 117.309 166.589 118.035 166.111 117.939Z" fill="#0D0D0D"/>
<path d="M128.477 120.617C127.775 118.291 127.922 115.791 128.892 113.564C129.863 111.336 131.593 109.526 133.775 108.457C134.217 108.242 134.572 108.919 134.129 109.134C132.096 110.126 130.484 111.812 129.584 113.888C128.685 115.964 128.557 118.293 129.224 120.455C129.369 120.925 128.621 121.084 128.477 120.617Z" fill="#0D0D0D"/>
<path d="M112.248 133.901C116.604 136.286 121.699 136.942 126.518 135.738C126.995 135.618 127.155 136.365 126.679 136.485C121.662 137.729 116.361 137.035 111.834 134.543C111.402 134.305 111.819 133.664 112.248 133.901Z" fill="#0D0D0D"/>
<path d="M150.335 116.429C150.419 117.386 150.739 118.306 151.268 119.108C151.796 119.91 152.515 120.569 153.36 121.024C153.794 121.257 153.377 121.897 152.946 121.666C152.014 121.159 151.221 120.431 150.636 119.546C150.05 118.661 149.69 117.646 149.588 116.59C149.57 116.492 149.59 116.39 149.644 116.305C149.699 116.221 149.783 116.161 149.881 116.136C149.98 116.115 150.083 116.135 150.168 116.189C150.253 116.244 150.313 116.33 150.335 116.429Z" fill="#0D0D0D"/>
<path d="M116.574 135.498C112.918 117.819 108.348 111.925 108.348 111.925L106.602 110.571L104.502 108.94L104.512 108.73L104.014 108.561L103.897 108.47L103.706 108.323L103.675 108.356L103.61 108.423L94.1082 105.194L82.054 101.099L76.4722 93.8439C75.5631 92.6623 74.3927 91.7073 73.0528 91.0537C71.7128 90.4001 70.2397 90.0657 68.7489 90.0767L50.9223 90.2086C48.5119 90.2265 46.1954 91.1453 44.4282 92.7846L32.711 103.653L14.4535 112.373L14.4226 112.342L14.2309 112.479L11.41 113.828L11.5264 114.434L9.78037 115.694C9.78037 115.694 5.21 121.178 1.55369 137.628C0.623562 141.814 0.165721 150.792 0.000464404 161.857C-0.0078364 162.416 0.0952142 162.972 0.303622 163.492C0.512029 164.011 0.821637 164.484 1.21444 164.883C1.60725 165.282 2.07541 165.598 2.59172 165.814C3.10803 166.031 3.66217 166.142 4.22193 166.142H101.739L113.911 166.142C114.47 166.142 115.024 166.031 115.54 165.815C116.056 165.599 116.524 165.282 116.916 164.884C117.309 164.486 117.619 164.013 117.827 163.494C118.036 162.975 118.14 162.42 118.132 161.861C117.971 149.821 117.513 140.037 116.574 135.498Z" fill="#3F3D56"/>
<path d="M129.086 15.4174C125.292 15.4174 121.654 16.9245 118.971 19.6073C116.288 22.29 114.781 25.9286 114.781 29.7226C114.781 33.5166 116.288 37.1552 118.971 39.838C121.654 42.5207 125.292 44.0279 129.086 44.0279H235.695C239.489 44.0279 243.127 42.5207 245.81 39.838C248.493 37.1552 250 33.5166 250 29.7226C250 25.9286 248.493 22.29 245.81 19.6073C243.127 16.9245 239.489 15.4174 235.695 15.4174H129.086Z" fill="#272727"/>
<path d="M129.086 18.3125C126.06 18.3125 123.158 19.5146 121.018 21.6545C118.878 23.7943 117.676 26.6965 117.676 29.7227C117.676 32.7488 118.878 35.651 121.018 37.7909C123.158 39.9307 126.06 41.1328 129.086 41.1328H235.695C238.721 41.1328 241.623 39.9307 243.763 37.7909C245.903 35.651 247.105 32.7488 247.105 29.7227C247.105 26.6965 245.903 23.7943 243.763 21.6545C241.623 19.5146 238.721 18.3125 235.695 18.3125H129.086Z" fill="#0D0D0D"/>
<path d="M62.6351 83.3797C75.5335 83.3797 85.9897 72.9235 85.9897 60.0251C85.9897 47.1267 75.5335 36.6705 62.6351 36.6705C49.7367 36.6705 39.2805 47.1267 39.2805 60.0251C39.2805 72.9235 49.7367 83.3797 62.6351 83.3797Z" fill="#9E616A"/>
<path d="M56.6606 82.2361C56.5608 82.0164 56.4613 81.796 56.3621 81.5748C56.4003 81.5761 56.4382 81.5816 56.4764 81.5826L56.6606 82.2361Z" fill="#2F2E41"/>
<path d="M38.6309 37.7326C39.8122 36.7903 41.1927 35.9233 42.7029 35.9721C44.2131 36.0207 45.7446 37.3847 45.4317 38.863C48.2056 33.9515 52.6209 30.1739 57.9025 28.1935C63.1841 26.213 68.9946 26.1562 74.3139 28.0329C78.0674 29.3572 81.7483 32.0065 82.6105 35.8922C82.8319 36.8897 82.8794 37.9834 83.5022 38.7934C84.2875 39.8146 85.7899 40.0456 87.027 39.6864C87.0394 39.6828 87.0518 39.6791 87.0641 39.6755C87.2731 39.6041 87.4987 39.5971 87.7117 39.6553C87.9247 39.7136 88.1154 39.8344 88.259 40.0022C88.4026 40.1699 88.4926 40.3769 88.5172 40.5964C88.5419 40.8159 88.5002 41.0377 88.3974 41.2332L87.3354 43.2139C88.6742 43.5123 90.0652 43.4827 91.3901 43.1276C91.6102 43.0699 91.8427 43.0817 92.0559 43.1614C92.269 43.241 92.4523 43.3847 92.5805 43.5726C92.7088 43.7606 92.7757 43.9836 92.7722 44.2111C92.7687 44.4386 92.6949 44.6595 92.5609 44.8434C89.0589 49.6513 83.2083 52.7561 77.2378 52.7196C72.9944 52.6937 68.7073 51.2313 64.5775 52.2071C62.9799 52.5846 61.487 53.315 60.2084 54.3447C58.9299 55.3744 57.8981 56.6773 57.1887 58.1578C56.4794 59.6383 56.1105 61.2589 56.1091 62.9005C56.1078 64.5422 56.474 66.1633 57.1809 67.645C55.9122 66.2573 53.4596 66.5858 52.1619 67.9464C50.8641 69.307 50.5282 71.3377 50.6589 73.2135C50.8589 76.0823 51.9829 78.7856 53.1679 81.4165C43.2331 81.1038 33.8364 74.1347 30.6735 64.7088C27.4973 55.2435 30.8261 43.9588 38.6309 37.7326Z" fill="#2F2E41"/>
<path opacity="0.2" d="M22.9871 130.16L29.5375 165.8L33.4679 166.142L22.9871 130.16Z" fill="white"/>
<path opacity="0.2" d="M95.1412 127.473L88.5908 165.774L84.6604 166.142L95.1412 127.473Z" fill="white"/>
<path d="M44.218 25.7381C42.962 26.2626 41.6515 25.6878 41.1019 24.3716C40.5439 23.0352 41.0651 21.6787 42.3411 21.1458C43.6173 20.6129 44.9045 21.1891 45.4715 22.547C46.0301 23.8845 45.5146 25.1967 44.218 25.7381ZM41.8121 18.5154L40.8135 18.9324C40.564 19.0353 40.285 19.0409 40.0316 18.948C39.7783 18.855 39.569 18.6704 39.4452 18.4306L39.3959 18.334C38.3213 16.3961 38.1983 14.0409 39.0321 11.3375C39.8045 8.91246 40.1254 7.20691 39.4802 5.66177C38.7342 3.8753 37.1413 3.31569 35.11 4.12635C34.3221 4.45533 34.0714 4.45009 33.4514 5.06513C33.3166 5.20054 33.1558 5.30741 32.9787 5.37936C32.8017 5.45131 32.612 5.48687 32.4209 5.48391C32.2361 5.48174 32.0537 5.44239 31.8845 5.3682C31.7153 5.29401 31.5628 5.18651 31.4361 5.05211C31.1919 4.79309 31.055 4.45106 31.0532 4.09509C31.0514 3.73911 31.1848 3.39572 31.4264 3.13425C32.4685 2.04336 33.7254 1.18033 35.1178 0.59962C39.4823 -1.22282 41.6794 1.46775 42.6848 3.87557C43.6682 6.23068 43.115 8.41584 42.2262 11.2458C41.4813 13.5974 41.5247 15.3398 42.3708 17.0724C42.4319 17.2034 42.4659 17.3454 42.4707 17.4898C42.4756 17.6342 42.4512 17.7782 42.399 17.913C42.3468 18.0477 42.2679 18.1706 42.1671 18.2741C42.0662 18.3776 41.9455 18.4597 41.8121 18.5154Z" fill="#0167B4"/>
<path d="M152.635 36.5453H131.424C131.356 36.5458 131.29 36.5329 131.227 36.5074C131.165 36.482 131.108 36.4444 131.06 36.3969C131.012 36.3494 130.975 36.2929 130.949 36.2307C130.923 36.1685 130.909 36.1018 130.909 36.0344C130.909 35.967 130.923 35.9003 130.949 35.8381C130.975 35.7759 131.012 35.7194 131.06 35.6719C131.108 35.6244 131.165 35.5869 131.227 35.5614C131.29 35.5359 131.356 35.5231 131.424 35.5235H152.635C152.77 35.5244 152.899 35.5787 152.994 35.6744C153.089 35.7701 153.142 35.8995 153.142 36.0344C153.142 36.1693 153.089 36.2987 152.994 36.3944C152.899 36.4902 152.77 36.5444 152.635 36.5453Z" fill="#0167B4"/>
<path d="M179.542 36.7156H158.331C158.264 36.7161 158.197 36.7032 158.135 36.6777C158.072 36.6523 158.016 36.6147 157.968 36.5672C157.92 36.5197 157.882 36.4632 157.856 36.401C157.83 36.3388 157.817 36.2721 157.817 36.2047C157.817 36.1373 157.83 36.0706 157.856 36.0084C157.882 35.9462 157.92 35.8897 157.968 35.8422C158.016 35.7947 158.072 35.7572 158.135 35.7317C158.197 35.7062 158.264 35.6933 158.331 35.6938H179.542C179.61 35.6933 179.677 35.7062 179.739 35.7317C179.801 35.7572 179.858 35.7947 179.906 35.8422C179.954 35.8897 179.992 35.9462 180.018 36.0084C180.043 36.0706 180.057 36.1373 180.057 36.2047C180.057 36.2721 180.043 36.3388 180.018 36.401C179.992 36.4632 179.954 36.5197 179.906 36.5672C179.858 36.6147 179.801 36.6523 179.739 36.6777C179.677 36.7032 179.61 36.7161 179.542 36.7156Z" fill="#0167B4"/>
<path d="M206.45 36.8859H185.239C185.104 36.885 184.975 36.8307 184.88 36.735C184.785 36.6393 184.731 36.5099 184.731 36.375C184.731 36.2401 184.785 36.1107 184.88 36.0149C184.975 35.9192 185.104 35.865 185.239 35.8641H206.45C206.517 35.8636 206.584 35.8765 206.647 35.902C206.709 35.9274 206.766 35.965 206.813 36.0125C206.861 36.06 206.899 36.1165 206.925 36.1787C206.951 36.2409 206.964 36.3076 206.964 36.375C206.964 36.4424 206.951 36.5091 206.925 36.5713C206.899 36.6335 206.861 36.69 206.813 36.7375C206.766 36.785 206.709 36.8225 206.647 36.848C206.584 36.8735 206.517 36.8864 206.45 36.8859Z" fill="#0167B4"/>
<path d="M233.357 37.0562H212.146C212.011 37.0552 211.882 37.001 211.787 36.9053C211.692 36.8096 211.639 36.6802 211.639 36.5453C211.639 36.4104 211.692 36.2809 211.787 36.1852C211.882 36.0895 212.011 36.0353 212.146 36.0344H233.357C233.492 36.0353 233.621 36.0895 233.716 36.1852C233.812 36.2809 233.865 36.4104 233.865 36.5453C233.865 36.6802 233.812 36.8096 233.716 36.9053C233.621 37.001 233.492 37.0552 233.357 37.0562Z" fill="#0167B4"/>
<path d="M141.983 31.8434C144.16 31.8434 145.925 30.0784 145.925 27.9012C145.925 25.7239 144.16 23.9589 141.983 23.9589C139.805 23.9589 138.04 25.7239 138.04 27.9012C138.04 30.0784 139.805 31.8434 141.983 31.8434Z" fill="#0167B4"/>
<path d="M169.053 31.8434C171.23 31.8434 172.995 30.0784 172.995 27.9012C172.995 25.7239 171.23 23.9589 169.053 23.9589C166.875 23.9589 165.11 25.7239 165.11 27.9012C165.11 30.0784 166.875 31.8434 169.053 31.8434Z" fill="#0167B4"/>
<path d="M196.123 31.8434C198.3 31.8434 200.065 30.0784 200.065 27.9012C200.065 25.7239 198.3 23.9589 196.123 23.9589C193.945 23.9589 192.18 25.7239 192.18 27.9012C192.18 30.0784 193.945 31.8434 196.123 31.8434Z" fill="#0167B4"/>
<path d="M223.193 31.8434C225.37 31.8434 227.135 30.0784 227.135 27.9012C227.135 25.7239 225.37 23.9589 223.193 23.9589C221.015 23.9589 219.25 25.7239 219.25 27.9012C219.25 30.0784 221.015 31.8434 223.193 31.8434Z" fill="#0167B4"/>
</g>
<defs>
<clipPath id="clip0_144_806">
<rect width="250" height="166.142" fill="white"/>
</clipPath>
</defs>
</svg>
