<?xml version="1.0" encoding="utf-8"?>
<svg version="1.1" xmlns="http://www.w3.org/2000/svg" xmlns:xlink="http://www.w3.org/1999/xlink" x="0px" y="0px" viewBox="0 0 3215.95 1024.99">
<style type="text/css">.st0{fill-rule:evenodd;clip-rule:evenodd;fill:#FFFFFF;}</style>
<path class="st0" d="M1479.6,0c6.14,0,12.29,0,18.43,0c2.63,1.61,7.26,1.25,10.51,2.16c5.07,1.42,10.06,2.96,14.69,4.9
	c19.72,8.26,34.45,23.9,43.63,42.77c2.65,5.44,4.59,11.91,6.05,18.29c3.9,17.02,0.68,37.28-4.75,49.97
	c-12.06,28.13-33.45,46.75-67.54,52.85c-13.12,2.35-28.9,0.03-38.59-3.74c-27.32-10.64-42.64-25.02-53.86-51.7
	c-9.96-23.69-4.03-56.48,7.06-74.02c9.33-14.76,22.2-26.91,38.88-34.27c5.81-2.57,12.02-3.95,18.72-5.76
	C1474.36,1.03,1479.04,1.36,1479.6,0z"/>
<path class="st0" d="M515.23,1.01c32.21-0.18,62.87,0.92,90.58,5.9c11.34,2.04,21.97,2.79,32.83,5.18
	c25.71,5.66,50.49,11.66,73.58,20.02c120.33,43.52,205.53,122.73,255.6,236.59c10.77,24.49,18.14,51.61,24.05,80.78
	c1.87,9.25,2.27,18.85,3.89,28.37c0.19,3.12,0.38,6.24,0.58,9.36c1.06,6.52,0.02,13.99,0.86,21.17c0,2.98,0,5.95,0,8.93
	c-0.1,5.57-0.19,11.14-0.29,16.7c-1.68,10.78-1.01,21.8-3.17,32.11c-3.44,16.43-4.9,32.97-9.94,47.95
	c-3.83,11.4-6.79,22.99-10.94,33.98c-4.44,11.76-10,23.15-14.83,34.27c-6.91,15.89-15.8,30.55-24.77,44.5
	c-27.37,42.56-60.63,78.57-100.66,108.43c-25.72,19.19-52.95,38.51-85.54,50.69c-10.52,3.93-21.38,7.13-32.4,10.8
	c-6.5,2.16-13.01,2.62-19.87,4.46c-12.93,3.48-27.57,4.26-41.76,6.62c-8.26,0.62-16.51,1.25-24.77,1.87
	c-7.63,0.19-15.26,0.38-22.9,0.58c-5.12,0.78-14.37,0.95-19.58,0.14c-2.74-0.05-5.47-0.1-8.21-0.14
	c-6.48-0.14-12.96-0.29-19.44-0.43c-16.17-2.59-32.35-5.18-48.53-7.78c-8.45-0.96-16.9-1.92-25.34-2.88
	c-13.82-1.01-27.65-2.02-41.47-3.02c-4.08-0.1-8.16-0.19-12.24-0.29c-8.83-0.34-17.66-0.67-26.5-1.01c-2.54,0-5.09,0-7.63,0
	c-5.9-0.14-11.81-0.29-17.71-0.43c-6.05-0.1-12.1-0.19-18.14-0.29c-10.61-0.05-21.22-0.1-31.82-0.14
	c-14.88,0.19-29.76,0.38-44.64,0.58c-3.52,0.54-16.47,1.24-18.72,0c-1.57-10.46,4.44-24.56,7.49-32.11
	c10.07-24.94,23.17-46.91,37.01-68.11c9.6-14.7,19.07-29.13,29.38-43.06c18.57-25.11,39.83-48.32,61.92-69.98
	c22.28-21.86,46-42.19,67.97-64.37c4.4-4.44,9.09-8.71,13.1-13.54c7.02-8.45,15.9-15.37,22.9-23.9c4.61-4.75,9.22-9.5,13.82-14.26
	c3.98-4.22,7.97-8.45,11.95-12.67c12.62-13.77,25.25-27.55,37.87-41.33c4.53-5.64,9.82-10.63,14.26-16.42
	c0.94-1.23,5.01-5.21,4.75-6.62c-1.18-3.29-16.17-3.65-21.02-4.46c-7.49-1.26-16.23-0.55-24.05-1.73c-2.45,0-4.9,0-7.34,0
	c-6-0.05-12-0.1-18-0.14c-8.83,0.1-17.66,0.19-26.5,0.29c-3.94,0.19-7.87,0.38-11.81,0.58c-11.95,0.82-23.91,1.63-35.86,2.45
	c-11.04,1.3-22.08,2.59-33.12,3.89c-22.39,4.11-44.25,7.41-64.8,12.96c-26.66,7.2-51.92,17.39-74.59,29.09
	c-6.29,3.36-12.58,6.72-18.86,10.08c-3.26,1.97-6.53,3.94-9.79,5.9c-0.1-0.05-0.19-0.1-0.29-0.14c0.32-2.76,4.44-7.76,5.9-10.08
	c5.33-8.98,10.66-17.95,15.98-26.93c9.6-15.19,17.21-31.42,26.5-46.94c5.43-9.08,9.68-18.93,15.12-28.22
	c2.54-4.8,5.09-9.6,7.63-14.4c5.33-10.89,10.66-21.79,15.98-32.69c1.45-3.2,4.01-10.93,6.48-12.82c2.02,1.25,4.03,2.5,6.05,3.74
	c4.42,2.72,10.38,4.39,15.41,6.19c18.28,6.53,39.3,9.3,59.9,13.1c6.91,0.96,13.82,1.92,20.74,2.88c9.36,1.01,18.72,2.02,28.08,3.02
	c15.02,1.01,30.05,2.02,45.07,3.02c4.61,0.1,9.22,0.19,13.82,0.29c6.67,0.19,13.34,0.38,20.02,0.58c2.4,0,4.8,0,7.2,0
	c3.84,0,7.68,0,11.52,0c7.72,0,15.7,0.56,22.9-0.58c3.31-0.05,6.62-0.1,9.94-0.14c7.3-0.38,14.59-0.77,21.89-1.15
	c7.63-0.62,15.26-1.25,22.9-1.87c18.02-2.94,36.07-3.53,53.28-7.06c20.14-4.13,39.84-8.41,58.18-13.82c5-1.47,9.66-2.45,14.4-4.32
	c7.78-2.98,15.55-5.95,23.33-8.93c2.69-1.28,7.61-4.49,10.66-4.75c0.05,0.14,0.1,0.29,0.14,0.43c-4.38,7.84-11.08,14.66-16.42,21.74
	c-10.87,14.45-22.72,27.92-33.7,42.19c-3.12,3.6-6.24,7.2-9.36,10.8c-13.49,17.52-29.38,32.94-43.2,50.11
	c-6.1,6.72-12.19,13.44-18.29,20.16c-8.21,8.64-16.42,17.28-24.62,25.92c-9.11,11.28-20.93,20.19-30.38,31.1
	c-5.04,5.81-11.59,12.45-17.57,17.28c-5.18,5.04-10.37,10.08-15.55,15.12c-9.5,8.74-19.01,17.47-28.51,26.21
	c-2.88,2.83-5.76,5.66-8.64,8.5c-7.83,6.32-14.61,14.11-21.74,21.17c-10.5,10.4-21.39,20.66-30.96,31.97
	c-8.22,9.72-17.7,18.49-25.63,28.51c-7.65,9.65-15.92,18.96-23.04,29.09c-6.55,9.31-12.32,18.74-18.43,28.66
	c-4.73,7.68-8.12,15.76-10.94,25.49c-1.05,3.63-2.14,10.08-0.58,14.11c1.95,5.02,7.45,3.38,13.54,4.32
	c6.43,0.34,12.86,0.67,19.3,1.01c2.06,0,4.13,0,6.19,0c9.12,0.38,18.24,0.77,27.36,1.15c6.24,0.34,12.48,0.67,18.72,1.01
	c22.65,1.68,45.31,3.36,67.97,5.04c15.79,1.58,31.59,3.17,47.38,4.75c4.18,0,8.35,0,12.53,0c2.16-0.05,4.32-0.1,6.48-0.14
	c5.8-0.98,12.07-1.61,17.42-2.74c29.72-6.22,52.6-16.01,76.03-27.94c48.91-24.9,86.71-62.28,116.06-106.85
	c6.78-10.29,13.48-21.61,18.72-33.26c6.74-14.99,12.29-30.59,17.86-47.09c3-8.9,3.94-18,6.48-27.5c2.63-9.81,2.97-20.33,4.9-31.25
	c1-5.67,0.91-12.84,1.15-19.01c0-2.26,0-4.51,0-6.77c-1.01-6.5,0.04-14.34-1.01-20.59c-0.48-5.18-0.96-10.37-1.44-15.55
	c-2.08-10.6-3.53-21.09-5.9-31.25c-4.13-17.66-10.44-34.18-16.85-49.54c-28.17-67.51-78.15-113.47-139.1-148.32
	c-18.74-10.71-39.57-18.6-60.62-26.93c-11.27-4.46-23.07-6.97-35.28-10.37c-13.31-3.7-27.86-5.66-42.34-8.64
	c-4.66-0.48-9.31-0.96-13.97-1.44c-5.95-0.58-11.9-1.15-17.86-1.73c-2.74-0.05-5.47-0.1-8.21-0.14c-2.4-0.1-4.8-0.19-7.2-0.29
	c-3.7-0.05-7.39-0.1-11.09-0.14c-9.31,0-19.82-0.13-28.66,1.3c-8.33,1.35-16.04,0.89-24.05,2.3c-17.46,3.09-34.46,5.54-50.54,10.08
	c-57.94,16.35-106.46,40.3-149.18,71.57c-19.55,14.31-38.47,29.9-54.29,47.95c-3.94,4.22-7.87,8.45-11.81,12.67
	c-11.08,13.83-22.81,27.29-32.83,42.19c-16.72,24.87-31.51,51.1-44.93,79.49c-7.48,15.81-13.16,32.91-19.01,50.11
	c-7.62,22.44-11.35,46.58-15.98,72.29c-0.67,6.53-1.34,13.06-2.02,19.58c-0.1,2.69-0.19,5.38-0.29,8.06
	c-1.02,6.62-0.72,14.08-0.72,21.46c0,7.32-0.3,14.77,0.72,21.31c0.1,2.74,0.19,5.47,0.29,8.21c0.67,6.38,1.34,12.77,2.02,19.15
	c1.01,6.38,2.02,12.77,3.02,19.15c3.94,16.83,7.35,33.29,12.67,48.38c4.37,12.41,8.25,24,13.25,35.57
	c29.05,67.2,76.1,126.35,133.34,165.46c13.56,9.26,28.2,17.45,43.34,25.06c8.94,4.49,18.6,7.73,27.79,11.95
	c5.47,1.82,10.94,3.65,16.42,5.47c15.06,5.43,31.91,9.25,48.82,12.67c8.35,1.3,16.7,2.59,25.06,3.89c10.52,2,21.33,1.01,32.4,2.74
	c5.17,0.81,11.17-0.27,16.7,0.58c6.96,0,13.92,0,20.88,0c2.16,0,4.32,0,6.48,0c8.4-0.43,16.8-0.86,25.2-1.3
	c14.81-2.36,29.64-2.25,43.92-4.9c13.17-2.44,26.61-4.03,39.46-7.06c16.02-3.78,32.11-7.7,47.38-11.81
	c10.86-2.92,21.33-5.49,31.68-9.22c5.8-2.09,11.87-4.33,18.29-5.76c22.05-4.91,39.82,6.89,47.52,19.44
	c1.49,2.43,2.73,5.82,3.31,8.93c4.38,23.27-8.04,40.54-21.02,48.67c-14.1,8.83-31.6,13.92-48.38,20.02
	c-38.01,13.81-79.08,22.03-123.55,29.81c-11.37,1.3-22.75,2.59-34.13,3.89c-3.89,0.29-7.78,0.58-11.66,0.86
	c-5.21,0.85-13.29-0.95-17.42,1.3c-5.86,0-11.71,0-17.57,0c-9.32,0-20.04,0.56-28.22-0.72c-6.44-1-13.22-0.19-19.15-1.15
	c-5.04-0.38-10.08-0.77-15.12-1.15c-13.11-2.16-26.56-3.41-38.88-5.9c-2.69-0.43-5.38-0.86-8.06-1.3
	c-18.07-4.87-36.19-7.89-52.99-13.97c-11.69-4.23-23.46-8.19-34.7-12.96c-5.62-2.59-11.23-5.18-16.85-7.78
	c-15.68-6.8-30.56-15.04-44.35-23.9c-24.44-15.71-47.47-31.73-68.26-50.98c-11.82-10.94-24.56-21.55-34.7-34.13
	c-3.26-3.5-6.53-7.01-9.79-10.51c-6.38-7.68-12.77-15.36-19.15-23.04c-10.44-13.83-20.43-27.77-30.24-42.34
	c-12.74-18.91-25.05-38.43-34.7-60.34c-9.92-22.5-16.73-47.72-23.04-73.58c-2.29-9.39-3.2-18.62-5.33-28.37
	c-2.47-11.3-2.88-23.18-4.9-35.42c-1.95-11.84-2.78-25.01-2.88-38.02c-0.14-5.81-0.29-11.62-0.43-17.42c-0.98-2.21-0.99-8.59,0-10.8
	c0.24-9.5,0.48-19.01,0.72-28.51c0.62-8.02,1.25-16.03,1.87-24.05c2.79-16.32,3.72-32.54,6.91-48.1
	C22.34,370.79,40.94,319.1,66.1,272.74c11.97-22.06,27.54-41.8,42.19-61.34c4.8-5.66,9.6-11.33,14.4-16.99
	c8.2-10.57,17.77-20.03,27.07-29.52c10.22-10.43,20.53-21.06,31.97-30.24c10.74-8.61,20.83-18.2,31.97-26.5
	c40.49-30.14,85.25-57.11,136.8-76.03c31.89-11.71,64.49-19.43,101.95-26.06c12.55-2.22,25.54-2,38.59-4.03
	C499.1,1.68,507.17,1.34,515.23,1.01z"/>
<path class="st0" d="M2164.32,80.06c79.38,0,158.79,0,238.18,0c17.81,0,35.62,0,53.42,0c9.52,0,20.65-1.01,28.51,1.15
	c11.67,3.21,19.45,8.05,27.5,14.54c2.82,2.27,5.09,5.65,7.2,8.64c4.43,6.29,7.59,13.38,9.65,22.18c1.23,5.24,1.01,11.23,1.01,17.42
	c0,7.97,0,15.94,0,23.9c0,29.85,0,59.71,0,89.57c0,19.73,0,39.46,0,59.18c0,10.48,1.14,22.68-1.01,31.68
	c-2.29,9.59-5.88,17.43-10.94,24.19c-7.96,10.64-19.26,17.18-33.98,21.17c-5.79,1.57-13.01,1.15-20.02,1.15
	c-10.56,0-21.12,0-31.68,0c-28.56,0-57.12,0-85.68,0c-13.63,0-27.27,0-40.9,0c-3.59,0-13.68-0.91-15.98,0.43
	c0,47.28,0,94.56,0,141.84c0.24,0.19,0.48,0.38,0.72,0.58c59.47,0.05,118.95,0.1,178.42,0.14c14.49,0,28.99,0,43.49,0
	c4.03,0,14.7-1.02,17.42,0.43c0.05,5.71,0.1,11.42,0.14,17.14c-0.19,7.2-0.38,14.4-0.58,21.6c-0.1,2.78-0.19,5.57-0.29,8.35
	c-0.05,2.78-0.1,5.57-0.14,8.35c-0.62,9.69-1.25,19.39-1.87,29.09c-0.72,7.92-1.44,15.84-2.16,23.76
	c-2.87,16.53-3.84,33.7-6.77,49.54c-5.73,31-10.59,60.74-19.87,87.98c-2.05,6.01-3.06,11.76-5.33,17.57
	c-6.48,16.65-12.73,32.8-19.87,48.38c-10.98,23.96-26.69,44.3-41.76,64.22c-8.12,10.74-17.28,20.59-26.78,29.95
	c-5.91,5.82-11.62,11.78-18.14,16.99c-6.35,5.07-12.3,10.79-18.86,15.7c-24.59,18.36-55.24,37.49-88.27,46.94
	c-162.99,0.05-326.03,0.1-489.02,0.14c-101.32,0-202.67,0-303.98,0c-27.41,0-54.82,0-82.22,0c-11.52,0-23.04,0-34.56,0
	c-0.53-0.48-1.06-0.96-1.58-1.44c-3.95-1.73-8.02-1.99-11.66-3.74c-14.74-7.09-25.92-19.38-30.96-36.14
	c-3.91-12.98-2.16-34.18-2.16-50.54c0-32.4,0-64.8,0-97.2c0-157.76,0-315.57,0-473.33c0-26.45,0-52.9,0-79.34
	c0-13.88-1.46-30.55,2.3-41.18c7.26-20.51,21.55-35.64,44.78-40.03c14.5-2.74,29.34,1.15,38.3,6.77
	c13.34,8.37,22.78,18.87,27.5,35.86c2.99,10.76,1.44,29.9,1.44,43.2c0,28.13,0,56.26,0,84.38c0,135.35,0,270.73,0,406.08
	c0,37.24,0,74.5,0,111.74c0,10.22,0,20.45,0,30.67c0,3.49-0.96,9.94,0.43,12.53c272.23,0.1,544.54,0.19,816.77,0.29
	c0.77,0.44,0.82,1.47,1.3,2.16c3.64-0.3,12.58-5.72,15.84-7.49c13.19-7.15,25.7-14,37.58-22.18c18.57-12.77,36.6-27.42,49.68-45.65
	c20.33-28.34,34.34-62.11,45.94-99.36c3.84-12.35,6.07-24.83,9.36-37.87c4.25-16.83,6.2-35.1,9.65-52.99
	c0.72-6.14,1.44-12.29,2.16-18.43c1.02-6.21,0.97-12.57,2.02-19.15c0.36-2.26,1.33-6.15,0.43-7.92
	c-51.69-0.05-103.4-0.1-155.09-0.14c-10.7,0-21.41,0-32.11,0c-9.98,0-20.17,0.44-26.93-2.59c-6.91-3.1-13.09-10.06-15.26-17.86
	c-1.42-5.08-1.01-12.25-1.01-18.72c0-10.56,0-21.12,0-31.68c0-55.48,0-110.98,0-166.46c0-12.14,0-24.29,0-36.43
	c0-6.96-0.54-14.91,1.01-20.45c1.14-4.07,3.68-7.83,6.05-10.8c9.75-12.21,28.48-9.5,49.82-9.5c40.27,0,80.55,0,120.82,0
	c14.21,0,28.42,0,42.62,0c2.64,0,13.14,0.54,13.97-0.72c0.05-35.52,0.1-71.04,0.14-106.56c0-8.3,0-16.61,0-24.91
	c0-3.04,0.79-8.24-0.29-10.66c-4.34-1.05-10.67-0.29-15.55-0.29c-10.51,0-21.02,0-31.54,0c-33.12,0-66.24,0-99.36,0
	c-15.05,0-35.16,1.72-46.94-2.02c-25.91-8.21-38.47-29.65-51.98-50.26c-7.58-10.99-15.17-21.99-22.75-32.98
	C2164.13,80.45,2164.22,80.26,2164.32,80.06z"/>
<path class="st0" d="M3078.72,667.01c0-9.7,0-19.39,0-29.09c0-36.33,0-72.68,0-109.01c0-12,0-24,0-36c0-9.88,0.29-19.67-1.87-27.36
	c-6.09-21.7-22.27-36.73-45.36-41.47c-6-1.23-13.03-0.86-20.02-0.86c-10.46,0-20.93,0-31.39,0c-14.59-0.05-29.19-0.1-43.78-0.14
	c-0.96-0.77-0.58-3.51-0.58-5.18c0-4.9,0-9.79,0-14.69c0-15.31,0-30.63,0-45.94c0-4.52-0.91-16.46,0.43-19.58
	c7.1-0.05,14.21-0.1,21.31-0.14c15.74,0,31.49,0,47.23,0c8.5,0,17.97,0.84,25.63-0.58c11.14-2.05,19.72-6.43,27.22-12.1
	c10.18-7.69,16.29-19.18,20.16-33.26c1.27-4.61,1.01-9.99,1.01-15.55c0-7.39,0-14.78,0-22.18c0-25.29,0-50.59,0-75.89
	c0-9.55,0-19.1,0-28.66c0-11.42,0.11-22.07-2.88-30.38c-4.07-11.33-11.23-21.41-20.3-27.79c-6.35-4.47-13.5-7.58-22.03-9.94
	c-8.49-2.35-20.75-1.15-30.96-1.15c-19.68,0-39.36,0-59.04,0c-87.54,0-175.11,0-262.66,0c-2.3,0.29-4.61,0.58-6.91,0.86
	c-2.98,0.77-5.95,1.54-8.93,2.3c-14.66,5.8-26.83,15.86-32.98,30.1c-2.29,5.3-3.7,11.05-4.9,17.57c-0.05,15.5-0.1,31.01-0.14,46.51
	c0,25.05,0,50.11,0,75.17c0,12.61-1.38,28.73,1.01,39.6c3.13,14.24,11.15,26.37,21.31,33.7c7.22,5.21,15.47,9.06,25.92,11.09
	c4.88,0.95,10.37,0.58,15.84,0.58c8.88,0,17.76,0,26.64,0c45.84,0.05,91.68,0.1,137.52,0.14c1.24,2.08,0.43,8.18,0.43,11.52
	c0,9.7,0,19.39,0,29.09c0.05,43.39,0.1,86.79,0.14,130.18c0.05,0.14,0.1,0.29,0.14,0.43c45.55,0.1,91.11,0.19,136.66,0.29
	c1.11,2.48,0.29,7.83,0.29,10.94c0,8.54,0,17.09,0,25.63c-0.05,31.58-0.1,63.17-0.14,94.75c-2.63,1.17-15.2,0.29-19.15,0.29
	c-21.98,0.05-43.97,0.1-65.95,0.14c-0.14,0.05-0.29,0.1-0.43,0.14c-0.05,30.19-0.1,60.39-0.14,90.58
	c2.07,1.32,15.82,0.58,19.73,0.58c17.23,0,34.47,0,51.7,0c10.75,0,21.5,0,32.26,0c8.27,0,16.69,0.25,23.47-1.3
	c12.37-2.81,23.7-9.77,30.53-18.29c6.01-7.5,10.65-15.94,13.1-27.07C3079.07,680.07,3078.72,673.53,3078.72,667.01z M2730.96,257.47
	c-1.68-0.86-1.01-3.43-1.01-5.9c0-5.42,0-10.85,0-16.27c0-18.09,0-36.19,0-54.29c0-4.14-0.76-18.86,0.43-20.88
	c81.69,0.05,163.4,0.1,245.09,0.14c0.81,1.69,0.43,5.1,0.43,7.49c0,6.62,0,13.25,0,19.87c-0.05,23.09-0.1,46.18-0.14,69.26
	c-2.19,1.17-14.05,0.43-17.71,0.43c-14.88,0-29.76,0-44.64,0C2852.6,257.38,2791.77,257.42,2730.96,257.47z"/>
<path class="st0" d="M2020.75,754.99c0-28.32,0-56.64,0-84.96c0-95.61,0-191.24,0-286.85c0-29.71,0-59.43,0-89.14
	c0-23,0.88-40.42-8.06-54.58c-7.96-12.6-19.48-22.05-35.71-26.35c-8.47-2.25-20.12-1.44-30.53-1.44c-17.95,0-35.91,0-53.86,0
	c-96.85,0-193.74,0-290.59,0c-2.3,0.14-4.61,0.29-6.91,0.43c-4.08,0.76-8.28,1.65-11.95,3.02c-14.58,5.47-25.31,16.22-31.97,29.66
	c-5.23,10.56-5.19,24.91-5.18,41.04c0,10.85,0,21.7,0,32.54c0,31.58,0,63.17,0,94.75c0,15.85-1.71,36.48,2.16,48.96
	c4.71,15.16,13.87,25.87,26.06,33.55c5.55,3.49,12.62,5.68,20.02,7.2c7.77,1.59,17.71,0.58,26.35,0.58c16.65,0,33.31,0,49.97,0
	c82.31,0.05,164.65,0.1,246.96,0.14c0.74,2.78,0.29,7.08,0.29,10.37c0,7.58,0,15.17,0,22.75c-0.05,21.21-0.1,42.43-0.14,63.65
	c-2.75,1.37-17.18,0.43-21.6,0.43c-17.9,0-35.81,0-53.71,0c-63.64,0-127.3,0-190.94,0c-15.12,0-30.24,0-45.36,0
	c-8.93,0-18.91-0.61-26.06,1.3c-15.31,4.09-27.57,15.68-31.97,30.67c-1.04,3.54-1.36,7.2-2.02,11.23
	c-1.55,9.57,3.69,21.16,6.91,26.35c6.17,9.95,14.82,16.72,27.22,20.45c6.13,1.84,14.46,1.44,22.32,1.44c11.47,0,22.95,0,34.42,0
	c93.49,0,187.02,0,280.51,0c1.35,2.48,0.43,8.72,0.43,12.1c0,9.98,0,19.97,0,29.95c0,12.72,0,25.44,0,38.16
	c0,8.46-0.44,17.35,1.3,24.19c3.6,14.22,11.36,25.64,21.74,33.12c7.48,5.39,16.92,9.62,28.08,11.23c1.25-0.29,2.5-0.58,3.74-0.86
	c5.11-1.13,9.18-2.1,13.25-3.89c15.04-6.61,26.6-18.1,31.97-34.27C2021.94,789.66,2020.75,771.21,2020.75,754.99z M1917.79,312.19
	c0,7.15,0,14.3,0,21.46c0,25.92,0,51.84,0,77.76c-2.05,1.2-16.72,0.43-20.88,0.43c-18.14,0-36.29,0-54.43,0
	c-68.15,0-136.33,0-204.48,0c-0.92-1.57-0.43-5.92-0.43-8.64c0-7.06,0-14.11,0-21.17c0-26.11,0-52.23,0-78.34
	c0.24-0.19,0.48-0.38,0.72-0.58c93.01,0.05,186.06,0.1,279.07,0.14C1918.36,305.15,1917.79,309.53,1917.79,312.19z"/>
<path class="st0" d="M2683.3,423.22c38.16,0.05,76.32,0.1,114.48,0.14c0.24,0.24,0.48,0.48,0.72,0.72c0,20.06,0,40.13,0,60.19
	c0,6.05,0,12.1,0,18.14c0,1.98,0.37,5.01-0.29,6.48c-20.78,0.05-41.57,0.1-62.35,0.14c-4.41,0-20.47-0.94-23.04,0.43
	c-0.05,33.21-0.1,66.44-0.14,99.65c0,7.92,0,15.84,0,23.76c0,1.72-0.64,7.01,0.43,7.78c47.37,0.1,94.76,0.19,142.13,0.29
	c0.14,0.19,0.29,0.38,0.43,0.58c0,71.7,0,143.43,0,215.14c0,18.24,0,36.48,0,54.72c0,4.16-0.8,18.76,0.58,21.02
	c49.82,0,99.65,0,149.47,0c11.04,0,22.08,0,33.12,0c5.99,0,12.86-0.63,17.86,0.72c3.97,1.08,7.7,2.87,10.66,5.04
	c12.58,9.22,11.38,21.7,11.38,42.91c0,7.24,0.72,15.78-0.86,21.74c-1.74,6.57-6.06,12.33-10.94,15.84
	c-8.99,6.47-22.44,5.33-37.87,5.33c-25.39,0-50.79,0-76.18,0c-100.79,0-201.61,0-302.4,0c-21.36,0-42.72,0-64.08,0
	c-10.66-0.05-21.31-0.1-31.97-0.14c-11.62-2.22-19.71-8.98-23.33-19.15c-2.07-5.82-1.3-15.07-1.3-22.75
	c0-22.38-1.47-35.43,12.38-44.64c10.93-7.26,34.05-4.9,51.98-4.9c39.98,0,79.97,0,119.95,0c15.36,0,30.72,0,46.08,0
	c2.59,0,14.44,0.5,15.26-0.58c0.05-17.95,0.1-35.91,0.14-53.86c-0.05-48.48-0.1-96.96-0.14-145.44c-0.14-0.05-0.29-0.1-0.43-0.14
	c-12.05-0.05-24.1-0.1-36.14-0.14c-13.73,0-27.46,0-41.18,0c-7.08,0-15.16,0.87-21.6-0.43c-14.33-2.9-26.59-8.6-34.27-18.14
	c-6.04-7.5-11.38-15.64-13.82-26.78c-1.38-6.31-1.01-13.4-1.01-20.88c0-10.56,0-21.12,0-31.68c0-37.2,0-74.4,0-111.6
	c0-24.04-2.58-53.06,6.19-68.54c7.28-12.86,17.84-22.98,32.83-28.08c3.79-1.29,7.65-1.67,11.95-2.45
	C2679.74,423.5,2681.52,423.36,2683.3,423.22z"/>
<path class="st0" d="M3146.69,766.66c33.23-0.53,55.32,17.67,64.37,41.18c2.63,6.83,4.9,13.87,4.9,23.47c0,3.02,0,6.05,0,9.07
	c-1.33,2.12-1.35,5.91-2.02,8.64c-1.01,2.98-2.02,5.95-3.02,8.93c-6.45,16.8-20.49,28.86-36.86,35.86
	c-5.34,2.28-11.66,3.09-18.14,4.18c-9.41,1.58-21.34-1.22-27.65-3.74c-20.2-8.07-34.47-21.49-41.18-42.91
	c-3.69-11.78-3.76-30.81,1.15-41.47c8.26-17.91,19.01-31.26,37.58-38.74c4.52-1.82,9.45-2.74,14.69-3.89
	C3142.56,767.04,3144.62,766.85,3146.69,766.66z"/>
<path class="st0" d="M888.34,775.3c41.85-0.74,68.92,24.76,80.78,54.29c6.71,16.71,7.62,41.56,0.72,59.04
	c-9.59,24.3-27.44,43.02-52.99,51.26c-6.49,2.09-13.43,2.76-21.02,4.03c-2.21,0-4.42,0-6.62,0c-12.5,0-22.8-2.91-31.54-6.77
	c-19.82-8.76-34.02-22.28-43.49-41.33c-1.99-4-2.87-8.03-4.46-12.53c-3.36-9.52-5.06-25.04-2.59-37.01
	c1.1-5.32,2.15-10.79,4.03-15.55c9.77-24.76,26.47-40.17,50.69-50.54c5.12-2.19,11.36-3.15,17.28-4.18
	C882.19,775.78,885.26,775.54,888.34,775.3z"/>
</svg>
