<svg>
    <style type="text/css">.st0 { fill-rule: evenodd; clip-rule: evenodd; fill: #FFFFFF; }</style>
    <path class="st0" d="M79.14,0.97c0.32,0,0.65,0,0.97,0c0.14,0.08,0.38,0.07,0.56,0.11c0.27,0.07,0.53,0.16,0.78,0.26c1.04,0.44,1.82,1.26,2.31,2.26c0.14,0.29,0.24,0.63,0.32,0.97c0.21,0.9,0.04,1.97-0.25,2.64C83.18,8.7,82.05,9.68,80.25,10c-0.69,0.12-1.53,0-2.04-0.2c-1.44-0.56-2.25-1.32-2.85-2.73c-0.53-1.25-0.21-2.99,0.37-3.91c0.49-0.78,1.17-1.42,2.06-1.81c0.31-0.14,0.64-0.21,0.99-0.3C78.86,1.02,79.11,1.04,79.14,0.97z" />
    <path class="st0" d="M28.16,1.02c1.7-0.01,3.32,0.05,4.79,0.31c0.6,0.11,1.16,0.15,1.74,0.27c1.36,0.3,2.67,0.62,3.89,1.06c6.36,2.3,10.86,6.49,13.51,12.51c0.57,1.29,0.96,2.73,1.27,4.27c0.1,0.49,0.12,1,0.21,1.5c0.01,0.16,0.02,0.33,0.03,0.49c0.06,0.34,0,0.74,0.05,1.12c0,0.16,0,0.31,0,0.47c-0.01,0.29-0.01,0.59-0.02,0.88c-0.09,0.57-0.05,1.15-0.17,1.7c-0.18,0.87-0.26,1.74-0.53,2.53c-0.2,0.6-0.36,1.22-0.58,1.8c-0.23,0.62-0.53,1.22-0.78,1.81c-0.37,0.84-0.84,1.61-1.31,2.35c-1.45,2.25-3.2,4.15-5.32,5.73c-1.36,1.01-2.8,2.04-4.52,2.68c-0.56,0.21-1.13,0.38-1.71,0.57c-0.34,0.11-0.69,0.14-1.05,0.24c-0.68,0.18-1.46,0.23-2.21,0.35c-0.44,0.03-0.87,0.07-1.31,0.1c-0.4,0.01-0.81,0.02-1.21,0.03c-0.27,0.04-0.76,0.05-1.04,0.01c-0.14,0-0.29-0.01-0.43-0.01c-0.34-0.01-0.69-0.02-1.03-0.02c-0.85-0.14-1.71-0.27-2.57-0.41c-0.45-0.05-0.89-0.1-1.34-0.15c-0.73-0.05-1.46-0.11-2.19-0.16c-0.22-0.01-0.43-0.01-0.65-0.02c-0.47-0.02-0.93-0.04-1.4-0.05c-0.13,0-0.27,0-0.4,0c-0.31-0.01-0.62-0.02-0.94-0.02c-0.32-0.01-0.64-0.01-0.96-0.02c-0.56,0-1.12-0.01-1.68-0.01c-0.79,0.01-1.57,0.02-2.36,0.03c-0.19,0.03-0.87,0.07-0.99,0c-0.08-0.55,0.23-1.3,0.4-1.7c0.53-1.32,1.22-2.48,1.96-3.6c0.51-0.78,1.01-1.54,1.55-2.28c0.98-1.33,2.11-2.55,3.27-3.7c1.18-1.16,2.43-2.23,3.59-3.4c0.23-0.23,0.48-0.46,0.69-0.72c0.37-0.45,0.84-0.81,1.21-1.26c0.24-0.25,0.49-0.5,0.73-0.75c0.21-0.22,0.42-0.45,0.63-0.67c0.67-0.73,1.33-1.46,2-2.18c0.24-0.3,0.52-0.56,0.75-0.87c0.05-0.06,0.26-0.28,0.25-0.35c-0.06-0.17-0.85-0.19-1.11-0.24c-0.4-0.07-0.86-0.03-1.27-0.09c-0.13,0-0.26,0-0.39,0c-0.32,0-0.63-0.01-0.95-0.01c-0.47,0.01-0.93,0.01-1.4,0.02c-0.21,0.01-0.42,0.02-0.62,0.03c-0.63,0.04-1.26,0.09-1.9,0.13c-0.58,0.07-1.17,0.14-1.75,0.21c-1.18,0.22-2.34,0.39-3.43,0.69c-1.41,0.38-2.74,0.92-3.94,1.54c-0.33,0.18-0.66,0.36-1,0.53c-0.17,0.1-0.35,0.21-0.52,0.31c-0.01,0-0.01-0.01-0.02-0.01c0.02-0.15,0.23-0.41,0.31-0.53c0.28-0.47,0.56-0.95,0.84-1.42c0.51-0.8,0.91-1.66,1.4-2.48c0.29-0.48,0.51-1,0.8-1.49c0.13-0.25,0.27-0.51,0.4-0.76c0.28-0.58,0.56-1.15,0.84-1.73c0.08-0.17,0.21-0.58,0.34-0.68c0.11,0.07,0.21,0.13,0.32,0.2c0.23,0.14,0.55,0.23,0.81,0.33c0.97,0.35,2.08,0.49,3.17,0.69c0.37,0.05,0.73,0.1,1.1,0.15c0.49,0.05,0.99,0.11,1.48,0.16c0.79,0.05,1.59,0.11,2.38,0.16c0.24,0.01,0.49,0.01,0.73,0.02c0.35,0.01,0.71,0.02,1.06,0.03c0.13,0,0.25,0,0.38,0c0.2,0,0.41,0,0.61,0c0.41,0,0.83,0.03,1.21-0.03c0.18,0,0.35-0.01,0.53-0.01c0.39-0.02,0.77-0.04,1.16-0.06c0.4-0.03,0.81-0.07,1.21-0.1c0.95-0.16,1.91-0.19,2.82-0.37c1.06-0.22,2.11-0.44,3.08-0.73c0.26-0.08,0.51-0.13,0.76-0.23c0.41-0.16,0.82-0.31,1.23-0.47c0.14-0.07,0.4-0.24,0.56-0.25c0,0.01,0.01,0.02,0.01,0.02c-0.23,0.41-0.59,0.77-0.87,1.15c-0.57,0.76-1.2,1.48-1.78,2.23c-0.16,0.19-0.33,0.38-0.49,0.57c-0.71,0.93-1.55,1.74-2.28,2.65c-0.32,0.36-0.64,0.71-0.97,1.07c-0.43,0.46-0.87,0.91-1.3,1.37c-0.48,0.6-1.11,1.07-1.61,1.64c-0.27,0.31-0.61,0.66-0.93,0.91c-0.27,0.27-0.55,0.53-0.82,0.8c-0.5,0.46-1,0.92-1.51,1.39c-0.15,0.15-0.3,0.3-0.46,0.45c-0.41,0.33-0.77,0.75-1.15,1.12c-0.56,0.55-1.13,1.09-1.64,1.69c-0.43,0.51-0.94,0.98-1.35,1.51c-0.4,0.51-0.84,1-1.22,1.54c-0.35,0.49-0.65,0.99-0.97,1.51c-0.25,0.41-0.43,0.83-0.58,1.35c-0.06,0.19-0.11,0.53-0.03,0.75c0.1,0.27,0.39,0.18,0.72,0.23c0.34,0.02,0.68,0.04,1.02,0.05c0.11,0,0.22,0,0.33,0c0.48,0.02,0.96,0.04,1.45,0.06c0.33,0.02,0.66,0.04,0.99,0.05c1.2,0.09,2.4,0.18,3.59,0.27c0.83,0.08,1.67,0.17,2.5,0.25c0.22,0,0.44,0,0.66,0c0.11,0,0.23-0.01,0.34-0.01c0.31-0.05,0.64-0.09,0.92-0.14c1.57-0.33,2.78-0.85,4.02-1.48c2.59-1.32,4.58-3.29,6.14-5.65c0.36-0.54,0.71-1.14,0.99-1.76c0.36-0.79,0.65-1.62,0.94-2.49c0.16-0.47,0.21-0.95,0.34-1.45c0.14-0.52,0.16-1.07,0.26-1.65c0.05-0.3,0.05-0.68,0.06-1c0-0.12,0-0.24,0-0.36c-0.05-0.34,0-0.76-0.05-1.09c-0.03-0.27-0.05-0.55-0.08-0.82c-0.11-0.56-0.19-1.11-0.31-1.65c-0.22-0.93-0.55-1.81-0.89-2.62c-1.49-3.57-4.13-6-7.35-7.84c-0.99-0.57-2.09-0.98-3.2-1.42c-0.6-0.24-1.22-0.37-1.86-0.55c-0.7-0.2-1.47-0.3-2.24-0.46c-0.25-0.03-0.49-0.05-0.74-0.08C31.52,7.06,31.21,7.03,30.89,7c-0.14,0-0.29-0.01-0.43-0.01c-0.13-0.01-0.25-0.01-0.38-0.02c-0.2,0-0.39-0.01-0.59-0.01c-0.49,0-1.05-0.01-1.51,0.07c-0.44,0.07-0.85,0.05-1.27,0.12c-0.92,0.16-1.82,0.29-2.67,0.53c-3.06,0.86-5.63,2.13-7.89,3.78c-1.03,0.76-2.03,1.58-2.87,2.53c-0.21,0.22-0.42,0.45-0.62,0.67c-0.59,0.73-1.21,1.44-1.74,2.23c-0.88,1.31-1.67,2.7-2.37,4.2c-0.4,0.84-0.7,1.74-1,2.65c-0.4,1.19-0.6,2.46-0.84,3.82c-0.04,0.35-0.07,0.69-0.11,1.04c-0.01,0.14-0.01,0.28-0.02,0.43c-0.05,0.35-0.04,0.74-0.04,1.13c0,0.39-0.02,0.78,0.04,1.13c0.01,0.14,0.01,0.29,0.02,0.43c0.04,0.34,0.07,0.67,0.11,1.01c0.05,0.34,0.11,0.67,0.16,1.01c0.21,0.89,0.39,1.76,0.67,2.56c0.23,0.66,0.44,1.27,0.7,1.88c1.54,3.55,4.02,6.68,7.05,8.75c0.72,0.49,1.49,0.92,2.29,1.32c0.47,0.24,0.98,0.41,1.47,0.63c0.29,0.1,0.58,0.19,0.87,0.29c0.8,0.29,1.69,0.49,2.58,0.67c0.44,0.07,0.88,0.14,1.32,0.21c0.56,0.11,1.13,0.05,1.71,0.14c0.27,0.04,0.59-0.01,0.88,0.03c0.37,0,0.74,0,1.1,0c0.11,0,0.23,0,0.34,0c0.44-0.02,0.89-0.05,1.33-0.07c0.78-0.12,1.57-0.12,2.32-0.26c0.7-0.13,1.41-0.21,2.09-0.37c0.85-0.2,1.7-0.41,2.5-0.62c0.57-0.15,1.13-0.29,1.67-0.49c0.31-0.11,0.63-0.23,0.97-0.3c1.17-0.26,2.1,0.36,2.51,1.03c0.08,0.13,0.14,0.31,0.18,0.47c0.23,1.23-0.43,2.14-1.11,2.57c-0.75,0.47-1.67,0.74-2.56,1.06c-2.01,0.73-4.18,1.16-6.53,1.58c-0.6,0.07-1.2,0.14-1.8,0.21c-0.21,0.02-0.41,0.03-0.62,0.05c-0.28,0.04-0.7-0.05-0.92,0.07c-0.31,0-0.62,0-0.93,0c-0.49,0-1.06,0.03-1.49-0.04c-0.34-0.05-0.7-0.01-1.01-0.06c-0.27-0.02-0.53-0.04-0.8-0.06c-0.69-0.11-1.4-0.18-2.06-0.31c-0.14-0.02-0.28-0.05-0.43-0.07c-0.96-0.26-1.91-0.42-2.8-0.74c-0.62-0.22-1.24-0.43-1.83-0.69c-0.3-0.14-0.59-0.27-0.89-0.41c-0.83-0.36-1.62-0.79-2.34-1.26c-1.29-0.83-2.51-1.68-3.61-2.69c-0.62-0.58-1.3-1.14-1.83-1.8c-0.17-0.19-0.35-0.37-0.52-0.56C7,46.05,6.66,45.64,6.32,45.24c-0.55-0.73-1.08-1.47-1.6-2.24c-0.67-1-1.32-2.03-1.83-3.19c-0.52-1.19-0.88-2.52-1.22-3.89c-0.12-0.5-0.17-0.98-0.28-1.5c-0.13-0.6-0.15-1.23-0.26-1.87c-0.1-0.63-0.15-1.32-0.15-2.01c-0.01-0.31-0.02-0.61-0.02-0.92c-0.05-0.12-0.05-0.45,0-0.57c0.01-0.5,0.03-1,0.04-1.51c0.03-0.42,0.07-0.85,0.1-1.27c0.15-0.86,0.2-1.72,0.37-2.54c0.65-3.16,1.63-5.89,2.96-8.34c0.63-1.17,1.46-2.21,2.23-3.24c0.25-0.3,0.51-0.6,0.76-0.9c0.43-0.56,0.94-1.06,1.43-1.56c0.54-0.55,1.08-1.11,1.69-1.6c0.57-0.46,1.1-0.96,1.69-1.4c2.14-1.59,4.51-3.02,7.23-4.02c1.69-0.62,3.41-1.03,5.39-1.38c0.66-0.12,1.35-0.11,2.04-0.21C27.31,1.06,27.74,1.04,28.16,1.02z" />
    <path class="st0" d="M115.33,5.2c4.2,0,8.39,0,12.59,0c0.94,0,1.88,0,2.82,0c0.5,0,1.09-0.05,1.51,0.06c0.62,0.17,1.03,0.43,1.45,0.77c0.15,0.12,0.27,0.3,0.38,0.46c0.23,0.33,0.4,0.71,0.51,1.17c0.06,0.28,0.05,0.59,0.05,0.92c0,0.42,0,0.84,0,1.26c0,1.58,0,3.16,0,4.73c0,1.04,0,2.09,0,3.13c0,0.55,0.06,1.2-0.05,1.67c-0.12,0.51-0.31,0.92-0.58,1.28c-0.42,0.56-1.02,0.91-1.8,1.12c-0.31,0.08-0.69,0.06-1.06,0.06c-0.56,0-1.12,0-1.67,0c-1.51,0-3.02,0-4.53,0c-0.72,0-1.44,0-2.16,0c-0.19,0-0.72-0.05-0.84,0.02c0,2.5,0,5,0,7.5c0.01,0.01,0.03,0.02,0.04,0.03c3.14,0,6.29,0.01,9.43,0.01c0.77,0,1.53,0,2.3,0c0.21,0,0.78-0.05,0.92,0.02c0,0.3,0.01,0.6,0.01,0.91c-0.01,0.38-0.02,0.76-0.03,1.14c-0.01,0.15-0.01,0.29-0.02,0.44c0,0.15-0.01,0.29-0.01,0.44c-0.03,0.51-0.07,1.03-0.1,1.54c-0.04,0.42-0.08,0.84-0.11,1.26c-0.15,0.87-0.2,1.78-0.36,2.62c-0.3,1.64-0.56,3.21-1.05,4.65c-0.11,0.32-0.16,0.62-0.28,0.93c-0.34,0.88-0.67,1.73-1.05,2.56c-0.58,1.27-1.41,2.34-2.21,3.39c-0.43,0.57-0.91,1.09-1.42,1.58c-0.31,0.31-0.61,0.62-0.96,0.9c-0.34,0.27-0.65,0.57-1,0.83c-1.3,0.97-2.92,1.98-4.67,2.48c-8.62,0-17.23,0.01-25.85,0.01c-5.36,0-10.71,0-16.07,0c-1.45,0-2.9,0-4.35,0c-0.61,0-1.22,0-1.83,0c-0.03-0.03-0.06-0.05-0.08-0.08c-0.21-0.09-0.42-0.11-0.62-0.2c-0.78-0.37-1.37-1.02-1.64-1.91c-0.21-0.69-0.11-1.81-0.11-2.67c0-1.71,0-3.43,0-5.14c0-8.34,0-16.68,0-25.02c0-1.4,0-2.8,0-4.19c0-0.73-0.08-1.61,0.12-2.18c0.38-1.08,1.14-1.88,2.37-2.12c0.77-0.14,1.55,0.06,2.02,0.36c0.71,0.44,1.2,1,1.45,1.9c0.16,0.57,0.08,1.58,0.08,2.28c0,1.49,0,2.97,0,4.46c0,7.15,0,14.31,0,21.46c0,1.97,0,3.94,0,5.91c0,0.54,0,1.08,0,1.62c0,0.18-0.05,0.53,0.02,0.66c14.39,0.01,28.78,0.01,43.17,0.02c0.04,0.02,0.04,0.08,0.07,0.11c0.19-0.02,0.67-0.3,0.84-0.4c0.7-0.38,1.36-0.74,1.99-1.17c0.98-0.68,1.93-1.45,2.63-2.41c1.07-1.5,1.82-3.28,2.43-5.25c0.2-0.65,0.32-1.31,0.49-2c0.22-0.89,0.33-1.86,0.51-2.8c0.04-0.32,0.08-0.65,0.11-0.97c0.05-0.33,0.05-0.66,0.11-1.01c0.02-0.12,0.07-0.33,0.02-0.42c-2.73,0-5.47-0.01-8.2-0.01c-0.57,0-1.13,0-1.7,0c-0.53,0-1.07,0.02-1.42-0.14c-0.37-0.16-0.69-0.53-0.81-0.94c-0.08-0.27-0.05-0.65-0.05-0.99c0-0.56,0-1.12,0-1.67c0-2.93,0-5.87,0-8.8c0-0.64,0-1.28,0-1.93c0-0.37-0.03-0.79,0.05-1.08c0.06-0.21,0.19-0.41,0.32-0.57c0.52-0.65,1.51-0.5,2.63-0.5c2.13,0,4.26,0,6.39,0c0.75,0,1.5,0,2.25,0c0.14,0,0.69,0.03,0.74-0.04c0-1.88,0.01-3.76,0.01-5.63c0-0.44,0-0.88,0-1.32c0-0.16,0.04-0.44-0.02-0.56c-0.23-0.06-0.56-0.02-0.82-0.02c-0.56,0-1.11,0-1.67,0c-1.75,0-3.5,0-5.25,0c-0.8,0-1.86,0.09-2.48-0.11c-1.37-0.43-2.03-1.57-2.75-2.66c-0.4-0.58-0.8-1.16-1.2-1.74C115.32,5.22,115.33,5.21,115.33,5.2z" />
    <path class="st0" d="M163.67,36.22c0-0.51,0-1.03,0-1.54c0-1.92,0-3.84,0-5.76c0-0.63,0-1.27,0-1.9c0-0.52,0.02-1.04-0.1-1.45c-0.32-1.15-1.18-1.94-2.4-2.19c-0.32-0.07-0.69-0.05-1.06-0.05c-0.55,0-1.11,0-1.66,0c-0.77,0-1.54-0.01-2.31-0.01c-0.05-0.04-0.03-0.19-0.03-0.27c0-0.26,0-0.52,0-0.78c0-0.81,0-1.62,0-2.43c0-0.24-0.05-0.87,0.02-1.04c0.38,0,0.75-0.01,1.13-0.01c0.83,0,1.66,0,2.5,0c0.45,0,0.95,0.04,1.35-0.03c0.59-0.11,1.04-0.34,1.44-0.64c0.54-0.41,0.86-1.01,1.07-1.76c0.07-0.24,0.05-0.53,0.05-0.82c0-0.39,0-0.78,0-1.17c0-1.34,0-2.67,0-4.01c0-0.5,0-1.01,0-1.51c0-0.6,0.01-1.17-0.15-1.61c-0.22-0.6-0.59-1.13-1.07-1.47c-0.34-0.24-0.71-0.4-1.16-0.53c-0.45-0.12-1.1-0.06-1.64-0.06c-1.04,0-2.08,0-3.12,0c-4.63,0-9.26,0-13.88,0c-0.12,0.02-0.24,0.03-0.37,0.05c-0.16,0.04-0.31,0.08-0.47,0.12c-0.77,0.31-1.42,0.84-1.74,1.59c-0.12,0.28-0.2,0.58-0.26,0.93c0,0.82-0.01,1.64-0.01,2.46c0,1.32,0,2.65,0,3.97c0,0.67-0.07,1.52,0.05,2.09c0.17,0.75,0.59,1.39,1.13,1.78c0.38,0.28,0.82,0.48,1.37,0.59c0.26,0.05,0.55,0.03,0.84,0.03c0.47,0,0.94,0,1.41,0c2.42,0,4.85,0.01,7.27,0.01c0.07,0.11,0.02,0.43,0.02,0.61c0,0.51,0,1.03,0,1.54c0,2.29,0.01,4.59,0.01,6.88c0,0.01,0.01,0.02,0.01,0.02c2.41,0.01,4.82,0.01,7.22,0.02c0.06,0.13,0.02,0.41,0.02,0.58c0,0.45,0,0.9,0,1.35c0,1.67-0.01,3.34-0.01,5.01c-0.14,0.06-0.8,0.02-1.01,0.02c-1.16,0-2.32,0.01-3.49,0.01c-0.01,0-0.02,0.01-0.02,0.01c0,1.6-0.01,3.19-0.01,4.79c0.11,0.07,0.84,0.03,1.04,0.03c0.91,0,1.82,0,2.73,0c0.57,0,1.14,0,1.71,0c0.44,0,0.88,0.01,1.24-0.07c0.65-0.15,1.25-0.52,1.61-0.97c0.32-0.4,0.56-0.84,0.69-1.43C163.68,36.91,163.67,36.57,163.67,36.22z M145.28,14.58c-0.09-0.05-0.05-0.18-0.05-0.31c0-0.29,0-0.57,0-0.86c0-0.96,0-1.91,0-2.87c0-0.22-0.04-1,0.02-1.1c4.32,0,8.64,0.01,12.96,0.01c0.04,0.09,0.02,0.27,0.02,0.4c0,0.35,0,0.7,0,1.05c0,1.22-0.01,2.44-0.01,3.66c-0.12,0.06-0.74,0.02-0.94,0.02c-0.79,0-1.57,0-2.36,0C151.71,14.57,148.5,14.57,145.28,14.58z" />
    <path class="st0" d="M107.74,40.88c0-1.5,0-2.99,0-4.49c0-5.05,0-10.11,0-15.16c0-1.57,0-3.14,0-4.71c0-1.22,0.05-2.14-0.43-2.88c-0.42-0.67-1.03-1.17-1.89-1.39c-0.45-0.12-1.06-0.08-1.61-0.08c-0.95,0-1.9,0-2.85,0c-5.12,0-10.24,0-15.36,0c-0.12,0.01-0.24,0.02-0.37,0.02c-0.22,0.04-0.44,0.09-0.63,0.16c-0.77,0.29-1.34,0.86-1.69,1.57c-0.28,0.56-0.27,1.32-0.27,2.17c0,0.57,0,1.15,0,1.72c0,1.67,0,3.34,0,5.01c0,0.84-0.09,1.93,0.11,2.59c0.25,0.8,0.73,1.37,1.38,1.77c0.29,0.18,0.67,0.3,1.06,0.38c0.41,0.08,0.94,0.03,1.39,0.03c0.88,0,1.76,0,2.64,0c4.35,0,8.7,0.01,13.05,0.01c0.04,0.15,0.02,0.37,0.02,0.55c0,0.4,0,0.8,0,1.2c0,1.12-0.01,2.24-0.01,3.36c-0.15,0.07-0.91,0.02-1.14,0.02c-0.95,0-1.89,0-2.84,0c-3.36,0-6.73,0-10.09,0c-0.8,0-1.6,0-2.4,0c-0.47,0-1-0.03-1.38,0.07c-0.81,0.22-1.46,0.83-1.69,1.62c-0.05,0.19-0.07,0.38-0.11,0.59c-0.08,0.51,0.2,1.12,0.37,1.39c0.33,0.53,0.78,0.88,1.44,1.08c0.32,0.1,0.76,0.08,1.18,0.08c0.61,0,1.21,0,1.82,0c4.94,0,9.89,0,14.83,0c0.07,0.13,0.02,0.46,0.02,0.64c0,0.53,0,1.06,0,1.58c0,0.67,0,1.34,0,2.02c0,0.45-0.02,0.92,0.07,1.28c0.19,0.75,0.6,1.36,1.15,1.75c0.4,0.28,0.89,0.51,1.48,0.59c0.07-0.02,0.13-0.03,0.2-0.05c0.27-0.06,0.49-0.11,0.7-0.21c0.79-0.35,1.41-0.96,1.69-1.81C107.81,42.71,107.74,41.73,107.74,40.88z M102.3,17.47c0,0.38,0,0.76,0,1.13c0,1.37,0,2.74,0,4.11c-0.11,0.06-0.88,0.02-1.1,0.02c-0.96,0-1.92,0-2.88,0c-3.6,0-7.21,0-10.81,0c-0.05-0.08-0.02-0.31-0.02-0.46c0-0.37,0-0.75,0-1.12c0-1.38,0-2.76,0-4.14c0.01-0.01,0.03-0.02,0.04-0.03c4.92,0,9.83,0.01,14.75,0.01C102.33,17.1,102.3,17.33,102.3,17.47z" />
    <path class="st0" d="M142.76,23.34c2.02,0,4.03,0.01,6.05,0.01c0.01,0.01,0.03,0.03,0.04,0.04c0,1.06,0,2.12,0,3.18c0,0.32,0,0.64,0,0.96c0,0.1,0.02,0.26-0.02,0.34c-1.1,0-2.2,0.01-3.3,0.01c-0.23,0-1.08-0.05-1.22,0.02c0,1.76-0.01,3.51-0.01,5.27c0,0.42,0,0.84,0,1.26c0,0.09-0.03,0.37,0.02,0.41c2.5,0.01,5.01,0.01,7.51,0.02c0.01,0.01,0.02,0.02,0.02,0.03c0,3.79,0,7.58,0,11.37c0,0.96,0,1.93,0,2.89c0,0.22-0.04,0.99,0.03,1.11c2.63,0,5.27,0,7.9,0c0.58,0,1.17,0,1.75,0c0.32,0,0.68-0.03,0.94,0.04c0.21,0.06,0.41,0.15,0.56,0.27c0.67,0.49,0.6,1.15,0.6,2.27c0,0.38,0.04,0.83-0.05,1.15c-0.09,0.35-0.32,0.65-0.58,0.84c-0.48,0.34-1.19,0.28-2,0.28c-1.34,0-2.68,0-4.03,0c-5.33,0-10.66,0-15.98,0c-1.13,0-2.26,0-3.39,0c-0.56,0-1.13-0.01-1.69-0.01c-0.61-0.12-1.04-0.47-1.23-1.01c-0.11-0.31-0.07-0.8-0.07-1.2c0-1.18-0.08-1.87,0.65-2.36c0.58-0.38,1.8-0.26,2.75-0.26c2.11,0,4.23,0,6.34,0c0.81,0,1.62,0,2.44,0c0.14,0,0.76,0.03,0.81-0.03c0-0.95,0.01-1.9,0.01-2.85c0-2.56-0.01-5.13-0.01-7.69c-0.01,0-0.02-0.01-0.02-0.01c-0.64,0-1.27-0.01-1.91-0.01c-0.73,0-1.45,0-2.18,0c-0.37,0-0.8,0.05-1.14-0.02c-0.76-0.15-1.41-0.45-1.81-0.96c-0.32-0.4-0.6-0.83-0.73-1.42c-0.07-0.33-0.05-0.71-0.05-1.1c0-0.56,0-1.12,0-1.67c0-1.97,0-3.93,0-5.9c0-1.27-0.14-2.8,0.33-3.62c0.39-0.68,0.94-1.21,1.74-1.48c0.2-0.07,0.4-0.09,0.63-0.13C142.58,23.35,142.67,23.35,142.76,23.34z" />
    <path class="st0" d="M167.26,41.49c1.76-0.03,2.92,0.93,3.4,2.18c0.14,0.36,0.26,0.73,0.26,1.24c0,0.16,0,0.32,0,0.48c-0.07,0.11-0.07,0.31-0.11,0.46c-0.05,0.16-0.11,0.31-0.16,0.47c-0.34,0.89-1.08,1.53-1.95,1.9c-0.28,0.12-0.62,0.16-0.96,0.22c-0.5,0.08-1.13-0.06-1.46-0.2c-1.07-0.43-1.82-1.14-2.18-2.27c-0.2-0.62-0.2-1.63,0.06-2.19c0.44-0.95,1-1.65,1.99-2.05c0.24-0.1,0.5-0.14,0.78-0.21C167.04,41.51,167.15,41.5,167.26,41.49z" />
    <path class="st0" d="M47.88,41.95c2.21-0.04,3.64,1.31,4.27,2.87c0.35,0.88,0.4,2.2,0.04,3.12c-0.51,1.28-1.45,2.27-2.8,2.71c-0.34,0.11-0.71,0.15-1.11,0.21c-0.12,0-0.23,0-0.35,0c-0.66,0-1.21-0.15-1.67-0.36c-1.05-0.46-1.8-1.18-2.3-2.18c-0.11-0.21-0.15-0.42-0.24-0.66c-0.18-0.5-0.27-1.32-0.14-1.96c0.06-0.28,0.11-0.57,0.21-0.82c0.52-1.31,1.4-2.12,2.68-2.67c0.27-0.12,0.6-0.17,0.91-0.22C47.56,41.97,47.72,41.96,47.88,41.95z" />
</svg>
