<svg width="40" height="40" viewBox="0 0 40 40" xmlns="http://www.w3.org/2000/svg">
<path d="M29.66 28.16C34.12 28.4 37.94 24.98 38.2 20.52C38.44 16.06 35.02 12.24 30.56 11.98C30.26 11.96 29.96 11.96 29.66 11.98H24.46C26 12.86 27.28 14.16 28.12 15.74H29.66C32.06 15.56 34.14 17.36 34.32 19.74C34.5 22.14 32.7 24.22 30.32 24.4C30.1 24.42 29.88 24.42 29.66 24.4H21.8C19.4 24.4 17.44 22.46 17.44 20.04C17.44 19.04 17.8 18.08 18.44 17.32H14.22C13.9 18.2 13.72 19.12 13.72 20.04C13.72 24.52 17.34 28.14 21.82 28.14L29.66 28.16Z" />
<path d="M13.62 24.4H11.32C8.92001 24.58 6.84001 22.78 6.66001 20.4C6.48001 18.02 8.28 15.92 10.66 15.74C10.88 15.72 11.1 15.72 11.32 15.74H19.88C22.28 15.74 24.22 17.68 24.24 20.06C24.24 20.64 24.12 21.2 23.88 21.74C23.72 22.12 23.5 22.48 23.22 22.8H27.48C27.8 21.92 27.98 21 27.98 20.08C27.96 15.62 24.34 12 19.88 12H11.28C6.82001 11.74 3.00001 15.16 2.76001 19.62C2.52001 24.08 5.94 27.9 10.4 28.16C10.7 28.18 11 28.18 11.3 28.16H17.22C15.68 27.28 14.44 25.98 13.62 24.4Z" />
</svg>
